

<svg width="144" height="38" viewBox="0 0 144 38" fill="none" xmlns="http://www.w3.org/2000/svg">
<path d="M8.45896 21.6775C5.8551 21.6775 4.17345 20.2671 3.08851 18.694V21.3792H1V1.57227H3.08851V10.1704C4.2277 8.48875 5.88223 7.05121 8.45896 7.05121C11.8223 7.05121 15.1585 9.70931 15.1585 14.3474C15.1585 18.9855 11.8494 21.6775 8.45896 21.6775ZM8.07923 8.92273C5.47538 8.92273 3.00713 11.0926 3.00713 14.3474C3.00713 17.6022 5.47538 19.7992 8.07923 19.7992C10.6831 19.7992 13.0157 17.7921 13.0157 14.3746C13.0157 10.957 10.7373 8.92273 8.07923 8.92273V8.92273Z" fill="#00F89C"/>
<path d="M23.8516 19.887C25.7774 19.887 27.1335 19.1004 28.2727 17.907L29.5747 19.0733C28.1642 20.6464 26.4555 21.7042 23.7974 21.7042C19.9458 21.7042 16.7927 18.7478 16.7927 14.3809C16.7927 10.3124 19.6407 7.05078 23.5261 7.05078C27.676 7.05078 30.0629 10.3598 30.0629 14.4894C30.0629 14.6793 30.0629 14.8962 30.0358 15.1404H18.9084C19.2067 18.1782 21.3766 19.887 23.8448 19.887H23.8516ZM27.9472 13.5943C27.7303 11.0447 26.2656 8.82059 23.4719 8.82059C21.0308 8.82059 19.1864 10.8549 18.9151 13.5943H27.954H27.9472Z" fill="#00F89C"/>
<path d="M38.5592 19.887C40.485 19.887 41.8412 19.1004 42.9804 17.907L44.2823 19.0733C42.8719 20.6464 41.1631 21.7042 38.505 21.7042C34.6535 21.7042 31.5004 18.7478 31.5004 14.3809C31.5004 10.3124 34.3483 7.05078 38.2338 7.05078C42.3837 7.05078 44.7705 10.3598 44.7705 14.4894C44.7705 14.6793 44.7705 14.8962 44.7434 15.1404H33.616C33.9144 18.1782 36.0842 19.887 38.5525 19.887H38.5592ZM42.6549 13.5943C42.4379 11.0447 40.9732 8.82059 38.1795 8.82059C35.7384 8.82059 33.894 10.8549 33.6228 13.5943H42.6617H42.6549Z" fill="#00F89C"/>
<path d="M49.9104 17.3929C49.9104 19.1017 50.8597 19.7255 52.2702 19.7255C52.9754 19.7255 53.5721 19.5899 54.3044 19.2373V21.0274C53.5721 21.4072 52.7855 21.6241 51.7819 21.6241C49.5307 21.6241 47.8219 20.5121 47.8219 17.6641V9.1948H45.869V7.3504H47.8219V3.11914H49.9104V7.3504H54.3587V9.1948H49.9104V17.3929Z" fill="#00F89C"/>
<path d="M58.7865 21.3792H56.698V1.57227H58.7865V9.79068C59.7087 8.27177 61.1734 7.05121 63.5874 7.05121C66.9778 7.05121 68.9578 9.32958 68.9578 12.6658V21.3792H66.8693V13.1811C66.8693 10.5773 65.4589 8.94985 62.9906 8.94985C60.5224 8.94985 58.7865 10.7129 58.7865 13.3439V21.3792V21.3792Z" fill="#00F89C"/>
<path d="M78.4647 21.7042C74.2606 21.7042 71.1888 18.3952 71.1888 14.408C71.1888 10.4209 74.2809 7.05078 78.519 7.05078C82.757 7.05078 85.8152 10.3598 85.8152 14.347C85.8152 18.3342 82.696 21.7042 78.4579 21.7042H78.4647ZM78.4647 8.89518C75.4269 8.89518 73.3384 11.3092 73.3384 14.347C73.3384 17.3848 75.5625 19.8259 78.519 19.8259C81.4754 19.8259 83.6724 17.412 83.6724 14.4012C83.6724 11.3905 81.4212 8.89518 78.4647 8.89518V8.89518Z" fill="#00F89C"/>
<path d="M97.8104 7.34961H100.062L93.952 21.4877H92.1076L86.032 7.34961H88.3375L93.057 18.9924L97.8036 7.34961H97.8104Z" fill="#00F89C"/>
<path d="M107.372 19.887C109.297 19.887 110.653 19.1004 111.793 17.907L113.095 19.0733C111.684 20.6464 109.975 21.7042 107.317 21.7042C103.466 21.7042 100.313 18.7478 100.313 14.3809C100.313 10.3124 103.161 7.05078 107.046 7.05078C111.196 7.05078 113.583 10.3598 113.583 14.4894C113.583 14.6793 113.583 14.8962 113.556 15.1404H102.428C102.727 18.1782 104.896 19.887 107.365 19.887H107.372ZM111.467 13.5943C111.25 11.0447 109.786 8.82059 106.992 8.82059C104.551 8.82059 102.706 10.8549 102.435 13.5943H111.474H111.467Z" fill="#00F89C"/>
<path d="M117.984 21.3788H115.895V7.34914H117.984V9.79025C118.906 8.27134 120.371 7.05078 122.785 7.05078C126.175 7.05078 128.155 9.32915 128.155 12.6653V21.3788H126.066V13.1807C126.066 10.5768 124.656 8.94942 122.188 8.94942C119.72 8.94942 117.984 10.7125 117.984 13.3434V21.3788V21.3788Z" fill="#00F89C"/>
<path d="M142.503 9.54069L142.185 9.87295L141.886 10.2188L141.547 10.5307L141.398 10.646L141.134 10.8426L140.883 10.863L140.713 10.8087L140.442 10.6188L140.055 10.3205L139.628 9.86617L139.357 9.56103L138.95 9.08637L138.564 8.70664L138.333 8.55746L138.143 8.48287L137.953 8.52355L137.648 8.7202L137.479 8.8965L137.173 9.16774L136.38 10.0967L136.061 10.3883L135.892 10.5646L135.587 10.7951L135.302 10.8155L134.976 10.646L134.57 10.2527L134.081 9.74411L133.79 9.42541L133.329 9.05246L133.037 8.73376L132.942 8.56424L132.746 8.2591L132.725 7.9743L132.949 7.66238L133.247 7.31656L133.532 6.9843L134.346 6.26552L134.61 5.9536L134.726 5.83833L134.915 5.49251L134.895 5.20771L134.678 4.9636L133.397 3.71592L133.105 3.39722L132.929 3.22769L132.712 2.86831L132.651 2.58351L132.854 2.29193L133.003 2.09529L133.342 1.78337L133.661 1.53248L133.98 1.2409L134.414 0.718772L134.773 0.427195L135.099 0.210207L135.383 0.189864L135.675 0.39329L136.156 0.867951L136.76 1.5257L137.438 2.10885L137.709 2.29872L137.885 2.39365L138.116 2.35296L138.36 2.17666L138.645 1.92577L138.909 1.61385L139.642 0.7798L140.116 0.298358L140.401 0.0813704L140.632 0L140.801 0.0135617L141.011 0.183083L141.167 0.298358L141.439 0.603497L141.866 1.13241L142.178 1.43076L142.659 1.82405L143.107 2.25803L143.283 2.50214L143.344 2.71235L143.29 2.92256L143.1 3.19379L142.456 3.85153L142.137 4.14311L141.662 4.54996L141.418 4.84154L141.269 4.9975L141.12 5.26874L141.066 5.47894L141.127 5.64847L141.303 5.89258L141.771 6.3469L142.835 7.26909L143.127 7.58779L143.263 7.75732L143.48 8.04211L143.5 8.36759L143.331 8.73376L143.012 9.06602L142.524 9.5339L142.503 9.54069ZM134.651 1.71556L134.787 1.95967L134.8 1.79015L134.739 1.69522L134.644 1.71556H134.651ZM133.803 2.73947V2.69879L133.708 2.67844V2.71913L133.769 2.77338L133.81 2.73269L133.803 2.73947ZM134.298 2.54283V2.46824H134.224L134.183 2.50892L134.203 2.52926V2.56995L134.264 2.59029L134.305 2.54961L134.298 2.54283ZM134.583 2.32584V2.28515H134.509L134.488 2.3055V2.34618H134.563L134.583 2.32584ZM134.434 2.55639V2.67166L134.515 2.74625L135.01 2.54961L134.529 2.46146L134.434 2.55639V2.55639ZM134.19 2.99714L134.224 2.88187L134.203 2.86153L134.142 2.84118L134.068 2.91577V3.03105L134.183 2.99036L134.19 2.99714ZM135.017 2.02748V2.10207L135.099 2.13597L135.173 2.06138L135.078 2.00714L135.024 2.02748H135.017ZM135.078 2.35296L134.983 2.25803L134.888 2.23769L134.909 2.40721L135.044 2.42755L135.078 2.35296ZM134.61 3.22091L134.8 3.25482L134.705 3.1192L134.549 3.00393L134.529 2.90899L134.393 2.81406L134.495 3.02427H134.536L134.617 3.21413L134.61 3.22091ZM134.38 3.18701L134.319 3.13276L134.203 3.17345L134.224 3.26838L134.278 3.28872L134.373 3.19379L134.38 3.18701ZM134.854 2.78016L134.875 2.91577H135.031L135.017 3.0853L135.132 2.92934L134.861 2.78016H134.854ZM135.254 2.52926L135.234 2.6242L135.58 2.69879V2.6581L135.309 2.50892L135.254 2.52926V2.52926ZM135.397 3.1192L135.512 2.92934L135.397 2.73947H135.356L135.336 2.71913L135.241 2.69879L135.187 2.79372L135.404 3.1192H135.397ZM134.576 3.45824L134.753 3.58708L134.712 3.47181L134.651 3.41756L134.576 3.45824ZM135.695 2.6242L135.682 2.8344L135.783 3.04461L135.878 3.02427L135.953 2.8344L135.838 2.64454L135.702 2.6242H135.695ZM134.963 3.41756H134.922L134.902 3.47859L134.963 3.53283L135.037 3.49215L134.963 3.41756ZM134.895 3.95325L134.8 3.899L134.949 3.62777L134.644 3.70914L134.759 3.93969L134.895 3.96003V3.95325ZM135.946 2.52248L136.122 2.84797L136.163 3.03783L135.994 3.21413L135.458 3.2955L135.424 3.41078L135.505 3.55996L135.756 3.49893L135.736 3.404L135.831 3.34297L136.007 3.51249L136.217 3.49215L136.251 3.41756L136.211 3.34297L136.136 3.38365L136.075 3.32941L136.265 2.98358L136.245 2.88865L136.339 2.71235L135.953 2.52926L135.946 2.52248ZM135.363 3.27516H135.288L135.268 3.37009L135.329 3.42434L135.363 3.26838V3.27516ZM135.295 3.69557L135.39 3.67523L135.431 3.71592L135.756 3.69557V3.62098L135.221 3.58708L135.166 3.7227L135.207 3.76338H135.282L135.302 3.70236L135.295 3.69557ZM135.282 4.06174L135.241 3.98715L135.261 3.89222L135.166 3.83797H135.051L134.841 4.08887L134.882 4.12955H135.227L135.282 4.06852V4.06174ZM135.492 3.85153L135.471 3.98715L135.377 4.04818V4.12277H135.451L135.6 3.96681V3.81085L135.485 3.85153H135.492ZM137.587 7.24875L137.621 7.0182L137.757 6.92327L137.662 6.82834L137.526 6.88936L137.546 6.90971L137.472 6.8758L137.452 6.70628L137.506 6.68594L137.54 6.52998L137.465 6.49607L137.37 6.5571L137.329 6.51642L137.35 6.49607L137.275 6.42148L137.329 6.36046L137.309 6.30621L137.519 6.096L137.614 6.15025L137.655 6.10956V6.03498L137.594 6.01463L137.635 5.97395L137.614 5.83833L137.519 5.85867L137.424 5.9536L137.363 5.89936V5.82477L137.458 5.76374V5.64847L137.357 5.55353L137.431 5.43826L137.377 5.53319L137.574 5.72306L137.614 5.68237L137.594 5.58744L137.519 5.51285V5.32298L137.628 5.16702H137.743L137.858 5.08565L137.953 5.106V5.26196L137.94 5.2823H137.899V5.32298L137.919 5.34333L138.014 5.32298L138.075 5.41792L137.892 5.83833L137.946 5.81799L137.926 5.83833L137.906 5.89258L138.001 5.87223L138.021 5.85189V5.81121L138.001 5.79086H137.96L138.15 5.6349H138.225L138.435 5.76374L138.455 5.97395L138.591 5.99429L138.611 5.93326H138.686L138.726 5.96717L138.896 5.90614L138.875 5.81121L138.184 5.43826L138.143 5.20771L138.292 4.90257L138.252 4.78729L138.116 4.76695L138.001 4.84832L137.824 4.44825L137.635 4.56353L137.458 4.394H137.418L137.438 4.33976L137.574 4.27873L137.648 4.12277L137.628 4.10243V4.06174L137.587 4.02106L137.736 3.98037L137.641 3.92612L137.546 3.98715L137.431 3.83797L137.235 3.6142L137.248 3.32941L137.153 3.23448L137.228 3.1192L137.112 3.0853L137.018 3.14632H136.977L136.902 3.07173L136.862 2.92256L136.787 3.03783L136.848 3.28872L136.502 3.41078L136.563 3.46502L136.943 3.49893L137.018 3.57352L136.251 3.5464L136.217 3.66167L136.007 3.83797L136.109 4.19736L136.36 4.17702L136.475 4.25161L136.129 4.37366L136.15 4.46859L136.034 4.65846L135.709 4.83476L135.614 4.81442L135.458 4.66524L135.478 4.57031L135.573 4.54996L135.627 4.48894V4.41435L135.356 4.45503V4.26517L135.336 4.24483L135.2 4.26517L135.146 4.3262H135.071L135.037 4.40757L135.661 5.05175L135.716 4.99072L135.865 4.95004L135.831 5.06531L135.953 5.44504L136.068 5.36367L135.987 5.09921L136.021 5.02463L136 4.8551L136.211 4.60421L136.38 4.61777L136.455 4.5025L136.495 4.54318L136.685 4.38722L136.739 4.2177L136.699 4.10243L136.604 4.08208L136.584 4.06174L136.712 3.77016L136.882 3.70914L136.963 3.85832L136.909 3.95325H136.834L136.794 3.99393L137.404 4.06174L137.424 4.0414L137.465 4.11599L137.39 4.15667L137.336 4.25161L137.357 4.27195L137.282 4.34654V4.42113L137.248 4.46181H136.943L136.773 4.60421L136.868 4.69914L136.909 4.84832L137.004 4.90257L137.099 4.88223L137.173 4.80764V4.76695L137.268 4.78729L137.343 4.71271L137.302 4.52284L137.397 4.46181L137.418 4.40757L137.533 4.63812L137.519 4.84832L137.39 4.98394H137.011L136.936 5.106L137.051 5.25517L137.146 5.27552L136.997 5.3162L136.821 5.14668L136.706 5.18737L136.631 5.30264L136.516 5.34333L136.475 5.26874L136.604 4.97716L136.258 5.01784L136.238 4.9636H136.163L136.143 5.02463L136.217 5.05853L136.278 5.19415L136.258 5.28908L136.299 5.36367L136.353 5.38401L136.339 5.70949L136.658 5.34333L136.943 5.39757L136.902 5.43826V5.47894L136.767 5.4586L136.577 5.65525L136.658 5.84511L136.638 5.89936L136.523 5.98073L136.489 6.096L136.645 6.12991L136.773 5.99429H136.814L136.895 6.10956L136.875 6.24518L136.726 6.32655L136.821 6.3808L136.956 6.31977L137.018 6.45539L136.923 6.59101L136.902 6.57066L136.848 6.59101L136.733 6.5571L136.617 6.59779L136.523 6.50285L136.428 6.56388L136.468 6.63847L136.563 6.69272L136.489 7.03854L136.353 7.0182L136.299 7.15382L136.584 7.0182L136.597 6.84868L136.651 6.82834L136.631 6.7334L136.556 6.6995L136.631 6.62491L136.746 6.65882L136.841 6.59779L136.726 6.75375L136.746 7.00464L136.807 7.05889L136.862 6.99786L136.882 6.86224L136.923 6.82156L137.018 6.8758L137.072 6.81478L137.051 6.71984L137.106 6.6995L137.167 6.71984L137.187 6.88936L137.133 6.90971L137.038 7.08601L136.794 7.18772L136.719 7.303L136.929 7.24197L137.065 7.41149L137.296 7.37081L137.329 7.29622L137.424 7.27587V7.35046H137.499L137.574 7.26909L137.587 7.24875ZM136.326 3.23448L136.306 3.28872L136.367 3.34297H136.407L136.367 3.22769H136.326V3.23448ZM135.743 4.14311L135.763 4.19736L135.817 4.2177L135.892 4.14311V4.06852L135.831 4.04818L135.756 4.08887L135.736 4.14989L135.743 4.14311ZM136.875 4.25839L136.95 4.29229L137.024 4.25161L137.045 4.19736L136.95 4.14311L136.855 4.20414L136.875 4.25839ZM139.052 2.3733L138.998 2.46824L139.018 2.56317L139.228 2.42755L139.187 2.35296L139.052 2.3733ZM139.296 2.23769L139.276 2.29872L139.337 2.35296H139.377L139.418 2.31228L139.343 2.23769H139.303H139.296ZM140.096 4.94325L140.137 4.90257L140.272 4.88223L140.327 4.8212L139.96 4.80764L139.804 4.46859L139.737 4.92969L139.662 5.00428L139.581 4.58387L139.689 4.35332L139.669 4.2177L139.398 3.95325L139.038 4.05496V4.31941L138.964 4.43469L138.842 4.08887L138.55 3.96003L138.333 3.63455L138.387 3.57352L138.367 3.51927L138.421 3.42434L138.631 3.404L138.611 3.49893L138.686 3.57352L138.781 3.55318L138.74 3.28872L138.95 3.26838L138.93 3.13276L138.869 3.07852V3.00393L138.774 2.94968L138.72 3.04461L138.645 3.0853L138.401 3.22091L138.306 3.47181L138.116 3.58708L138.177 3.64133L138.218 3.79051L138.197 3.81085L138.102 3.7566L137.723 3.87866L137.804 3.99393L138.34 3.94647L138.536 4.09565L138.577 4.3262L138.713 4.42113L138.672 4.46181L138.828 4.65168L138.998 4.70592L139.113 4.66524L139.133 4.57031L139.153 4.54996L139.459 4.69914L139.499 4.84832L139.35 4.9636L139.276 4.88901V4.81442L139.194 4.78051L139.126 5.3162L139.282 5.46538L139.323 5.4247H139.364L139.608 5.20771L139.764 5.24161L140.008 5.1399L140.069 5.19415H140.11L140.144 5.07887L140.082 4.98394L140.103 4.9636V4.92291L140.096 4.94325ZM135.661 6.47573L135.912 6.64525H135.953L135.973 6.62491L136.204 6.93005L136.258 6.95039L136.312 6.93005L136.095 6.3808L136.129 6.26552L135.994 6.17059L135.865 6.30621L135.939 6.34011L136.014 6.29943L136.034 6.31977L135.885 6.40114L135.865 6.3808L135.824 6.42148V6.3808L135.804 6.40114L135.709 6.3808L135.648 6.32655L135.668 6.26552L135.614 6.24518L135.56 6.26552L135.485 6.53676L135.58 6.5571L135.655 6.48251L135.661 6.47573ZM139.974 1.8444V1.88508L140.015 1.92577L140.069 1.94611L140.089 1.92577V1.88508L140.069 1.86474L139.974 1.8444V1.8444ZM139.072 2.77338V3.1531L139.133 3.20735L139.377 3.07173L139.357 2.9768L139.086 2.75303L139.065 2.77338H139.072ZM139.506 2.55639L139.262 2.6581L139.228 2.81406L139.323 2.71913L139.438 2.8344L139.594 2.86831L139.513 2.56317L139.506 2.55639ZM138.109 4.10243L138.014 4.04818L137.824 4.16345L137.845 4.2177L137.919 4.25161L138.089 4.15667L138.109 4.10243ZM140.313 1.68166L140.333 1.7359L140.428 1.71556L140.523 1.62063L140.598 1.65453L140.693 1.63419L140.483 1.50535L140.313 1.68166V1.68166ZM136.278 5.98073L136.414 5.96039L136.353 5.86545L136.278 5.83155V5.98751V5.98073ZM140.089 2.21734L140.028 2.12241H139.913V2.1631L140.008 2.29872L140.082 2.22413L140.089 2.21734ZM135.112 7.29622L135.241 7.11991L135.146 7.09957L135.126 7.11991H135.085L134.99 7.18094L135.01 7.27587L135.105 7.29622H135.112ZM140.34 2.08173L140.381 2.04104L140.286 1.94611H140.171L140.211 2.06138L140.347 2.11563V2.07495L140.34 2.08173ZM139.804 2.31906L139.75 2.38009V2.45468L139.899 2.29872L139.804 2.31906V2.31906ZM135.6 6.82834L135.614 6.65882L135.39 6.85546L135.431 6.93005H135.505L135.6 6.83512V6.82834ZM134 8.4354L133.98 8.34047H133.939L133.905 8.41506L133.966 8.46931L134.007 8.42862L134 8.4354ZM139.75 2.48858L139.621 2.66488L139.811 2.54961L139.75 2.49536V2.48858ZM136.19 6.42148L136.421 6.30621L136.495 6.15025L136.38 6.07566L136.231 6.19093L136.197 6.42148H136.19ZM139.404 3.51249L139.364 3.4379L139.269 3.41756L139.228 3.37687H139.187L139.167 3.28194L139.072 3.30228L139.052 3.39722L139.343 3.56674L139.398 3.50571L139.404 3.51249ZM138.347 4.29229L138.252 4.31263L138.197 4.37366L138.123 4.33976L138.048 4.38044L137.974 4.57031L138.048 4.60421L138.123 4.52962L138.414 4.69914L138.387 4.33298L138.442 4.31263V4.23804L138.38 4.2177L138.347 4.29229V4.29229ZM134.597 8.15061L134.576 8.05567L134.427 8.09636L134.393 8.17095L134.414 8.2252H134.488L134.604 8.14383L134.597 8.15061ZM137.194 5.32298L137.275 5.47216L137.201 5.51285L137.031 5.49929L137.201 5.32298H137.194ZM140.177 2.3733V2.41399L139.988 2.49536L139.954 2.72591L140.388 2.31906L140.177 2.38009V2.3733ZM135.065 7.58779L135.2 7.71663H135.275L135.431 7.86581L136.15 7.24197L136.183 7.05211L135.716 7.57423H135.6L135.505 7.4793L135.56 7.38437L135.404 7.26909L135.065 7.58101V7.58779ZM135.804 6.86902L135.824 6.92327L135.919 6.90293L135.939 6.8419L135.865 6.76731L135.811 6.86224L135.804 6.86902ZM139.689 2.95646H139.73L139.804 2.87509V2.8344L139.743 2.81406L139.669 2.88865L139.689 2.9429V2.95646ZM139.615 3.14632L139.499 3.07173L139.445 3.13276V3.20735L139.506 3.22769L139.547 3.30228L139.472 3.53283L139.533 3.70236H139.574L139.594 3.68201L139.628 3.14632H139.615ZM139.167 3.76338L139.147 3.70914L139.092 3.68879L139.018 3.72948V3.77016L139.099 3.84475H139.14L139.174 3.77016L139.167 3.76338ZM134.264 8.6863L134.359 8.70664L134.488 8.57102L134.468 8.55068H134.427L134.387 8.59136L134.251 8.61171V8.6863H134.264ZM137.506 5.3162L137.431 5.43148L137.506 5.3162V5.3162ZM140.672 2.10207L140.652 2.15632L140.693 2.197H140.767V2.12241L140.727 2.08173L140.706 2.10207H140.666H140.672ZM140.896 1.90542L141.066 1.91899L141.161 1.85796V1.81727L141.12 1.77659L140.889 1.89186L140.896 1.90542ZM135.77 7.25553L135.844 7.28944V7.24875L135.783 7.15382L135.743 7.1945L135.763 7.24875L135.77 7.25553ZM141.256 1.57994L141.235 1.67488H141.31L141.33 1.57994H141.256ZM134.353 8.67273V8.71342L134.332 8.69308L134.353 8.67273V8.67273ZM134.258 8.95753L134.237 8.90328L134.197 8.8626L134.102 8.92363L134.163 8.97787H134.237L134.258 8.95753ZM140.666 2.33262H140.55L140.476 2.41399L140.672 2.94968L140.761 2.43433L140.666 2.3394V2.33262ZM135.18 8.04889L135.2 7.98787L135.18 7.96752H135.105V8.00821L135.085 8.02855L135.18 8.04889ZM137.743 5.52641L137.594 5.60778L137.709 5.79764L137.73 5.81799L137.804 5.7434L137.838 5.24839L137.689 5.36367L137.75 5.53319L137.743 5.52641ZM139.852 3.20057L139.757 3.2616L139.852 3.31585L139.947 3.25482L139.852 3.20057ZM140.327 2.9429H140.137L140.272 3.03783L140.462 2.7666L140.327 2.78694V2.9429ZM140.286 4.10921H140.211L140.015 3.96003L139.994 3.74982L139.879 3.60064L139.913 3.37009L139.662 3.43112L139.682 3.68201H139.798L139.859 3.77695L139.689 3.95325L139.71 4.16345L139.804 4.2177L139.859 4.15667L139.818 4.08208L139.872 4.02106H139.947L140.238 4.22448L140.333 4.16345L140.523 4.27873L140.706 3.89222L140.272 4.10921H140.286ZM135.085 8.36759L135.234 8.32691L135.268 8.25232L135.153 8.17773L135.099 8.19807L135.044 8.29301L135.085 8.36759V8.36759ZM140.876 2.38009V2.45468H140.917L140.937 2.47502L140.957 2.45468V2.41399L140.883 2.38009H140.876ZM138.74 5.50607L138.896 5.58066L138.991 5.71627L139.147 5.75018L139.242 5.68915L139.282 5.83833H139.323L139.343 5.81799V5.7434L139.282 5.64847L139.303 5.62812L139.133 5.57388L139.092 5.49929H139.018L138.998 5.47894L138.977 5.49929L138.787 5.4247L138.706 5.30942V5.07887L138.55 4.92969L138.496 5.02463L138.455 4.98394H138.414L138.394 5.07887H138.319L138.286 5.30942L138.421 5.36367L138.516 5.30264L138.496 5.24839L138.55 5.18737L138.706 5.49251L138.55 5.4586L138.645 5.62812L138.72 5.58744L138.74 5.49251V5.50607ZM134.976 8.67273V8.63205L134.915 8.61171L134.861 8.67273V8.71342L134.976 8.67273V8.67273ZM140.503 3.14632L140.408 3.09208L140.103 3.32263L140.293 3.4379L140.483 3.32263V3.28194L140.503 3.2616V3.14632V3.14632ZM136.278 7.56067L136.163 7.41149L135.899 7.64204L135.973 7.67595L136.143 7.54033L136.278 7.56067ZM136.645 7.53355L136.604 7.303L136.353 7.28944L136.604 7.57423L136.645 7.53355ZM137.77 6.02819L137.791 5.89258H137.75L137.696 5.98751L137.77 6.02141V6.02819ZM140.808 2.8344L140.788 2.88865L140.808 2.9429L140.862 2.96324L140.978 2.88187L140.998 2.78694L140.903 2.7666L140.808 2.82762V2.8344ZM137.431 6.3808L137.587 6.4147L137.702 6.64525L137.757 6.6656L137.797 6.62491L137.858 6.71984L137.913 6.74019L137.994 6.97074L138.245 7.02498L137.736 6.42148L137.872 6.36046L137.892 6.3808L138.197 6.25874L138.143 6.42827L138.408 6.23162V6.19093L138.543 6.12991L137.946 6.00107L137.831 5.8858L137.852 6.05532L137.811 6.096L137.791 6.19093L137.431 6.36724V6.3808ZM135.526 8.29979L135.6 8.33369L135.77 8.23876V8.0828L135.655 8.23876H135.58L135.526 8.29979ZM138.903 4.90935L138.943 4.98394L138.984 5.02463L139.079 4.92969L139.038 4.8551L138.943 4.83476L138.909 4.90935H138.903ZM140.733 3.22091L140.639 3.16667H140.598L140.557 3.20735L140.544 3.49215L140.564 3.51249H140.605L140.733 3.22091ZM134.753 9.36438L134.773 9.31014L134.753 9.28979L134.658 9.26945V9.34404L134.753 9.36438ZM140.584 3.7566L140.618 3.64133L140.462 3.60742L140.177 3.70914L140.218 3.82441L140.408 3.899L140.577 3.76338L140.584 3.7566ZM138.069 5.9536L138.163 5.93326L138.218 5.87223L138.157 5.81799L138.062 5.87901V5.9536H138.069ZM136.339 7.85225V7.81156L136.319 7.79122L136.224 7.77088L136.17 7.83191L136.245 7.86581L136.339 7.84547V7.85225ZM141.127 2.92934L141.093 3.00393L141.167 3.07852L141.208 3.03783L141.228 2.90221L141.134 2.92256L141.127 2.92934ZM139.465 4.67202L139.445 4.69236V4.65168L139.465 4.67202V4.67202ZM139.974 4.29907L139.994 4.27873L139.94 4.25839L139.845 4.35332L139.981 4.33298V4.29229L139.974 4.29907ZM136.143 8.19129L136.048 8.25232L136.122 8.32691L136.278 8.36081L136.428 8.24554L136.163 8.28622L136.143 8.19129V8.19129ZM135.505 9.23555V9.12027L135.444 9.02534L135.329 8.99143L135.275 9.08637L135.336 9.14061H135.41L135.505 9.23555ZM136.977 7.60814L136.902 7.53355H136.828L136.773 7.59457L136.984 7.60814H136.977ZM136.577 7.85903L136.482 7.92006L136.448 7.99465L136.468 8.01499H136.509L136.563 7.95396L136.584 7.85903H136.577ZM139.316 5.39079L139.296 5.41113L139.276 5.39079H139.316V5.39079ZM138.516 6.79443L138.645 6.61813L138.333 6.39436V6.55032L138.509 6.56388L138.53 6.58423L138.516 6.79443ZM135.343 9.85939L135.363 9.80514L135.322 9.73055L135.302 9.6763L135.261 9.71699V9.87295H135.343V9.85939ZM138.964 6.10278L138.903 6.08244L138.828 6.12313L138.808 6.18415L138.848 6.29943L139.228 6.33333V6.29265L138.957 6.10278H138.964ZM138.977 6.86902L139.106 6.61813L138.95 6.35368H138.794L138.72 6.46895L138.93 6.67916L138.97 6.86902H138.977ZM138.163 7.39793L138.123 7.28265L138.028 7.18772L137.933 7.24875L138.163 7.39793ZM138.286 7.89293L138.204 7.77766L138.353 7.6217L138.387 7.46574L138.008 7.54711V7.6217L138.089 7.69629L138.13 7.84547L138.286 7.87937V7.89293ZM138.509 7.27587L138.435 7.20128L138.34 7.26231L138.435 7.35724H138.509V7.28265V7.27587ZM139.391 6.25196L139.452 6.76731L139.587 6.74697L139.696 6.51642L139.54 6.28587L139.384 6.25196H139.391ZM140.001 7.37081L140.035 7.25553L139.994 7.18094L139.899 7.20128L139.825 7.16738L140.069 6.72662L140.028 6.61135L140.177 6.3808L139.716 6.11635L139.757 6.30621L139.852 6.40114L139.954 6.76053L139.289 7.13348L139.038 7.07923L139.099 7.40471L139.404 7.36403L139.384 7.22841L139.533 7.14704L139.71 7.39115L139.994 7.37081H140.001ZM138.943 7.13348L138.923 7.03854H138.848L138.814 7.15382L138.875 7.24875L138.95 7.13348H138.943ZM139.391 7.56745V7.49286L139.235 7.45896L139.086 7.54033L138.72 7.45218L138.665 7.5132L138.706 7.66238H138.781L138.93 7.54711L139.004 7.6217L139.384 7.58101L139.391 7.56745ZM138.787 8.03533L138.747 7.80478L138.631 7.73019H138.516L138.482 7.84547L138.462 7.82512L138.347 7.9404L138.252 7.96074L138.218 8.03533L138.279 8.08958H138.74L138.794 8.02855L138.787 8.03533ZM139.208 7.91328V7.72341H139.167L139.072 7.78444L139.052 7.87937L139.011 7.92006V7.96074L138.896 8.00143V8.1167L138.991 8.13704L139.045 8.04211H139.086L139.201 7.92684L139.208 7.91328ZM140.252 7.1945L140.232 7.05889L140.157 7.02498L140.137 7.07923L140.157 7.13348L140.252 7.18772V7.1945ZM139.404 8.06924L139.384 8.12348L139.425 8.19807L139.479 8.21842L139.574 8.12348L139.554 8.06924L139.479 8.03533L139.404 8.07602V8.06924ZM139.608 8.86938L139.642 8.79479L139.56 8.67951L139.764 8.35403H139.343L139.303 8.28622H139.228L139.194 8.36759L139.289 8.42184L139.309 8.51677L139.384 8.59136L139.309 8.70664L139.37 8.80157L139.601 8.87616L139.608 8.86938ZM140.144 7.39115L140.164 7.4454L140.238 7.4793L140.333 7.45896L140.388 7.39793L140.252 7.303L140.137 7.38437L140.144 7.39115ZM140.049 8.73376L140.069 8.67273L140.049 8.61849L139.974 8.58458L139.859 8.66595L139.879 8.7202L139.954 8.7541L140.049 8.73376V8.73376ZM140.869 8.59136L140.754 8.44218L140.605 8.48287L140.13 8.93041V9.04568L140.191 9.09993L140.645 8.59814L140.761 8.63205L140.876 8.59136H140.869ZM141.228 8.2591L141.249 8.16417L141.134 8.04889L141.039 8.06924L141.018 8.16417L141.079 8.2591L141.154 8.29301L141.228 8.25232V8.2591ZM141.011 9.29657L140.896 9.06602V8.83547L140.727 9.08637L140.944 9.33048L141.018 9.28979L141.011 9.29657ZM140.496 9.58815V9.54747L140.455 9.50678L140.36 9.56781L140.381 9.62206L140.435 9.6424L140.489 9.58137L140.496 9.58815ZM141.445 8.88972L141.5 8.86938V8.82869L141.479 8.80835L141.425 8.78801L141.351 8.82869L141.445 8.88294V8.88972ZM140.7 10.0493L140.659 9.93398L140.523 9.87973L140.639 10.0696H140.679L140.7 10.0493ZM142.056 8.50321L142.022 8.5778L142.062 8.69308L142.117 8.67273L142.137 8.61849V8.5439L142.096 8.50321H142.056V8.50321ZM141.174 9.75767L141.228 9.66274L141.208 9.60849H141.167L141.113 9.70343L141.134 9.75767H141.174Z" fill="#FF0000"/>
<path d="M0.965909 36V28.7273H3.31321C3.82931 28.7273 4.26018 28.8267 4.60582 29.0256C4.95384 29.2221 5.21544 29.4896 5.39062 29.8281C5.56818 30.1667 5.65696 30.5478 5.65696 30.9716C5.65696 31.3954 5.56937 31.7777 5.39418 32.1186C5.21899 32.4571 4.95857 32.7259 4.61293 32.9247C4.26728 33.1212 3.83759 33.2195 3.32386 33.2195H1.47727V32.6229H3.30611C3.68726 32.6229 4.00331 32.5518 4.25426 32.4098C4.50521 32.2654 4.69223 32.0689 4.81534 31.8203C4.94081 31.5717 5.00355 31.2888 5.00355 30.9716C5.00355 30.6544 4.94081 30.3714 4.81534 30.1229C4.69223 29.8743 4.50402 29.679 4.25071 29.5369C3.99976 29.3949 3.68134 29.3239 3.29545 29.3239H1.62997V36H0.965909ZM12.8783 32.3636C12.8783 33.1212 12.7433 33.7805 12.4734 34.3416C12.2036 34.9003 11.8319 35.3336 11.3584 35.6413C10.8873 35.9467 10.3451 36.0994 9.73196 36.0994C9.1188 36.0994 8.57547 35.9467 8.10199 35.6413C7.63087 35.3336 7.26037 34.9003 6.99048 34.3416C6.72296 33.7805 6.5892 33.1212 6.5892 32.3636C6.5892 31.6061 6.72296 30.9479 6.99048 30.3892C7.26037 29.8281 7.63205 29.3949 8.10554 29.0895C8.57902 28.7817 9.12116 28.6278 9.73196 28.6278C10.3451 28.6278 10.8873 28.7817 11.3584 29.0895C11.8319 29.3949 12.2036 29.8281 12.4734 30.3892C12.7433 30.9479 12.8783 31.6061 12.8783 32.3636ZM12.232 32.3636C12.232 31.7126 12.1231 31.1551 11.9053 30.6911C11.6875 30.2247 11.3903 29.8684 11.0139 29.6222C10.6375 29.3759 10.2102 29.2528 9.73196 29.2528C9.25611 29.2528 8.82997 29.3759 8.45355 29.6222C8.07713 29.8684 7.77884 30.2235 7.55866 30.6875C7.34086 31.1515 7.23196 31.7102 7.23196 32.3636C7.23196 33.0147 7.34086 33.5722 7.55866 34.0362C7.77647 34.5002 8.07358 34.8565 8.45 35.1051C8.82642 35.3513 9.25374 35.4744 9.73196 35.4744C10.2102 35.4744 10.6375 35.3513 11.0139 35.1051C11.3927 34.8589 11.691 34.5038 11.9088 34.0398C12.1266 33.5734 12.2343 33.0147 12.232 32.3636ZM15.4485 36L13.4563 28.7273H14.131L15.7787 34.9808H15.8355L17.4833 28.7273H18.2503L19.898 34.9808H19.9549L21.6026 28.7273H22.2809L20.2887 36H19.5784L17.8917 29.8317H17.8455L16.1587 36H15.4485ZM23.1811 36V28.7273H27.3999V29.3239H23.8452V32.0618H27.1762V32.6584H23.8452V35.4034H27.4709V36H23.1811ZM28.8186 36V28.7273H31.1659C31.682 28.7273 32.1129 28.8208 32.4586 29.0078C32.8066 29.1925 33.0682 29.4493 33.2434 29.7784C33.4209 30.1051 33.5097 30.4804 33.5097 30.9041C33.5097 31.3279 33.4209 31.7019 33.2434 32.0263C33.0682 32.3506 32.8078 32.6039 32.4621 32.7862C32.1165 32.9685 31.688 33.0597 31.1766 33.0597H29.1773V32.4524H31.1588C31.5376 32.4524 31.8525 32.3897 32.1034 32.2642C32.3568 32.1387 32.545 31.96 32.6681 31.728C32.7935 31.496 32.8563 31.2214 32.8563 30.9041C32.8563 30.5869 32.7935 30.3099 32.6681 30.0732C32.5426 29.834 32.3532 29.6494 32.0999 29.5192C31.8489 29.389 31.5317 29.3239 31.1482 29.3239H29.4827V36H28.8186ZM32.0253 32.7188L33.8151 36H33.048L31.276 32.7188H32.0253ZM34.8272 36V28.7273H39.046V29.3239H35.4913V32.0618H38.8223V32.6584H35.4913V35.4034H39.117V36H34.8272ZM42.5954 36H40.4647V28.7273H42.7233C43.4169 28.7273 44.01 28.8717 44.5024 29.1605C44.9972 29.4493 45.376 29.8636 45.6387 30.4034C45.9015 30.9432 46.0329 31.5907 46.0329 32.3459C46.0329 33.1082 45.898 33.7628 45.6281 34.3097C45.3606 34.8542 44.9699 35.272 44.4562 35.5632C43.9449 35.8544 43.3246 36 42.5954 36ZM41.1288 35.4034H42.5564C43.1814 35.4034 43.7046 35.2803 44.126 35.0341C44.5474 34.7879 44.8634 34.4363 45.0741 33.9794C45.2848 33.5225 45.3902 32.978 45.3902 32.3459C45.3878 31.7185 45.2836 31.1787 45.0777 30.7266C44.8741 30.2744 44.571 29.9276 44.1686 29.6861C43.7685 29.4446 43.2737 29.3239 42.6842 29.3239H41.1288V35.4034ZM49.855 36V28.7273H52.3088C52.7823 28.7273 53.1765 28.8101 53.4913 28.9759C53.8086 29.1416 54.0465 29.3677 54.2051 29.6541C54.3637 29.9406 54.443 30.2661 54.443 30.6307C54.443 30.9337 54.3921 31.1929 54.2903 31.4084C54.1885 31.6238 54.05 31.7978 53.8749 31.9304C53.6997 32.063 53.5044 32.1589 53.2889 32.218V32.2749C53.5233 32.2914 53.7506 32.3743 53.9707 32.5234C54.1909 32.6702 54.372 32.8762 54.5141 33.1413C54.6561 33.4065 54.7271 33.7237 54.7271 34.093C54.7271 34.46 54.6455 34.7879 54.4821 35.0767C54.3187 35.3632 54.0678 35.5893 53.7293 35.755C53.3931 35.9183 52.9646 36 52.4437 36H49.855ZM50.519 35.4034H52.4437C53.0048 35.4034 53.4191 35.2791 53.6866 35.0305C53.9565 34.782 54.0915 34.4695 54.0915 34.093C54.0915 33.8161 54.024 33.5651 53.8891 33.3402C53.7565 33.1129 53.5683 32.933 53.3244 32.8004C53.083 32.6679 52.7989 32.6016 52.4722 32.6016H50.519V35.4034ZM50.519 32.0121H52.3692C52.6556 32.0121 52.9066 31.9529 53.122 31.8345C53.3375 31.7161 53.5055 31.5528 53.6263 31.3445C53.747 31.1361 53.8074 30.8982 53.8074 30.6307C53.8074 30.2448 53.6819 29.9311 53.431 29.6896C53.18 29.4458 52.806 29.3239 52.3088 29.3239H50.519V32.0121ZM55.3478 28.7273H56.1148L58.2703 32.179H58.3343L60.4898 28.7273H61.2569L58.6326 32.8501V36H57.9721V32.8501L55.3478 28.7273ZM64.5498 36V28.7273H67.2131C67.7292 28.7273 68.1566 28.8125 68.4951 28.983C68.8336 29.151 69.087 29.3795 69.255 29.6683C69.4231 29.9548 69.5072 30.2779 69.5072 30.6378C69.5072 30.9408 69.4515 31.1965 69.3403 31.4048C69.229 31.6108 69.0799 31.7765 68.8928 31.902C68.7082 32.0251 68.5046 32.1151 68.282 32.1719V32.2429C68.5235 32.2547 68.7591 32.3329 68.9887 32.4773C69.2207 32.6193 69.4125 32.8217 69.564 33.0845C69.7155 33.3473 69.7913 33.6669 69.7913 34.0433C69.7913 34.415 69.7037 34.7488 69.5285 35.0447C69.3557 35.3383 69.0881 35.5715 68.7259 35.7443C68.3637 35.9148 67.9009 36 67.3374 36H64.5498ZM65.6471 35.0589H67.2309C67.7565 35.0589 68.1329 34.9571 68.3602 34.7536C68.5874 34.55 68.7011 34.2955 68.7011 33.9901C68.7011 33.7604 68.6431 33.5497 68.5271 33.358C68.4111 33.1662 68.2453 33.0135 68.0299 32.8999C67.8168 32.7862 67.5635 32.7294 67.27 32.7294H65.6471V35.0589ZM65.6471 31.8736H67.1173C67.3635 31.8736 67.5848 31.8262 67.7813 31.7315C67.9802 31.6368 68.1376 31.5043 68.2536 31.3338C68.372 31.161 68.4312 30.9574 68.4312 30.723C68.4312 30.4223 68.3258 30.1702 68.1151 29.9666C67.9044 29.763 67.5813 29.6612 67.1457 29.6612H65.6471V31.8736ZM71.4071 36H70.2423L72.8595 28.7273H74.1273L76.7445 36H75.5797L73.5236 30.0483H73.4668L71.4071 36ZM71.6024 33.152H75.3808V34.0753H71.6024V33.152ZM77.4947 36V28.7273H78.592V35.0554H81.8875V36H77.4947ZM83.8247 36H82.6599L85.2771 28.7273H86.5449L89.162 36H87.9973L85.9412 30.0483H85.8843L83.8247 36ZM84.02 33.152H87.7984V34.0753H84.02V33.152ZM95.7823 28.7273V36H94.7738L91.0771 30.6662H91.0096V36H89.9123V28.7273H90.9279L94.6282 34.0682H94.6957V28.7273H95.7823ZM103.123 31.0923H102.016C101.973 30.8556 101.894 30.6473 101.778 30.4673C101.662 30.2874 101.52 30.1347 101.351 30.0092C101.183 29.8838 100.995 29.7891 100.787 29.7251C100.581 29.6612 100.362 29.6293 100.13 29.6293C99.7108 29.6293 99.3356 29.7346 99.0042 29.9453C98.6751 30.156 98.4147 30.465 98.2229 30.8722C98.0335 31.2794 97.9388 31.7765 97.9388 32.3636C97.9388 32.9555 98.0335 33.455 98.2229 33.8622C98.4147 34.2694 98.6763 34.5772 99.0077 34.7855C99.3391 34.9938 99.712 35.098 100.126 35.098C100.356 35.098 100.574 35.0672 100.78 35.0057C100.988 34.9418 101.176 34.8482 101.344 34.7251C101.512 34.602 101.654 34.4517 101.77 34.2741C101.889 34.0942 101.971 33.8883 102.016 33.6562L103.123 33.6598C103.064 34.0173 102.949 34.3464 102.779 34.647C102.611 34.9453 102.394 35.2034 102.129 35.4212C101.866 35.6366 101.566 35.8035 101.227 35.9219C100.889 36.0402 100.519 36.0994 100.119 36.0994C99.4895 36.0994 98.9284 35.9503 98.436 35.652C97.9435 35.3513 97.5553 34.9216 97.2712 34.3629C96.9895 33.8042 96.8486 33.1378 96.8486 32.3636C96.8486 31.5871 96.9907 30.9207 97.2747 30.3643C97.5588 29.8056 97.9471 29.3771 98.4395 29.0788C98.9319 28.7782 99.4918 28.6278 100.119 28.6278C100.505 28.6278 100.865 28.6835 101.199 28.7947C101.535 28.9036 101.837 29.0646 102.104 29.2777C102.372 29.4884 102.593 29.7464 102.768 30.0518C102.944 30.3549 103.062 30.7017 103.123 31.0923ZM104.137 36V28.7273H108.696V29.6719H105.234V31.8878H108.458V32.8288H105.234V35.0554H108.739V36H104.137ZM109.862 36V28.7273H112.454C113.018 28.7273 113.485 28.8243 113.857 29.0185C114.231 29.2126 114.51 29.4813 114.695 29.8246C114.88 30.1655 114.972 30.5597 114.972 31.0071C114.972 31.4522 114.878 31.844 114.691 32.1825C114.507 32.5187 114.227 32.7803 113.853 32.9673C113.482 33.1544 113.014 33.2479 112.451 33.2479H110.487V32.3033H112.351C112.706 32.3033 112.995 32.2524 113.218 32.1506C113.443 32.0488 113.607 31.9008 113.711 31.7067C113.815 31.5125 113.868 31.2794 113.868 31.0071C113.868 30.7325 113.814 30.4946 113.708 30.2933C113.604 30.0921 113.439 29.9382 113.214 29.8317C112.992 29.7228 112.699 29.6683 112.337 29.6683H110.959V36H109.862ZM113.452 32.7188L115.249 36H113.999L112.238 32.7188H113.452Z" fill="white"/>
<path d="M124.977 37.0008C121.676 37.0008 119 36.0465 119 34.767C119 34.099 119.728 33.4982 120.894 33.0776C121.806 33.6607 123.333 33.9612 125.065 33.9612C126.797 33.9612 128.25 33.5971 129.169 33.0352C130.268 33.4558 130.953 34.0389 130.953 34.6822C130.953 35.9617 128.278 37.0008 124.977 37.0008V37.0008Z" fill="white"/>
<path d="M125.012 33.6766C122.51 33.6766 120.481 32.892 120.481 31.9235C120.481 31.3863 121.107 30.9056 122.089 30.584C122.789 30.948 123.839 31.1813 125.016 31.1813C126.193 31.1813 127.243 30.948 127.943 30.584C128.925 30.9056 129.551 31.3863 129.551 31.9235C129.551 32.892 127.522 33.6766 125.02 33.6766H125.012Z" fill="white"/>
<path d="M124.994 30.8912C123.061 30.8912 121.491 30.2444 121.491 29.4456C121.491 28.6468 123.061 28 124.994 28C126.927 28 128.497 28.6468 128.497 29.4456C128.497 30.2444 126.927 30.8912 124.994 30.8912V30.8912Z" fill="white"/>
</svg>
