<svg width="144" height="41" viewBox="0 0 144 41" fill="none" xmlns="http://www.w3.org/2000/svg">
<path d="M8.45896 21.6775C5.8551 21.6775 4.17345 20.2671 3.08851 18.694V21.3792H1V1.57227H3.08851V10.1704C4.2277 8.48874 5.88223 7.05121 8.45896 7.05121C11.8223 7.05121 15.1585 9.7093 15.1585 14.3474C15.1585 18.9855 11.8494 21.6775 8.45896 21.6775ZM8.07923 8.92273C5.47538 8.92273 3.00713 11.0926 3.00713 14.3474C3.00713 17.6022 5.47538 19.7992 8.07923 19.7992C10.6831 19.7992 13.0157 17.7921 13.0157 14.3746C13.0157 10.957 10.7373 8.92273 8.07923 8.92273Z" fill="#00F89C"/>
<path d="M23.8516 19.887C25.7774 19.887 27.1335 19.1004 28.2727 17.907L29.5747 19.0733C28.1642 20.6464 26.4555 21.7042 23.7974 21.7042C19.9458 21.7042 16.7927 18.7478 16.7927 14.3809C16.7927 10.3124 19.6407 7.05078 23.5261 7.05078C27.676 7.05078 30.0629 10.3598 30.0629 14.4894C30.0629 14.6793 30.0629 14.8962 30.0358 15.1404H18.9084C19.2067 18.1782 21.3766 19.887 23.8448 19.887H23.8516ZM27.9472 13.5943C27.7303 11.0447 26.2656 8.82059 23.4719 8.82059C21.0308 8.82059 19.1864 10.8549 18.9151 13.5943H27.954H27.9472Z" fill="#00F89C"/>
<path d="M38.5592 19.887C40.485 19.887 41.8412 19.1004 42.9804 17.907L44.2823 19.0733C42.8719 20.6464 41.1631 21.7042 38.505 21.7042C34.6535 21.7042 31.5004 18.7478 31.5004 14.3809C31.5004 10.3124 34.3483 7.05078 38.2338 7.05078C42.3837 7.05078 44.7705 10.3598 44.7705 14.4894C44.7705 14.6793 44.7705 14.8962 44.7434 15.1404H33.616C33.9144 18.1782 36.0842 19.887 38.5525 19.887H38.5592ZM42.6549 13.5943C42.4379 11.0447 40.9732 8.82059 38.1795 8.82059C35.7384 8.82059 33.894 10.8549 33.6228 13.5943H42.6617H42.6549Z" fill="#00F89C"/>
<path d="M49.9104 17.3929C49.9104 19.1017 50.8597 19.7255 52.2702 19.7255C52.9754 19.7255 53.5721 19.5899 54.3044 19.2373V21.0274C53.5721 21.4072 52.7855 21.6241 51.7819 21.6241C49.5307 21.6241 47.8219 20.5121 47.8219 17.6641V9.1948H45.869V7.3504H47.8219V3.11914H49.9104V7.3504H54.3587V9.1948H49.9104V17.3929Z" fill="#00F89C"/>
<path d="M58.7865 21.3792H56.698V1.57227H58.7865V9.79068C59.7087 8.27177 61.1734 7.05121 63.5874 7.05121C66.9778 7.05121 68.9578 9.32958 68.9578 12.6658V21.3792H66.8693V13.1811C66.8693 10.5773 65.4589 8.94985 62.9906 8.94985C60.5224 8.94985 58.7865 10.7129 58.7865 13.3439V21.3792Z" fill="#00F89C"/>
<path d="M78.4647 21.7042C74.2606 21.7042 71.1888 18.3952 71.1888 14.408C71.1888 10.4209 74.2809 7.05078 78.519 7.05078C82.757 7.05078 85.8152 10.3598 85.8152 14.347C85.8152 18.3342 82.696 21.7042 78.4579 21.7042H78.4647ZM78.4647 8.89518C75.4269 8.89518 73.3384 11.3092 73.3384 14.347C73.3384 17.3848 75.5625 19.8259 78.519 19.8259C81.4754 19.8259 83.6724 17.412 83.6724 14.4012C83.6724 11.3905 81.4212 8.89518 78.4647 8.89518Z" fill="#00F89C"/>
<path d="M97.8104 7.34961H100.062L93.952 21.4877H92.1076L86.032 7.34961H88.3375L93.057 18.9924L97.8036 7.34961H97.8104Z" fill="#00F89C"/>
<path d="M107.372 19.887C109.297 19.887 110.653 19.1004 111.793 17.907L113.095 19.0733C111.684 20.6464 109.975 21.7042 107.317 21.7042C103.466 21.7042 100.313 18.7478 100.313 14.3809C100.313 10.3124 103.161 7.05078 107.046 7.05078C111.196 7.05078 113.583 10.3598 113.583 14.4894C113.583 14.6793 113.583 14.8962 113.556 15.1404H102.428C102.727 18.1782 104.896 19.887 107.365 19.887H107.372ZM111.467 13.5943C111.25 11.0447 109.786 8.82059 106.992 8.82059C104.551 8.82059 102.706 10.8549 102.435 13.5943H111.474H111.467Z" fill="#00F89C"/>
<path d="M117.984 21.3788H115.895V7.34914H117.984V9.79025C118.906 8.27134 120.371 7.05078 122.785 7.05078C126.175 7.05078 128.155 9.32915 128.155 12.6653V21.3788H126.066V13.1807C126.066 10.5768 124.656 8.94942 122.188 8.94942C119.72 8.94942 117.984 10.7125 117.984 13.3434V21.3788Z" fill="#00F89C"/>
<path d="M142.503 9.54069L142.185 9.87295L141.886 10.2188L141.547 10.5307L141.398 10.646L141.134 10.8426L140.883 10.863L140.713 10.8087L140.442 10.6188L140.055 10.3205L139.628 9.86617L139.357 9.56103L138.95 9.08637L138.564 8.70664L138.333 8.55746L138.143 8.48287L137.953 8.52355L137.648 8.7202L137.479 8.8965L137.173 9.16774L136.38 10.0967L136.061 10.3883L135.892 10.5646L135.587 10.7951L135.302 10.8155L134.976 10.646L134.57 10.2527L134.081 9.74411L133.79 9.42541L133.329 9.05246L133.037 8.73376L132.942 8.56424L132.746 8.2591L132.725 7.9743L132.949 7.66238L133.247 7.31656L133.532 6.9843L134.346 6.26552L134.61 5.9536L134.726 5.83833L134.915 5.49251L134.895 5.20771L134.678 4.9636L133.397 3.71592L133.105 3.39722L132.929 3.22769L132.712 2.86831L132.651 2.58351L132.854 2.29193L133.003 2.09529L133.342 1.78337L133.661 1.53248L133.98 1.2409L134.414 0.718772L134.773 0.427195L135.099 0.210207L135.383 0.189864L135.675 0.39329L136.156 0.867951L136.76 1.5257L137.438 2.10885L137.709 2.29872L137.885 2.39365L138.116 2.35296L138.36 2.17666L138.645 1.92577L138.909 1.61385L139.642 0.7798L140.116 0.298358L140.401 0.0813704L140.632 0L140.801 0.0135617L141.011 0.183083L141.167 0.298358L141.439 0.603497L141.866 1.13241L142.178 1.43076L142.659 1.82405L143.107 2.25803L143.283 2.50214L143.344 2.71235L143.29 2.92256L143.1 3.19379L142.456 3.85153L142.137 4.14311L141.662 4.54996L141.418 4.84154L141.269 4.9975L141.12 5.26874L141.066 5.47894L141.127 5.64847L141.303 5.89258L141.771 6.3469L142.835 7.26909L143.127 7.58779L143.263 7.75732L143.48 8.04211L143.5 8.36759L143.331 8.73376L143.012 9.06602L142.524 9.5339L142.503 9.54069ZM134.651 1.71556L134.787 1.95967L134.8 1.79015L134.739 1.69522L134.644 1.71556H134.651ZM133.803 2.73947V2.69879L133.708 2.67844V2.71913L133.769 2.77338L133.81 2.73269L133.803 2.73947ZM134.298 2.54283V2.46824H134.224L134.183 2.50892L134.203 2.52926V2.56995L134.264 2.59029L134.305 2.54961L134.298 2.54283ZM134.583 2.32584V2.28515H134.509L134.488 2.3055V2.34618H134.563L134.583 2.32584ZM134.434 2.55639V2.67166L134.515 2.74625L135.01 2.54961L134.529 2.46146L134.434 2.55639ZM134.19 2.99714L134.224 2.88187L134.203 2.86153L134.142 2.84118L134.068 2.91577V3.03105L134.183 2.99036L134.19 2.99714ZM135.017 2.02748V2.10207L135.099 2.13597L135.173 2.06138L135.078 2.00714L135.024 2.02748H135.017ZM135.078 2.35296L134.983 2.25803L134.888 2.23769L134.909 2.40721L135.044 2.42755L135.078 2.35296ZM134.61 3.22091L134.8 3.25482L134.705 3.1192L134.549 3.00393L134.529 2.90899L134.393 2.81406L134.495 3.02427H134.536L134.617 3.21413L134.61 3.22091ZM134.38 3.18701L134.319 3.13276L134.203 3.17345L134.224 3.26838L134.278 3.28872L134.373 3.19379L134.38 3.18701ZM134.854 2.78016L134.875 2.91577H135.031L135.017 3.0853L135.132 2.92934L134.861 2.78016H134.854ZM135.254 2.52926L135.234 2.6242L135.58 2.69879V2.6581L135.309 2.50892L135.254 2.52926ZM135.397 3.1192L135.512 2.92934L135.397 2.73947H135.356L135.336 2.71913L135.241 2.69879L135.187 2.79372L135.404 3.1192H135.397ZM134.576 3.45824L134.753 3.58708L134.712 3.47181L134.651 3.41756L134.576 3.45824ZM135.695 2.6242L135.682 2.8344L135.783 3.04461L135.878 3.02427L135.953 2.8344L135.838 2.64454L135.702 2.6242H135.695ZM134.963 3.41756H134.922L134.902 3.47859L134.963 3.53283L135.037 3.49215L134.963 3.41756ZM134.895 3.95325L134.8 3.899L134.949 3.62777L134.644 3.70914L134.759 3.93969L134.895 3.96003V3.95325ZM135.946 2.52248L136.122 2.84797L136.163 3.03783L135.994 3.21413L135.458 3.2955L135.424 3.41078L135.505 3.55996L135.756 3.49893L135.736 3.404L135.831 3.34297L136.007 3.51249L136.217 3.49215L136.251 3.41756L136.211 3.34297L136.136 3.38365L136.075 3.32941L136.265 2.98358L136.245 2.88865L136.339 2.71235L135.953 2.52926L135.946 2.52248ZM135.363 3.27516H135.288L135.268 3.37009L135.329 3.42434L135.363 3.26838V3.27516ZM135.295 3.69557L135.39 3.67523L135.431 3.71592L135.756 3.69557V3.62098L135.221 3.58708L135.166 3.7227L135.207 3.76338H135.282L135.302 3.70236L135.295 3.69557ZM135.282 4.06174L135.241 3.98715L135.261 3.89222L135.166 3.83797H135.051L134.841 4.08887L134.882 4.12955H135.227L135.282 4.06852V4.06174ZM135.492 3.85153L135.471 3.98715L135.377 4.04818V4.12277H135.451L135.6 3.96681V3.81085L135.485 3.85153H135.492ZM137.587 7.24875L137.621 7.0182L137.757 6.92327L137.662 6.82834L137.526 6.88936L137.546 6.90971L137.472 6.8758L137.452 6.70628L137.506 6.68594L137.54 6.52998L137.465 6.49607L137.37 6.5571L137.329 6.51642L137.35 6.49607L137.275 6.42148L137.329 6.36046L137.309 6.30621L137.519 6.096L137.614 6.15025L137.655 6.10956V6.03498L137.594 6.01463L137.635 5.97395L137.614 5.83833L137.519 5.85867L137.424 5.9536L137.363 5.89936V5.82477L137.458 5.76374V5.64847L137.357 5.55353L137.431 5.43826L137.377 5.53319L137.574 5.72306L137.614 5.68237L137.594 5.58744L137.519 5.51285V5.32298L137.628 5.16702H137.743L137.858 5.08565L137.953 5.106V5.26196L137.94 5.2823H137.899V5.32298L137.919 5.34333L138.014 5.32298L138.075 5.41792L137.892 5.83833L137.946 5.81799L137.926 5.83833L137.906 5.89258L138.001 5.87223L138.021 5.85189V5.81121L138.001 5.79086H137.96L138.15 5.6349H138.225L138.435 5.76374L138.455 5.97395L138.591 5.99429L138.611 5.93326H138.686L138.726 5.96717L138.896 5.90614L138.875 5.81121L138.184 5.43826L138.143 5.20771L138.292 4.90257L138.252 4.78729L138.116 4.76695L138.001 4.84832L137.824 4.44825L137.635 4.56353L137.458 4.394H137.418L137.438 4.33976L137.574 4.27873L137.648 4.12277L137.628 4.10243V4.06174L137.587 4.02106L137.736 3.98037L137.641 3.92612L137.546 3.98715L137.431 3.83797L137.235 3.6142L137.248 3.32941L137.153 3.23448L137.228 3.1192L137.112 3.0853L137.018 3.14632H136.977L136.902 3.07173L136.862 2.92256L136.787 3.03783L136.848 3.28872L136.502 3.41078L136.563 3.46502L136.943 3.49893L137.018 3.57352L136.251 3.5464L136.217 3.66167L136.007 3.83797L136.109 4.19736L136.36 4.17702L136.475 4.25161L136.129 4.37366L136.15 4.46859L136.034 4.65846L135.709 4.83476L135.614 4.81442L135.458 4.66524L135.478 4.57031L135.573 4.54996L135.627 4.48894V4.41435L135.356 4.45503V4.26517L135.336 4.24483L135.2 4.26517L135.146 4.3262H135.071L135.037 4.40757L135.661 5.05175L135.716 4.99072L135.865 4.95004L135.831 5.06531L135.953 5.44504L136.068 5.36367L135.987 5.09921L136.021 5.02463L136 4.8551L136.211 4.60421L136.38 4.61777L136.455 4.5025L136.495 4.54318L136.685 4.38722L136.739 4.2177L136.699 4.10243L136.604 4.08208L136.584 4.06174L136.712 3.77016L136.882 3.70914L136.963 3.85832L136.909 3.95325H136.834L136.794 3.99393L137.404 4.06174L137.424 4.0414L137.465 4.11599L137.39 4.15667L137.336 4.25161L137.357 4.27195L137.282 4.34654V4.42113L137.248 4.46181H136.943L136.773 4.60421L136.868 4.69914L136.909 4.84832L137.004 4.90257L137.099 4.88223L137.173 4.80764V4.76695L137.268 4.78729L137.343 4.71271L137.302 4.52284L137.397 4.46181L137.418 4.40757L137.533 4.63812L137.519 4.84832L137.39 4.98394H137.011L136.936 5.106L137.051 5.25517L137.146 5.27552L136.997 5.3162L136.821 5.14668L136.706 5.18737L136.631 5.30264L136.516 5.34333L136.475 5.26874L136.604 4.97716L136.258 5.01784L136.238 4.9636H136.163L136.143 5.02463L136.217 5.05853L136.278 5.19415L136.258 5.28908L136.299 5.36367L136.353 5.38401L136.339 5.70949L136.658 5.34333L136.943 5.39757L136.902 5.43826V5.47894L136.767 5.4586L136.577 5.65525L136.658 5.84511L136.638 5.89936L136.523 5.98073L136.489 6.096L136.645 6.12991L136.773 5.99429H136.814L136.895 6.10956L136.875 6.24518L136.726 6.32655L136.821 6.3808L136.956 6.31977L137.018 6.45539L136.923 6.59101L136.902 6.57066L136.848 6.59101L136.733 6.5571L136.617 6.59779L136.523 6.50285L136.428 6.56388L136.468 6.63847L136.563 6.69272L136.489 7.03854L136.353 7.0182L136.299 7.15382L136.584 7.0182L136.597 6.84868L136.651 6.82834L136.631 6.7334L136.556 6.6995L136.631 6.62491L136.746 6.65882L136.841 6.59779L136.726 6.75375L136.746 7.00464L136.807 7.05889L136.862 6.99786L136.882 6.86224L136.923 6.82156L137.018 6.8758L137.072 6.81478L137.051 6.71984L137.106 6.6995L137.167 6.71984L137.187 6.88936L137.133 6.90971L137.038 7.08601L136.794 7.18772L136.719 7.303L136.929 7.24197L137.065 7.41149L137.296 7.37081L137.329 7.29622L137.424 7.27587V7.35046H137.499L137.574 7.26909L137.587 7.24875ZM136.326 3.23448L136.306 3.28872L136.367 3.34297H136.407L136.367 3.22769H136.326V3.23448ZM135.743 4.14311L135.763 4.19736L135.817 4.2177L135.892 4.14311V4.06852L135.831 4.04818L135.756 4.08887L135.736 4.14989L135.743 4.14311ZM136.875 4.25839L136.95 4.29229L137.024 4.25161L137.045 4.19736L136.95 4.14311L136.855 4.20414L136.875 4.25839ZM139.052 2.3733L138.998 2.46824L139.018 2.56317L139.228 2.42755L139.187 2.35296L139.052 2.3733ZM139.296 2.23769L139.276 2.29872L139.337 2.35296H139.377L139.418 2.31228L139.343 2.23769H139.303H139.296ZM140.096 4.94325L140.137 4.90257L140.272 4.88223L140.327 4.8212L139.96 4.80764L139.804 4.46859L139.737 4.92969L139.662 5.00428L139.581 4.58387L139.689 4.35332L139.669 4.2177L139.398 3.95325L139.038 4.05496V4.31941L138.964 4.43469L138.842 4.08887L138.55 3.96003L138.333 3.63455L138.387 3.57352L138.367 3.51927L138.421 3.42434L138.631 3.404L138.611 3.49893L138.686 3.57352L138.781 3.55318L138.74 3.28872L138.95 3.26838L138.93 3.13276L138.869 3.07852V3.00393L138.774 2.94968L138.72 3.04461L138.645 3.0853L138.401 3.22091L138.306 3.47181L138.116 3.58708L138.177 3.64133L138.218 3.79051L138.197 3.81085L138.102 3.7566L137.723 3.87866L137.804 3.99393L138.34 3.94647L138.536 4.09565L138.577 4.3262L138.713 4.42113L138.672 4.46181L138.828 4.65168L138.998 4.70592L139.113 4.66524L139.133 4.57031L139.153 4.54996L139.459 4.69914L139.499 4.84832L139.35 4.9636L139.276 4.88901V4.81442L139.194 4.78051L139.126 5.3162L139.282 5.46538L139.323 5.4247H139.364L139.608 5.20771L139.764 5.24161L140.008 5.1399L140.069 5.19415H140.11L140.144 5.07887L140.082 4.98394L140.103 4.9636V4.92291L140.096 4.94325ZM135.661 6.47573L135.912 6.64525H135.953L135.973 6.62491L136.204 6.93005L136.258 6.95039L136.312 6.93005L136.095 6.3808L136.129 6.26552L135.994 6.17059L135.865 6.30621L135.939 6.34011L136.014 6.29943L136.034 6.31977L135.885 6.40114L135.865 6.3808L135.824 6.42148V6.3808L135.804 6.40114L135.709 6.3808L135.648 6.32655L135.668 6.26552L135.614 6.24518L135.56 6.26552L135.485 6.53676L135.58 6.5571L135.655 6.48251L135.661 6.47573ZM139.974 1.8444V1.88508L140.015 1.92577L140.069 1.94611L140.089 1.92577V1.88508L140.069 1.86474L139.974 1.8444ZM139.072 2.77338V3.1531L139.133 3.20735L139.377 3.07173L139.357 2.9768L139.086 2.75303L139.065 2.77338H139.072ZM139.506 2.55639L139.262 2.6581L139.228 2.81406L139.323 2.71913L139.438 2.8344L139.594 2.86831L139.513 2.56317L139.506 2.55639ZM138.109 4.10243L138.014 4.04818L137.824 4.16345L137.845 4.2177L137.919 4.25161L138.089 4.15667L138.109 4.10243ZM140.313 1.68166L140.333 1.7359L140.428 1.71556L140.523 1.62063L140.598 1.65453L140.693 1.63419L140.483 1.50535L140.313 1.68166ZM136.278 5.98073L136.414 5.96039L136.353 5.86545L136.278 5.83155V5.98751V5.98073ZM140.089 2.21734L140.028 2.12241H139.913V2.1631L140.008 2.29872L140.082 2.22413L140.089 2.21734ZM135.112 7.29622L135.241 7.11991L135.146 7.09957L135.126 7.11991H135.085L134.99 7.18094L135.01 7.27587L135.105 7.29622H135.112ZM140.34 2.08173L140.381 2.04104L140.286 1.94611H140.171L140.211 2.06138L140.347 2.11563V2.07495L140.34 2.08173ZM139.804 2.31906L139.75 2.38009V2.45468L139.899 2.29872L139.804 2.31906ZM135.6 6.82834L135.614 6.65882L135.39 6.85546L135.431 6.93005H135.505L135.6 6.83512V6.82834ZM134 8.4354L133.98 8.34047H133.939L133.905 8.41506L133.966 8.46931L134.007 8.42862L134 8.4354ZM139.75 2.48858L139.621 2.66488L139.811 2.54961L139.75 2.49536V2.48858ZM136.19 6.42148L136.421 6.30621L136.495 6.15025L136.38 6.07566L136.231 6.19093L136.197 6.42148H136.19ZM139.404 3.51249L139.364 3.4379L139.269 3.41756L139.228 3.37687H139.187L139.167 3.28194L139.072 3.30228L139.052 3.39722L139.343 3.56674L139.398 3.50571L139.404 3.51249ZM138.347 4.29229L138.252 4.31263L138.197 4.37366L138.123 4.33976L138.048 4.38044L137.974 4.57031L138.048 4.60421L138.123 4.52962L138.414 4.69914L138.387 4.33298L138.442 4.31263V4.23804L138.38 4.2177L138.347 4.29229ZM134.597 8.15061L134.576 8.05567L134.427 8.09636L134.393 8.17095L134.414 8.2252H134.488L134.604 8.14383L134.597 8.15061ZM137.194 5.32298L137.275 5.47216L137.201 5.51285L137.031 5.49929L137.201 5.32298H137.194ZM140.177 2.3733V2.41399L139.988 2.49536L139.954 2.72591L140.388 2.31906L140.177 2.38009V2.3733ZM135.065 7.58779L135.2 7.71663H135.275L135.431 7.86581L136.15 7.24197L136.183 7.05211L135.716 7.57423H135.6L135.505 7.4793L135.56 7.38437L135.404 7.26909L135.065 7.58101V7.58779ZM135.804 6.86902L135.824 6.92327L135.919 6.90293L135.939 6.8419L135.865 6.76731L135.811 6.86224L135.804 6.86902ZM139.689 2.95646H139.73L139.804 2.87509V2.8344L139.743 2.81406L139.669 2.88865L139.689 2.9429V2.95646ZM139.615 3.14632L139.499 3.07173L139.445 3.13276V3.20735L139.506 3.22769L139.547 3.30228L139.472 3.53283L139.533 3.70236H139.574L139.594 3.68201L139.628 3.14632H139.615ZM139.167 3.76338L139.147 3.70914L139.092 3.68879L139.018 3.72948V3.77016L139.099 3.84475H139.14L139.174 3.77016L139.167 3.76338ZM134.264 8.6863L134.359 8.70664L134.488 8.57102L134.468 8.55068H134.427L134.387 8.59136L134.251 8.61171V8.6863H134.264ZM137.506 5.3162L137.431 5.43148L137.506 5.3162ZM140.672 2.10207L140.652 2.15632L140.693 2.197H140.767V2.12241L140.727 2.08173L140.706 2.10207H140.666H140.672ZM140.896 1.90542L141.066 1.91899L141.161 1.85796V1.81727L141.12 1.77659L140.889 1.89186L140.896 1.90542ZM135.77 7.25553L135.844 7.28944V7.24875L135.783 7.15382L135.743 7.1945L135.763 7.24875L135.77 7.25553ZM141.256 1.57994L141.235 1.67488H141.31L141.33 1.57994H141.256ZM134.353 8.67273V8.71342L134.332 8.69308L134.353 8.67273ZM134.258 8.95753L134.237 8.90328L134.197 8.8626L134.102 8.92363L134.163 8.97787H134.237L134.258 8.95753ZM140.666 2.33262H140.55L140.476 2.41399L140.672 2.94968L140.761 2.43433L140.666 2.3394V2.33262ZM135.18 8.04889L135.2 7.98787L135.18 7.96752H135.105V8.00821L135.085 8.02855L135.18 8.04889ZM137.743 5.52641L137.594 5.60778L137.709 5.79764L137.73 5.81799L137.804 5.7434L137.838 5.24839L137.689 5.36367L137.75 5.53319L137.743 5.52641ZM139.852 3.20057L139.757 3.2616L139.852 3.31585L139.947 3.25482L139.852 3.20057ZM140.327 2.9429H140.137L140.272 3.03783L140.462 2.7666L140.327 2.78694V2.9429ZM140.286 4.10921H140.211L140.015 3.96003L139.994 3.74982L139.879 3.60064L139.913 3.37009L139.662 3.43112L139.682 3.68201H139.798L139.859 3.77695L139.689 3.95325L139.71 4.16345L139.804 4.2177L139.859 4.15667L139.818 4.08208L139.872 4.02106H139.947L140.238 4.22448L140.333 4.16345L140.523 4.27873L140.706 3.89222L140.272 4.10921H140.286ZM135.085 8.36759L135.234 8.32691L135.268 8.25232L135.153 8.17773L135.099 8.19807L135.044 8.29301L135.085 8.36759ZM140.876 2.38009V2.45468H140.917L140.937 2.47502L140.957 2.45468V2.41399L140.883 2.38009H140.876ZM138.74 5.50607L138.896 5.58066L138.991 5.71627L139.147 5.75018L139.242 5.68915L139.282 5.83833H139.323L139.343 5.81799V5.7434L139.282 5.64847L139.303 5.62812L139.133 5.57388L139.092 5.49929H139.018L138.998 5.47894L138.977 5.49929L138.787 5.4247L138.706 5.30942V5.07887L138.55 4.92969L138.496 5.02463L138.455 4.98394H138.414L138.394 5.07887H138.319L138.286 5.30942L138.421 5.36367L138.516 5.30264L138.496 5.24839L138.55 5.18737L138.706 5.49251L138.55 5.4586L138.645 5.62812L138.72 5.58744L138.74 5.49251V5.50607ZM134.976 8.67273V8.63205L134.915 8.61171L134.861 8.67273V8.71342L134.976 8.67273ZM140.503 3.14632L140.408 3.09208L140.103 3.32263L140.293 3.4379L140.483 3.32263V3.28194L140.503 3.2616V3.14632ZM136.278 7.56067L136.163 7.41149L135.899 7.64204L135.973 7.67595L136.143 7.54033L136.278 7.56067ZM136.645 7.53355L136.604 7.303L136.353 7.28944L136.604 7.57423L136.645 7.53355ZM137.77 6.02819L137.791 5.89258H137.75L137.696 5.98751L137.77 6.02141V6.02819ZM140.808 2.8344L140.788 2.88865L140.808 2.9429L140.862 2.96324L140.978 2.88187L140.998 2.78694L140.903 2.7666L140.808 2.82762V2.8344ZM137.431 6.3808L137.587 6.4147L137.702 6.64525L137.757 6.6656L137.797 6.62491L137.858 6.71984L137.913 6.74019L137.994 6.97074L138.245 7.02498L137.736 6.42148L137.872 6.36046L137.892 6.3808L138.197 6.25874L138.143 6.42827L138.408 6.23162V6.19093L138.543 6.12991L137.946 6.00107L137.831 5.8858L137.852 6.05532L137.811 6.096L137.791 6.19093L137.431 6.36724V6.3808ZM135.526 8.29979L135.6 8.33369L135.77 8.23876V8.0828L135.655 8.23876H135.58L135.526 8.29979ZM138.903 4.90935L138.943 4.98394L138.984 5.02463L139.079 4.92969L139.038 4.8551L138.943 4.83476L138.909 4.90935H138.903ZM140.733 3.22091L140.639 3.16667H140.598L140.557 3.20735L140.544 3.49215L140.564 3.51249H140.605L140.733 3.22091ZM134.753 9.36438L134.773 9.31014L134.753 9.28979L134.658 9.26945V9.34404L134.753 9.36438ZM140.584 3.7566L140.618 3.64133L140.462 3.60742L140.177 3.70914L140.218 3.82441L140.408 3.899L140.577 3.76338L140.584 3.7566ZM138.069 5.9536L138.163 5.93326L138.218 5.87223L138.157 5.81799L138.062 5.87901V5.9536H138.069ZM136.339 7.85225V7.81156L136.319 7.79122L136.224 7.77088L136.17 7.83191L136.245 7.86581L136.339 7.84547V7.85225ZM141.127 2.92934L141.093 3.00393L141.167 3.07852L141.208 3.03783L141.228 2.90221L141.134 2.92256L141.127 2.92934ZM139.465 4.67202L139.445 4.69236V4.65168L139.465 4.67202ZM139.974 4.29907L139.994 4.27873L139.94 4.25839L139.845 4.35332L139.981 4.33298V4.29229L139.974 4.29907ZM136.143 8.19129L136.048 8.25232L136.122 8.32691L136.278 8.36081L136.428 8.24554L136.163 8.28622L136.143 8.19129ZM135.505 9.23555V9.12027L135.444 9.02534L135.329 8.99143L135.275 9.08637L135.336 9.14061H135.41L135.505 9.23555ZM136.977 7.60814L136.902 7.53355H136.828L136.773 7.59457L136.984 7.60814H136.977ZM136.577 7.85903L136.482 7.92006L136.448 7.99465L136.468 8.01499H136.509L136.563 7.95396L136.584 7.85903H136.577ZM139.316 5.39079L139.296 5.41113L139.276 5.39079H139.316ZM138.516 6.79443L138.645 6.61813L138.333 6.39436V6.55032L138.509 6.56388L138.53 6.58423L138.516 6.79443ZM135.343 9.85939L135.363 9.80514L135.322 9.73055L135.302 9.6763L135.261 9.71699V9.87295H135.343V9.85939ZM138.964 6.10278L138.903 6.08244L138.828 6.12313L138.808 6.18415L138.848 6.29943L139.228 6.33333V6.29265L138.957 6.10278H138.964ZM138.977 6.86902L139.106 6.61813L138.95 6.35368H138.794L138.72 6.46895L138.93 6.67916L138.97 6.86902H138.977ZM138.163 7.39793L138.123 7.28265L138.028 7.18772L137.933 7.24875L138.163 7.39793ZM138.286 7.89293L138.204 7.77766L138.353 7.6217L138.387 7.46574L138.008 7.54711V7.6217L138.089 7.69629L138.13 7.84547L138.286 7.87937V7.89293ZM138.509 7.27587L138.435 7.20128L138.34 7.26231L138.435 7.35724H138.509V7.28265V7.27587ZM139.391 6.25196L139.452 6.76731L139.587 6.74697L139.696 6.51642L139.54 6.28587L139.384 6.25196H139.391ZM140.001 7.37081L140.035 7.25553L139.994 7.18094L139.899 7.20128L139.825 7.16738L140.069 6.72662L140.028 6.61135L140.177 6.3808L139.716 6.11635L139.757 6.30621L139.852 6.40114L139.954 6.76053L139.289 7.13348L139.038 7.07923L139.099 7.40471L139.404 7.36403L139.384 7.22841L139.533 7.14704L139.71 7.39115L139.994 7.37081H140.001ZM138.943 7.13348L138.923 7.03854H138.848L138.814 7.15382L138.875 7.24875L138.95 7.13348H138.943ZM139.391 7.56745V7.49286L139.235 7.45896L139.086 7.54033L138.72 7.45218L138.665 7.5132L138.706 7.66238H138.781L138.93 7.54711L139.004 7.6217L139.384 7.58101L139.391 7.56745ZM138.787 8.03533L138.747 7.80478L138.631 7.73019H138.516L138.482 7.84547L138.462 7.82512L138.347 7.9404L138.252 7.96074L138.218 8.03533L138.279 8.08958H138.74L138.794 8.02855L138.787 8.03533ZM139.208 7.91328V7.72341H139.167L139.072 7.78444L139.052 7.87937L139.011 7.92006V7.96074L138.896 8.00143V8.1167L138.991 8.13704L139.045 8.04211H139.086L139.201 7.92684L139.208 7.91328ZM140.252 7.1945L140.232 7.05889L140.157 7.02498L140.137 7.07923L140.157 7.13348L140.252 7.18772V7.1945ZM139.404 8.06924L139.384 8.12348L139.425 8.19807L139.479 8.21842L139.574 8.12348L139.554 8.06924L139.479 8.03533L139.404 8.07602V8.06924ZM139.608 8.86938L139.642 8.79479L139.56 8.67951L139.764 8.35403H139.343L139.303 8.28622H139.228L139.194 8.36759L139.289 8.42184L139.309 8.51677L139.384 8.59136L139.309 8.70664L139.37 8.80157L139.601 8.87616L139.608 8.86938ZM140.144 7.39115L140.164 7.4454L140.238 7.4793L140.333 7.45896L140.388 7.39793L140.252 7.303L140.137 7.38437L140.144 7.39115ZM140.049 8.73376L140.069 8.67273L140.049 8.61849L139.974 8.58458L139.859 8.66595L139.879 8.7202L139.954 8.7541L140.049 8.73376ZM140.869 8.59136L140.754 8.44218L140.605 8.48287L140.13 8.93041V9.04568L140.191 9.09993L140.645 8.59814L140.761 8.63205L140.876 8.59136H140.869ZM141.228 8.2591L141.249 8.16417L141.134 8.04889L141.039 8.06924L141.018 8.16417L141.079 8.2591L141.154 8.29301L141.228 8.25232V8.2591ZM141.011 9.29657L140.896 9.06602V8.83547L140.727 9.08637L140.944 9.33048L141.018 9.28979L141.011 9.29657ZM140.496 9.58815V9.54747L140.455 9.50678L140.36 9.56781L140.381 9.62206L140.435 9.6424L140.489 9.58137L140.496 9.58815ZM141.445 8.88972L141.5 8.86938V8.82869L141.479 8.80835L141.425 8.78801L141.351 8.82869L141.445 8.88294V8.88972ZM140.7 10.0493L140.659 9.93398L140.523 9.87973L140.639 10.0696H140.679L140.7 10.0493ZM142.056 8.50321L142.022 8.5778L142.062 8.69308L142.117 8.67273L142.137 8.61849V8.5439L142.096 8.50321H142.056ZM141.174 9.75767L141.228 9.66274L141.208 9.60849H141.167L141.113 9.70343L141.134 9.75767H141.174Z" fill="#FF0000"/>
<path d="M0.45874 37.9997V29.2725H3.56954C4.24851 29.2725 4.81101 29.396 5.25704 29.6432C5.70306 29.8904 6.03687 30.2284 6.25846 30.6574C6.48005 31.0835 6.59084 31.5637 6.59084 32.0977C6.59084 32.6347 6.47863 33.1176 6.25419 33.5466C6.0326 33.9727 5.69738 34.3108 5.24851 34.5608C4.80249 34.808 4.24141 34.9316 3.56527 34.9316H1.42607V33.8151H3.44596C3.87493 33.8151 4.22294 33.7412 4.48999 33.5935C4.75704 33.4429 4.95306 33.2384 5.07806 32.9798C5.20306 32.7213 5.26556 32.4273 5.26556 32.0977C5.26556 31.7682 5.20306 31.4756 5.07806 31.2199C4.95306 30.9642 4.75561 30.7639 4.48573 30.6191C4.21868 30.4742 3.86641 30.4017 3.42891 30.4017H1.7755V37.9997H0.45874Z" fill="white"/>
<path d="M10.3473 38.1318C9.73368 38.1318 9.19817 37.9912 8.74079 37.71C8.2834 37.4287 7.92829 37.0352 7.67544 36.5296C7.4226 36.0239 7.29618 35.433 7.29618 34.7568C7.29618 34.0779 7.4226 33.4841 7.67544 32.9756C7.92829 32.4671 8.2834 32.0722 8.74079 31.7909C9.19817 31.5097 9.73368 31.3691 10.3473 31.3691C10.961 31.3691 11.4965 31.5097 11.9539 31.7909C12.4112 32.0722 12.7664 32.4671 13.0192 32.9756C13.272 33.4841 13.3985 34.0779 13.3985 34.7568C13.3985 35.433 13.272 36.0239 13.0192 36.5296C12.7664 37.0352 12.4112 37.4287 11.9539 37.71C11.4965 37.9912 10.961 38.1318 10.3473 38.1318ZM10.3516 37.0622C10.7493 37.0622 11.0789 36.9571 11.3402 36.7469C11.6016 36.5367 11.7948 36.2568 11.9198 35.9074C12.0476 35.558 12.1115 35.173 12.1115 34.7526C12.1115 34.335 12.0476 33.9514 11.9198 33.602C11.7948 33.2497 11.6016 32.9671 11.3402 32.754C11.0789 32.5409 10.7493 32.4344 10.3516 32.4344C9.95101 32.4344 9.61863 32.5409 9.35442 32.754C9.09306 32.9671 8.89846 33.2497 8.77061 33.602C8.64561 33.9514 8.58311 34.335 8.58311 34.7526C8.58311 35.173 8.64561 35.558 8.77061 35.9074C8.89846 36.2568 9.09306 36.5367 9.35442 36.7469C9.61863 36.9571 9.95101 37.0622 10.3516 37.0622Z" fill="white"/>
<path d="M15.6805 37.9997L13.7544 31.4543H15.0711L16.3538 36.2611H16.4177L17.7046 31.4543H19.0214L20.2998 36.2398H20.3637L21.6379 31.4543H22.9546L21.0328 37.9997H19.7331L18.4035 33.2739H18.3055L16.976 37.9997H15.6805Z" fill="white"/>
<path d="M26.4256 38.1318C25.7807 38.1318 25.2253 37.9941 24.7594 37.7185C24.2964 37.4401 23.9384 37.0494 23.6856 36.5466C23.4356 36.0409 23.3106 35.4486 23.3106 34.7696C23.3106 34.0992 23.4356 33.5083 23.6856 32.9969C23.9384 32.4855 24.2907 32.0864 24.7424 31.7994C25.1969 31.5125 25.7282 31.3691 26.3361 31.3691C26.7054 31.3691 27.0634 31.4301 27.41 31.5523C27.7566 31.6744 28.0677 31.8662 28.3432 32.1276C28.6188 32.3889 28.8361 32.7284 28.9952 33.146C29.1543 33.5608 29.2339 34.0651 29.2339 34.6588V35.1105H24.0307V34.156H27.9853C27.9853 33.8208 27.9171 33.5239 27.7807 33.2654C27.6444 33.004 27.4526 32.798 27.2054 32.6475C26.9611 32.4969 26.6742 32.4216 26.3446 32.4216C25.9867 32.4216 25.6742 32.5097 25.4072 32.6858C25.1429 32.8591 24.9384 33.0864 24.7935 33.3676C24.6515 33.646 24.5804 33.9486 24.5804 34.2753V35.021C24.5804 35.4585 24.6571 35.8307 24.8106 36.1375C24.9668 36.4443 25.1841 36.6787 25.4625 36.8406C25.741 36.9997 26.0662 37.0793 26.4384 37.0793C26.6799 37.0793 26.9 37.0452 27.0989 36.977C27.2978 36.906 27.4697 36.8009 27.6145 36.6617C27.7594 36.5225 27.8702 36.3506 27.9469 36.146L29.1529 36.3634C29.0563 36.7185 28.883 37.0296 28.633 37.2966C28.3858 37.5608 28.0748 37.7668 27.6998 37.9145C27.3276 38.0594 26.9029 38.1318 26.4256 38.1318Z" fill="white"/>
<path d="M30.2876 37.9997V31.4543H31.5191V32.4941H31.5873C31.7066 32.1418 31.9168 31.8648 32.218 31.6631C32.5219 31.4585 32.8657 31.3563 33.2492 31.3563C33.3288 31.3563 33.4225 31.3591 33.5305 31.3648C33.6413 31.3705 33.7279 31.3776 33.7904 31.3861V32.6048C33.7393 32.5906 33.6484 32.575 33.5177 32.558C33.387 32.5381 33.2563 32.5281 33.1256 32.5281C32.8245 32.5281 32.556 32.5921 32.3202 32.7199C32.0873 32.8449 31.9026 33.0196 31.7663 33.2441C31.6299 33.4656 31.5617 33.7185 31.5617 34.0026V37.9997H30.2876Z" fill="white"/>
<path d="M37.1197 38.1318C36.4748 38.1318 35.9194 37.9941 35.4535 37.7185C34.9904 37.4401 34.6325 37.0494 34.3796 36.5466C34.1296 36.0409 34.0046 35.4486 34.0046 34.7696C34.0046 34.0992 34.1296 33.5083 34.3796 32.9969C34.6325 32.4855 34.9847 32.0864 35.4364 31.7994C35.891 31.5125 36.4222 31.3691 37.0302 31.3691C37.3995 31.3691 37.7575 31.4301 38.1041 31.5523C38.4506 31.6744 38.7617 31.8662 39.0373 32.1276C39.3129 32.3889 39.5302 32.7284 39.6893 33.146C39.8484 33.5608 39.9279 34.0651 39.9279 34.6588V35.1105H34.7248V34.156H38.6793C38.6793 33.8208 38.6112 33.5239 38.4748 33.2654C38.3384 33.004 38.1467 32.798 37.8995 32.6475C37.6552 32.4969 37.3683 32.4216 37.0387 32.4216C36.6808 32.4216 36.3683 32.5097 36.1012 32.6858C35.837 32.8591 35.6325 33.0864 35.4876 33.3676C35.3455 33.646 35.2745 33.9486 35.2745 34.2753V35.021C35.2745 35.4585 35.3512 35.8307 35.5046 36.1375C35.6609 36.4443 35.8782 36.6787 36.1566 36.8406C36.435 36.9997 36.7603 37.0793 37.1325 37.0793C37.3739 37.0793 37.5941 37.0452 37.793 36.977C37.9918 36.906 38.1637 36.8009 38.3086 36.6617C38.4535 36.5225 38.5643 36.3506 38.641 36.146L39.847 36.3634C39.7504 36.7185 39.5771 37.0296 39.3271 37.2966C39.0799 37.5608 38.7688 37.7668 38.3938 37.9145C38.0217 38.0594 37.597 38.1318 37.1197 38.1318Z" fill="white"/>
<path d="M43.4319 38.1276C42.9035 38.1276 42.4319 37.9926 42.0171 37.7227C41.6052 37.45 41.2813 37.0622 41.0455 36.5594C40.8126 36.0537 40.6961 35.4472 40.6961 34.7398C40.6961 34.0324 40.814 33.4273 41.0498 32.9244C41.2884 32.4216 41.6151 32.0367 42.0299 31.7696C42.4447 31.5026 42.9149 31.3691 43.4404 31.3691C43.8467 31.3691 44.1734 31.4372 44.4205 31.5736C44.6705 31.7071 44.8637 31.8634 45.0001 32.0423C45.1393 32.2213 45.2473 32.379 45.324 32.5154H45.4007V29.2725H46.6748V37.9997H45.4305V36.9813H45.324C45.2473 37.1205 45.1365 37.2796 44.9916 37.4585C44.8495 37.6375 44.6535 37.7938 44.4035 37.9273C44.1535 38.0608 43.8296 38.1276 43.4319 38.1276ZM43.7132 37.0409C44.0796 37.0409 44.3893 36.9443 44.6421 36.7512C44.8978 36.5551 45.091 36.2838 45.2217 35.9372C45.3552 35.5906 45.422 35.1872 45.422 34.727C45.422 34.2725 45.3566 33.8747 45.2259 33.5338C45.0953 33.1929 44.9035 32.9273 44.6507 32.7369C44.3978 32.5466 44.0853 32.4514 43.7132 32.4514C43.3296 32.4514 43.01 32.5509 42.7544 32.7497C42.4987 32.9486 42.3055 33.2199 42.1748 33.5637C42.047 33.9074 41.983 34.2952 41.983 34.727C41.983 35.1645 42.0484 35.558 42.1791 35.9074C42.3098 36.2568 42.5029 36.5338 42.7586 36.7384C43.0171 36.9401 43.3353 37.0409 43.7132 37.0409Z" fill="white"/>
<path d="M51.0514 37.9997V29.2725H52.3255V32.5154H52.4022C52.4761 32.379 52.5826 32.2213 52.7219 32.0423C52.8611 31.8634 53.0542 31.7071 53.3014 31.5736C53.5486 31.4372 53.8753 31.3691 54.2815 31.3691C54.8099 31.3691 55.2815 31.5026 55.6963 31.7696C56.1111 32.0367 56.4363 32.4216 56.6721 32.9244C56.9108 33.4273 57.0301 34.0324 57.0301 34.7398C57.0301 35.4472 56.9122 36.0537 56.6764 36.5594C56.4406 37.0622 56.1167 37.45 55.7048 37.7227C55.2929 37.9926 54.8227 38.1276 54.2943 38.1276C53.8966 38.1276 53.5713 38.0608 53.3184 37.9273C53.0684 37.7938 52.8724 37.6375 52.7304 37.4585C52.5883 37.2796 52.479 37.1205 52.4022 36.9813H52.2957V37.9997H51.0514ZM52.3 34.727C52.3 35.1872 52.3667 35.5906 52.5003 35.9372C52.6338 36.2838 52.827 36.5551 53.0798 36.7512C53.3326 36.9443 53.6423 37.0409 54.0088 37.0409C54.3895 37.0409 54.7076 36.9401 54.9633 36.7384C55.219 36.5338 55.4122 36.2568 55.5429 35.9074C55.6764 35.558 55.7432 35.1645 55.7432 34.727C55.7432 34.2952 55.6778 33.9074 55.5471 33.5637C55.4193 33.2199 55.2261 32.9486 54.9676 32.7497C54.7119 32.5509 54.3923 32.4514 54.0088 32.4514C53.6395 32.4514 53.327 32.5466 53.0713 32.7369C52.8184 32.9273 52.6267 33.1929 52.496 33.5338C52.3653 33.8747 52.3 34.2725 52.3 34.727Z" fill="white"/>
<path d="M58.6836 40.4543C58.4932 40.4543 58.3199 40.4387 58.1637 40.4074C58.0074 40.379 57.891 40.3477 57.8143 40.3137L58.1211 39.2696C58.354 39.3321 58.5614 39.3591 58.7432 39.3506C58.9251 39.3421 59.0856 39.2739 59.2248 39.146C59.3668 39.0182 59.4918 38.8094 59.5998 38.5196L59.7574 38.085L57.3626 31.4543H58.7262L60.3839 36.5338H60.452L62.1097 31.4543H63.4776L60.7802 38.8733C60.6552 39.2142 60.4961 39.5026 60.3029 39.7384C60.1097 39.977 59.8796 40.156 59.6126 40.2753C59.3455 40.3946 59.0359 40.4543 58.6836 40.4543Z" fill="white"/>
<path d="M67.2331 37.9997V29.2725H70.4291C71.0485 29.2725 71.5612 29.3747 71.9675 29.5793C72.3737 29.781 72.6777 30.0551 72.8794 30.4017C73.0811 30.7455 73.182 31.1333 73.182 31.5651C73.182 31.9287 73.1152 32.2355 72.9817 32.4855C72.8482 32.7327 72.6692 32.9316 72.4448 33.0821C72.2232 33.2298 71.9789 33.3378 71.7118 33.406V33.4912C72.0016 33.5054 72.2843 33.5992 72.5598 33.7725C72.8382 33.9429 73.0683 34.1858 73.2502 34.5012C73.432 34.8165 73.5229 35.2 73.5229 35.6517C73.5229 36.0977 73.4178 36.4983 73.2075 36.8534C73.0002 37.2057 72.6791 37.4855 72.2445 37.6929C71.8098 37.8975 71.2544 37.9997 70.5783 37.9997H67.2331ZM68.5499 36.8705H70.4504C71.0811 36.8705 71.5328 36.7483 71.8056 36.504C72.0783 36.2597 72.2146 35.9543 72.2146 35.5878C72.2146 35.3122 72.145 35.0594 72.0058 34.8293C71.8666 34.5992 71.6678 34.4159 71.4092 34.2796C71.1536 34.1432 70.8496 34.075 70.4973 34.075H68.5499V36.8705ZM68.5499 33.048H70.3141C70.6095 33.048 70.8752 32.9912 71.111 32.8776C71.3496 32.7639 71.5385 32.6048 71.6777 32.4003C71.8198 32.1929 71.8908 31.9486 71.8908 31.6673C71.8908 31.3066 71.7644 31.004 71.5115 30.7597C71.2587 30.5154 70.8709 30.3932 70.3482 30.3932H68.5499V33.048Z" fill="white"/>
<path d="M76.5272 38.1446C76.1125 38.1446 75.7375 38.0679 75.4022 37.9145C75.067 37.7583 74.8014 37.5324 74.6054 37.2369C74.4122 36.9415 74.3156 36.5793 74.3156 36.1503C74.3156 35.781 74.3866 35.477 74.5287 35.2384C74.6707 34.9997 74.8625 34.8108 75.1039 34.6716C75.3454 34.5324 75.6153 34.4273 75.9136 34.3563C76.2119 34.2852 76.5159 34.2313 76.8255 34.1943C77.2176 34.1489 77.5358 34.1119 77.7801 34.0835C78.0244 34.0523 78.2019 34.0026 78.3127 33.9344C78.4235 33.8662 78.4789 33.7554 78.4789 33.602V33.5722C78.4789 33.2 78.3738 32.9117 78.1636 32.7071C77.9562 32.5026 77.6466 32.4003 77.2346 32.4003C76.8056 32.4003 76.4676 32.4955 76.2204 32.6858C75.9761 32.8733 75.8071 33.0821 75.7133 33.3122L74.5159 33.0395C74.6579 32.6418 74.8653 32.3208 75.138 32.0764C75.4136 31.8293 75.7304 31.6503 76.0883 31.5395C76.4463 31.4259 76.8227 31.3691 77.2176 31.3691C77.4789 31.3691 77.7559 31.4003 78.0485 31.4628C78.344 31.5225 78.6196 31.6333 78.8752 31.7952C79.1338 31.9571 79.3454 32.1887 79.5102 32.4898C79.675 32.7881 79.7573 33.1759 79.7573 33.6531V37.9997H78.513V37.1048H78.4619C78.3795 37.2696 78.2559 37.4316 78.0912 37.5906C77.9264 37.7497 77.7147 37.8818 77.4562 37.9869C77.1977 38.0921 76.888 38.1446 76.5272 38.1446ZM76.8042 37.1219C77.1565 37.1219 77.4576 37.0523 77.7076 36.9131C77.9605 36.7739 78.1522 36.5921 78.2829 36.3676C78.4164 36.1404 78.4832 35.8975 78.4832 35.6389V34.7952C78.4377 34.8406 78.3497 34.8833 78.219 34.923C78.0912 34.96 77.9448 34.9926 77.7801 35.021C77.6153 35.0466 77.4548 35.0708 77.2985 35.0935C77.1423 35.1134 77.0116 35.1304 76.9065 35.1446C76.6593 35.1759 76.4335 35.2284 76.2289 35.3023C76.0272 35.3762 75.8653 35.4827 75.7431 35.6219C75.6238 35.7583 75.5642 35.9401 75.5642 36.1673C75.5642 36.4827 75.6806 36.7213 75.9136 36.8833C76.1466 37.0423 76.4434 37.1219 76.8042 37.1219Z" fill="white"/>
<path d="M82.3686 29.2725V37.9997H81.0944V29.2725H82.3686Z" fill="white"/>
<path d="M85.6275 38.1446C85.2128 38.1446 84.8378 38.0679 84.5025 37.9145C84.1673 37.7583 83.9017 37.5324 83.7057 37.2369C83.5125 36.9415 83.4159 36.5793 83.4159 36.1503C83.4159 35.781 83.4869 35.477 83.629 35.2384C83.771 34.9997 83.9628 34.8108 84.2042 34.6716C84.4457 34.5324 84.7156 34.4273 85.0139 34.3563C85.3122 34.2852 85.6162 34.2313 85.9258 34.1943C86.3179 34.1489 86.6361 34.1119 86.8804 34.0835C87.1247 34.0523 87.3023 34.0026 87.4131 33.9344C87.5239 33.8662 87.5792 33.7554 87.5792 33.602V33.5722C87.5792 33.2 87.4741 32.9117 87.2639 32.7071C87.0565 32.5026 86.7469 32.4003 86.3349 32.4003C85.906 32.4003 85.5679 32.4955 85.3207 32.6858C85.0764 32.8733 84.9074 33.0821 84.8136 33.3122L83.6162 33.0395C83.7582 32.6418 83.9656 32.3208 84.2383 32.0764C84.5139 31.8293 84.8307 31.6503 85.1886 31.5395C85.5466 31.4259 85.923 31.3691 86.3179 31.3691C86.5792 31.3691 86.8562 31.4003 87.1488 31.4628C87.4443 31.5225 87.7199 31.6333 87.9756 31.7952C88.2341 31.9571 88.4457 32.1887 88.6105 32.4898C88.7753 32.7881 88.8577 33.1759 88.8577 33.6531V37.9997H87.6133V37.1048H87.5622C87.4798 37.2696 87.3562 37.4316 87.1915 37.5906C87.0267 37.7497 86.815 37.8818 86.5565 37.9869C86.298 38.0921 85.9883 38.1446 85.6275 38.1446ZM85.9045 37.1219C86.2568 37.1219 86.5579 37.0523 86.8079 36.9131C87.0608 36.7739 87.2525 36.5921 87.3832 36.3676C87.5167 36.1404 87.5835 35.8975 87.5835 35.6389V34.7952C87.5381 34.8406 87.45 34.8833 87.3193 34.923C87.1915 34.96 87.0452 34.9926 86.8804 35.021C86.7156 35.0466 86.5551 35.0708 86.3988 35.0935C86.2426 35.1134 86.1119 35.1304 86.0068 35.1446C85.7596 35.1759 85.5338 35.2284 85.3292 35.3023C85.1275 35.3762 84.9656 35.4827 84.8435 35.6219C84.7241 35.7583 84.6645 35.9401 84.6645 36.1673C84.6645 36.4827 84.781 36.7213 85.0139 36.8833C85.2469 37.0423 85.5437 37.1219 85.9045 37.1219Z" fill="white"/>
<path d="M91.4689 34.1134V37.9997H90.1947V31.4543H91.4178V32.5196H91.4987C91.6493 32.173 91.8851 31.8946 92.2061 31.6844C92.53 31.4742 92.9376 31.3691 93.4291 31.3691C93.8751 31.3691 94.2658 31.4628 94.601 31.6503C94.9362 31.835 95.1962 32.1105 95.3808 32.477C95.5655 32.8435 95.6578 33.2966 95.6578 33.8364V37.9997H94.3837V33.9898C94.3837 33.5154 94.2601 33.1446 94.0129 32.8776C93.7658 32.6077 93.4263 32.4727 92.9945 32.4727C92.699 32.4727 92.4362 32.5367 92.2061 32.6645C91.9788 32.7923 91.7984 32.9798 91.6649 33.227C91.5342 33.4713 91.4689 33.7668 91.4689 34.1134Z" fill="white"/>
<path d="M99.7637 38.1318C99.1302 38.1318 98.5847 37.9884 98.1274 37.7014C97.6728 37.4117 97.3234 37.0125 97.0791 36.504C96.8347 35.9955 96.7126 35.4131 96.7126 34.7568C96.7126 34.0921 96.8376 33.5054 97.0876 32.9969C97.3376 32.4855 97.6899 32.0864 98.1444 31.7994C98.5989 31.5125 99.1345 31.3691 99.7509 31.3691C100.248 31.3691 100.691 31.4614 101.08 31.646C101.47 31.8279 101.784 32.0835 102.022 32.4131C102.264 32.7426 102.407 33.1276 102.453 33.5679H101.213C101.144 33.2611 100.988 32.9969 100.744 32.7753C100.502 32.5537 100.178 32.4429 99.7722 32.4429C99.4171 32.4429 99.1061 32.5367 98.839 32.7242C98.5748 32.9088 98.3688 33.173 98.2211 33.5168C98.0734 33.8577 97.9995 34.2611 97.9995 34.727C97.9995 35.2043 98.072 35.6162 98.2169 35.9628C98.3617 36.3094 98.5663 36.5779 98.8305 36.7682C99.0975 36.9585 99.4115 37.0537 99.7722 37.0537C100.014 37.0537 100.232 37.0097 100.428 36.9216C100.627 36.8307 100.794 36.7014 100.927 36.5338C101.063 36.3662 101.159 36.1645 101.213 35.9287H102.453C102.407 36.352 102.269 36.7298 102.039 37.0622C101.809 37.3946 101.501 37.656 101.115 37.8463C100.731 38.0367 100.281 38.1318 99.7637 38.1318Z" fill="white"/>
<path d="M106.276 38.1318C105.631 38.1318 105.076 37.9941 104.61 37.7185C104.147 37.4401 103.789 37.0494 103.536 36.5466C103.286 36.0409 103.161 35.4486 103.161 34.7696C103.161 34.0992 103.286 33.5083 103.536 32.9969C103.789 32.4855 104.141 32.0864 104.593 31.7994C105.048 31.5125 105.579 31.3691 106.187 31.3691C106.556 31.3691 106.914 31.4301 107.261 31.5523C107.607 31.6744 107.918 31.8662 108.194 32.1276C108.469 32.3889 108.687 32.7284 108.846 33.146C109.005 33.5608 109.084 34.0651 109.084 34.6588V35.1105H103.881V34.156H107.836C107.836 33.8208 107.768 33.5239 107.631 33.2654C107.495 33.004 107.303 32.798 107.056 32.6475C106.812 32.4969 106.525 32.4216 106.195 32.4216C105.837 32.4216 105.525 32.5097 105.258 32.6858C104.994 32.8591 104.789 33.0864 104.644 33.3676C104.502 33.646 104.431 33.9486 104.431 34.2753V35.021C104.431 35.4585 104.508 35.8307 104.661 36.1375C104.817 36.4443 105.035 36.6787 105.313 36.8406C105.592 36.9997 105.917 37.0793 106.289 37.0793C106.53 37.0793 106.751 37.0452 106.95 36.977C107.148 36.906 107.32 36.8009 107.465 36.6617C107.61 36.5225 107.721 36.3506 107.798 36.146L109.004 36.3634C108.907 36.7185 108.734 37.0296 108.484 37.2966C108.236 37.5608 107.925 37.7668 107.55 37.9145C107.178 38.0594 106.754 38.1318 106.276 38.1318Z" fill="white"/>
<path d="M110.138 37.9997V31.4543H111.37V32.4941H111.438C111.557 32.1418 111.767 31.8648 112.069 31.6631C112.373 31.4585 112.716 31.3563 113.1 31.3563C113.179 31.3563 113.273 31.3591 113.381 31.3648C113.492 31.3705 113.579 31.3776 113.641 31.3861V32.6048C113.59 32.5906 113.499 32.575 113.368 32.558C113.238 32.5381 113.107 32.5281 112.976 32.5281C112.675 32.5281 112.407 32.5921 112.171 32.7199C111.938 32.8449 111.753 33.0196 111.617 33.2441C111.481 33.4656 111.412 33.7185 111.412 34.0026V37.9997H110.138Z" fill="white"/>
</svg>
