<svg width="143" height="22" viewBox="0 0 143 22" fill="none" xmlns="http://www.w3.org/2000/svg">
<path d="M7.45896 21.6785C4.8551 21.6785 3.17345 20.2681 2.08851 18.6949V21.3802H0V1.57324H2.08851V10.1714C3.2277 8.48973 4.88223 7.05219 7.45896 7.05219C10.8223 7.05219 14.1585 9.71029 14.1585 14.3484C14.1585 18.9865 10.8494 21.6785 7.45896 21.6785ZM7.07923 8.92371C4.47538 8.92371 2.00713 11.0936 2.00713 14.3484C2.00713 17.6032 4.47538 19.8002 7.07923 19.8002C9.68308 19.8002 12.0157 17.7931 12.0157 14.3755C12.0157 10.958 9.73733 8.92371 7.07923 8.92371Z" fill="#00F89C"/>
<path d="M22.8519 19.8884C24.7776 19.8884 26.1338 19.1019 27.273 17.9084L28.5749 19.0747C27.1645 20.6479 25.4557 21.7057 22.7976 21.7057C18.9461 21.7057 15.793 18.7492 15.793 14.3824C15.793 10.3138 18.6409 7.05225 22.5264 7.05225C26.6763 7.05225 29.0631 10.3613 29.0631 14.4909C29.0631 14.6807 29.0631 14.8977 29.036 15.1418H17.9086C18.207 18.1797 20.3768 19.8884 22.8451 19.8884H22.8519ZM26.9475 13.5958C26.7305 11.0462 25.2658 8.82205 22.4721 8.82205C20.031 8.82205 18.1866 10.8563 17.9154 13.5958H26.9543H26.9475Z" fill="#00F89C"/>
<path d="M37.5589 19.8884C39.4846 19.8884 40.8408 19.1019 41.98 17.9084L43.2819 19.0747C41.8715 20.6479 40.1627 21.7057 37.5046 21.7057C33.6531 21.7057 30.5 18.7492 30.5 14.3824C30.5 10.3138 33.348 7.05225 37.2334 7.05225C41.3833 7.05225 43.7701 10.3613 43.7701 14.4909C43.7701 14.6807 43.7702 14.8977 43.743 15.1418H32.6156C32.914 18.1797 35.0839 19.8884 37.5521 19.8884H37.5589ZM41.6545 13.5958C41.4375 11.0462 39.9729 8.82205 37.1791 8.82205C34.738 8.82205 32.8936 10.8563 32.6224 13.5958H41.6613H41.6545Z" fill="#00F89C"/>
<path d="M48.9106 17.3929C48.9106 19.1017 49.8599 19.7255 51.2703 19.7255C51.9755 19.7255 52.5722 19.5899 53.3045 19.2373V21.0274C52.5722 21.4072 51.7856 21.6241 50.7821 21.6241C48.5308 21.6241 46.822 20.5121 46.822 17.6641V9.1948H44.8691V7.3504H46.822V3.11914H48.9106V7.3504H53.3588V9.1948H48.9106V17.3929Z" fill="#00F89C"/>
<path d="M57.7868 21.3802H55.6982V1.57324H57.7868V9.79166C58.709 8.27274 60.1736 7.05219 62.5876 7.05219C65.978 7.05219 67.9581 9.33056 67.9581 12.6667V21.3802H65.8695V13.1821C65.8695 10.5782 64.4591 8.95083 61.9909 8.95083C59.5227 8.95083 57.7868 10.7139 57.7868 13.3448V21.3802Z" fill="#00F89C"/>
<path d="M77.4643 21.7057C73.2602 21.7057 70.1885 18.3966 70.1885 14.4095C70.1885 10.4223 73.2806 7.05225 77.5186 7.05225C81.7566 7.05225 84.8148 10.3613 84.8148 14.3485C84.8148 18.3356 81.6956 21.7057 77.4576 21.7057H77.4643ZM77.4643 8.89664C74.4265 8.89664 72.338 11.3106 72.338 14.3485C72.338 17.3863 74.5621 19.8274 77.5186 19.8274C80.4751 19.8274 82.672 17.4134 82.672 14.4027C82.672 11.392 80.4208 8.89664 77.4643 8.89664Z" fill="#00F89C"/>
<path d="M96.8106 7.35059H99.0619L92.9523 21.4887H91.1079L85.0322 7.35059H87.3377L92.0572 18.9933L96.8038 7.35059H96.8106Z" fill="#00F89C"/>
<path d="M106.371 19.8884C108.297 19.8884 109.653 19.1019 110.793 17.9084L112.094 19.0747C110.684 20.6479 108.975 21.7057 106.317 21.7057C102.466 21.7057 99.3125 18.7492 99.3125 14.3824C99.3125 10.3138 102.16 7.05225 106.046 7.05225C110.196 7.05225 112.583 10.3613 112.583 14.4909C112.583 14.6807 112.583 14.8977 112.556 15.1418H101.428C101.726 18.1797 103.896 19.8884 106.365 19.8884H106.371ZM110.467 13.5958C110.25 11.0462 108.785 8.82205 105.992 8.82205C103.551 8.82205 101.706 10.8563 101.435 13.5958H110.474H110.467Z" fill="#00F89C"/>
<path d="M116.984 21.3802H114.896V7.3506H116.984V9.79172C117.906 8.2728 119.371 7.05225 121.785 7.05225C125.175 7.05225 127.155 9.33062 127.155 12.6668V21.3802H125.067V13.1822C125.067 10.5783 123.656 8.95089 121.188 8.95089C118.72 8.95089 116.984 10.7139 116.984 13.3449V21.3802Z" fill="#00F89C"/>
<path d="M141.503 9.54069L141.184 9.87295L140.886 10.2188L140.547 10.5307L140.398 10.646L140.133 10.8426L139.882 10.863L139.713 10.8087L139.442 10.6188L139.055 10.3205L138.628 9.86617L138.357 9.56103L137.95 9.08637L137.563 8.70664L137.333 8.55746L137.143 8.48287L136.953 8.52355L136.648 8.7202L136.478 8.8965L136.173 9.16774L135.38 10.0967L135.061 10.3883L134.892 10.5646L134.587 10.7951L134.302 10.8155L133.976 10.646L133.569 10.2527L133.081 9.74411L132.79 9.42541L132.328 9.05246L132.037 8.73376L131.942 8.56424L131.745 8.2591L131.725 7.9743L131.949 7.66238L132.247 7.31656L132.532 6.9843L133.346 6.26552L133.61 5.9536L133.725 5.83833L133.915 5.49251L133.895 5.20771L133.678 4.9636L132.396 3.71592L132.105 3.39722L131.928 3.22769L131.711 2.86831L131.65 2.58351L131.854 2.29193L132.003 2.09529L132.342 1.78337L132.661 1.53248L132.979 1.2409L133.413 0.718772L133.773 0.427195L134.098 0.210207L134.383 0.189864L134.675 0.39329L135.156 0.867951L135.76 1.5257L136.438 2.10885L136.709 2.29872L136.885 2.39365L137.116 2.35296L137.36 2.17666L137.645 1.92577L137.909 1.61385L138.641 0.7798L139.116 0.298358L139.401 0.0813704L139.631 0L139.801 0.0135617L140.011 0.183083L140.167 0.298358L140.438 0.603497L140.866 1.13241L141.178 1.43076L141.659 1.82405L142.107 2.25803L142.283 2.50214L142.344 2.71235L142.29 2.92256L142.1 3.19379L141.456 3.85153L141.137 4.14311L140.662 4.54996L140.418 4.84154L140.269 4.9975L140.12 5.26874L140.065 5.47894L140.126 5.64847L140.303 5.89258L140.771 6.3469L141.835 7.26909L142.127 7.58779L142.262 7.75732L142.479 8.04211L142.5 8.36759L142.33 8.73376L142.012 9.06602L141.523 9.5339L141.503 9.54069ZM133.651 1.71556L133.786 1.95967L133.8 1.79015L133.739 1.69522L133.644 1.71556H133.651ZM132.803 2.73947V2.69879L132.708 2.67844V2.71913L132.769 2.77338L132.81 2.73269L132.803 2.73947ZM133.298 2.54283V2.46824H133.224L133.183 2.50892L133.203 2.52926V2.56995L133.264 2.59029L133.305 2.54961L133.298 2.54283ZM133.583 2.32584V2.28515H133.508L133.488 2.3055V2.34618H133.563L133.583 2.32584ZM133.434 2.55639V2.67166L133.515 2.74625L134.01 2.54961L133.529 2.46146L133.434 2.55639ZM133.19 2.99714L133.224 2.88187L133.203 2.86153L133.142 2.84118L133.068 2.91577V3.03105L133.183 2.99036L133.19 2.99714ZM134.017 2.02748V2.10207L134.098 2.13597L134.173 2.06138L134.078 2.00714L134.024 2.02748H134.017ZM134.078 2.35296L133.983 2.25803L133.888 2.23769L133.908 2.40721L134.044 2.42755L134.078 2.35296ZM133.61 3.22091L133.8 3.25482L133.705 3.1192L133.549 3.00393L133.529 2.90899L133.393 2.81406L133.495 3.02427H133.535L133.617 3.21413L133.61 3.22091ZM133.38 3.18701L133.318 3.13276L133.203 3.17345L133.224 3.26838L133.278 3.28872L133.373 3.19379L133.38 3.18701ZM133.854 2.78016L133.875 2.91577H134.03L134.017 3.0853L134.132 2.92934L133.861 2.78016H133.854ZM134.254 2.52926L134.234 2.6242L134.58 2.69879V2.6581L134.309 2.50892L134.254 2.52926ZM134.397 3.1192L134.512 2.92934L134.397 2.73947H134.356L134.336 2.71913L134.241 2.69879L134.186 2.79372L134.403 3.1192H134.397ZM133.576 3.45824L133.752 3.58708L133.712 3.47181L133.651 3.41756L133.576 3.45824ZM134.695 2.6242L134.681 2.8344L134.783 3.04461L134.878 3.02427L134.953 2.8344L134.837 2.64454L134.702 2.6242H134.695ZM133.963 3.41756H133.922L133.902 3.47859L133.963 3.53283L134.037 3.49215L133.963 3.41756ZM133.895 3.95325L133.8 3.899L133.949 3.62777L133.644 3.70914L133.759 3.93969L133.895 3.96003V3.95325ZM134.946 2.52248L135.122 2.84797L135.163 3.03783L134.993 3.21413L134.458 3.2955L134.424 3.41078L134.505 3.55996L134.756 3.49893L134.736 3.404L134.831 3.34297L135.007 3.51249L135.217 3.49215L135.251 3.41756L135.21 3.34297L135.136 3.38365L135.075 3.32941L135.265 2.98358L135.244 2.88865L135.339 2.71235L134.953 2.52926L134.946 2.52248ZM134.363 3.27516H134.288L134.268 3.37009L134.329 3.42434L134.363 3.26838V3.27516ZM134.295 3.69557L134.39 3.67523L134.431 3.71592L134.756 3.69557V3.62099L134.22 3.58708L134.166 3.7227L134.207 3.76338H134.281L134.302 3.70236L134.295 3.69557ZM134.281 4.06174L134.241 3.98715L134.261 3.89222L134.166 3.83797H134.051L133.841 4.08887L133.881 4.12955H134.227L134.281 4.06852V4.06174ZM134.492 3.85153L134.471 3.98715L134.376 4.04818V4.12277H134.451L134.6 3.96681V3.81085L134.485 3.85153H134.492ZM136.587 7.24875L136.621 7.0182L136.756 6.92327L136.661 6.82834L136.526 6.88936L136.546 6.90971L136.472 6.8758L136.451 6.70628L136.505 6.68594L136.539 6.52998L136.465 6.49607L136.37 6.5571L136.329 6.51642L136.35 6.49607L136.275 6.42148L136.329 6.36046L136.309 6.30621L136.519 6.096L136.614 6.15025L136.655 6.10956V6.03498L136.594 6.01463L136.634 5.97395L136.614 5.83833L136.519 5.85867L136.424 5.9536L136.363 5.89936V5.82477L136.458 5.76374V5.64847L136.356 5.55353L136.431 5.43826L136.377 5.53319L136.573 5.72305L136.614 5.68237L136.594 5.58744L136.519 5.51285V5.32298L136.628 5.16702H136.743L136.858 5.08565L136.953 5.106V5.26196L136.939 5.2823H136.899V5.32298L136.919 5.34333L137.014 5.32298L137.075 5.41792L136.892 5.83833L136.946 5.81799L136.926 5.83833L136.906 5.89258L137.001 5.87223L137.021 5.85189V5.81121L137.001 5.79086H136.96L137.15 5.6349H137.224L137.434 5.76374L137.455 5.97395L137.59 5.99429L137.611 5.93326H137.685L137.726 5.96717L137.896 5.90614L137.875 5.81121L137.184 5.43826L137.143 5.20771L137.292 4.90257L137.251 4.78729L137.116 4.76695L137.001 4.84832L136.824 4.44825L136.634 4.56353L136.458 4.394H136.417L136.438 4.33976L136.573 4.27873L136.648 4.12277L136.628 4.10243V4.06174L136.587 4.02106L136.736 3.98037L136.641 3.92612L136.546 3.98715L136.431 3.83797L136.234 3.6142L136.248 3.32941L136.153 3.23448L136.227 3.1192L136.112 3.0853L136.017 3.14632H135.977L135.902 3.07173L135.861 2.92256L135.787 3.03783L135.848 3.28872L135.502 3.41078L135.563 3.46502L135.943 3.49893L136.017 3.57352L135.251 3.5464L135.217 3.66167L135.007 3.83797L135.109 4.19736L135.36 4.17702L135.475 4.25161L135.129 4.37366L135.149 4.46859L135.034 4.65846L134.709 4.83476L134.614 4.81442L134.458 4.66524L134.478 4.57031L134.573 4.54996L134.627 4.48894V4.41435L134.356 4.45503V4.26517L134.336 4.24482L134.2 4.26517L134.146 4.3262H134.071L134.037 4.40757L134.661 5.05175L134.715 4.99072L134.865 4.95004L134.831 5.06531L134.953 5.44504L135.068 5.36367L134.987 5.09922L135.02 5.02463L135 4.8551L135.21 4.60421L135.38 4.61777L135.454 4.5025L135.495 4.54318L135.685 4.38722L135.739 4.2177L135.699 4.10243L135.604 4.08208L135.583 4.06174L135.712 3.77016L135.882 3.70914L135.963 3.85832L135.909 3.95325H135.834L135.794 3.99393L136.404 4.06174L136.424 4.0414L136.465 4.11599L136.39 4.15667L136.336 4.25161L136.356 4.27195L136.282 4.34654V4.42113L136.248 4.46181H135.943L135.773 4.60421L135.868 4.69914L135.909 4.84832L136.004 4.90257L136.099 4.88223L136.173 4.80764V4.76695L136.268 4.78729L136.343 4.71271L136.302 4.52284L136.397 4.46181L136.417 4.40757L136.533 4.63812L136.519 4.84832L136.39 4.98394H136.01L135.936 5.106L136.051 5.25517L136.146 5.27552L135.997 5.3162L135.821 5.14668L135.705 5.18737L135.631 5.30264L135.515 5.34333L135.475 5.26874L135.604 4.97716L135.258 5.01784L135.237 4.9636H135.163L135.143 5.02463L135.217 5.05853L135.278 5.19415L135.258 5.28908L135.299 5.36367L135.353 5.38401L135.339 5.70949L135.658 5.34333L135.943 5.39757L135.902 5.43826V5.47894L135.766 5.4586L135.577 5.65525L135.658 5.84511L135.638 5.89936L135.522 5.98073L135.488 6.096L135.644 6.12991L135.773 5.99429H135.814L135.895 6.10956L135.875 6.24518L135.726 6.32655L135.821 6.3808L135.956 6.31977L136.017 6.45539L135.922 6.59101L135.902 6.57066L135.848 6.59101L135.732 6.5571L135.617 6.59779L135.522 6.50285L135.427 6.56388L135.468 6.63847L135.563 6.69272L135.488 7.03854L135.353 7.0182L135.299 7.15382L135.583 7.0182L135.597 6.84868L135.651 6.82834L135.631 6.7334L135.556 6.6995L135.631 6.62491L135.746 6.65882L135.841 6.59779L135.726 6.75375L135.746 7.00464L135.807 7.05889L135.861 6.99786L135.882 6.86224L135.922 6.82156L136.017 6.8758L136.072 6.81477L136.051 6.71984L136.105 6.6995L136.166 6.71984L136.187 6.88936L136.133 6.90971L136.038 7.08601L135.794 7.18772L135.719 7.303L135.929 7.24197L136.065 7.41149L136.295 7.37081L136.329 7.29622L136.424 7.27587V7.35046H136.499L136.573 7.26909L136.587 7.24875ZM135.326 3.23448L135.305 3.28872L135.366 3.34297H135.407L135.366 3.22769H135.326V3.23448ZM134.742 4.14311L134.763 4.19736L134.817 4.2177L134.892 4.14311V4.06852L134.831 4.04818L134.756 4.08887L134.736 4.14989L134.742 4.14311ZM135.875 4.25839L135.949 4.29229L136.024 4.25161L136.044 4.19736L135.949 4.14311L135.855 4.20414L135.875 4.25839ZM138.052 2.3733L137.997 2.46824L138.018 2.56317L138.228 2.42755L138.187 2.35296L138.052 2.3733ZM138.296 2.23769L138.275 2.29872L138.336 2.35296H138.377L138.418 2.31228L138.343 2.23769H138.302H138.296ZM139.096 4.94325L139.136 4.90257L139.272 4.88223L139.326 4.8212L138.96 4.80764L138.804 4.46859L138.736 4.92969L138.662 5.00428L138.58 4.58387L138.689 4.35332L138.669 4.2177L138.397 3.95325L138.038 4.05496V4.31941L137.963 4.43469L137.841 4.08887L137.55 3.96003L137.333 3.63455L137.387 3.57352L137.367 3.51927L137.421 3.42434L137.631 3.404L137.611 3.49893L137.685 3.57352L137.78 3.55318L137.74 3.28872L137.95 3.26838L137.929 3.13276L137.868 3.07852V3.00393L137.774 2.94968L137.719 3.04461L137.645 3.0853L137.401 3.22091L137.306 3.47181L137.116 3.58708L137.177 3.64133L137.217 3.79051L137.197 3.81085L137.102 3.7566L136.722 3.87866L136.804 3.99393L137.34 3.94647L137.536 4.09565L137.577 4.3262L137.712 4.42113L137.672 4.46181L137.828 4.65168L137.997 4.70592L138.113 4.66524L138.133 4.57031L138.153 4.54996L138.458 4.69914L138.499 4.84832L138.35 4.9636L138.275 4.88901V4.81442L138.194 4.78051L138.126 5.3162L138.282 5.46538L138.323 5.4247H138.363L138.608 5.20771L138.764 5.24161L139.008 5.1399L139.069 5.19415H139.109L139.143 5.07887L139.082 4.98394L139.103 4.9636V4.92291L139.096 4.94325ZM134.661 6.47573L134.912 6.64525H134.953L134.973 6.62491L135.204 6.93005L135.258 6.95039L135.312 6.93005L135.095 6.3808L135.129 6.26552L134.993 6.17059L134.865 6.30621L134.939 6.34011L135.014 6.29943L135.034 6.31977L134.885 6.40114L134.865 6.3808L134.824 6.42148V6.3808L134.803 6.40114L134.709 6.3808L134.648 6.32655L134.668 6.26552L134.614 6.24518L134.559 6.26552L134.485 6.53676L134.58 6.5571L134.654 6.48251L134.661 6.47573ZM138.974 1.8444V1.88508L139.014 1.92577L139.069 1.94611L139.089 1.92577V1.88508L139.069 1.86474L138.974 1.8444ZM138.072 2.77338V3.1531L138.133 3.20735L138.377 3.07173L138.357 2.9768L138.085 2.75303L138.065 2.77338H138.072ZM138.506 2.55639L138.262 2.6581L138.228 2.81406L138.323 2.71913L138.438 2.8344L138.594 2.86831L138.513 2.56317L138.506 2.55639ZM137.109 4.10243L137.014 4.04818L136.824 4.16345L136.845 4.2177L136.919 4.25161L137.089 4.15667L137.109 4.10243ZM139.313 1.68166L139.333 1.7359L139.428 1.71556L139.523 1.62063L139.598 1.65453L139.693 1.63419L139.482 1.50535L139.313 1.68166ZM135.278 5.98073L135.414 5.96039L135.353 5.86545L135.278 5.83155V5.98751V5.98073ZM139.089 2.21734L139.028 2.12241H138.913V2.1631L139.008 2.29872L139.082 2.22413L139.089 2.21734ZM134.112 7.29622L134.241 7.11991L134.146 7.09957L134.125 7.11991H134.085L133.99 7.18094L134.01 7.27587L134.105 7.29622H134.112ZM139.34 2.08173L139.381 2.04104L139.286 1.94611H139.17L139.211 2.06138L139.347 2.11563V2.07495L139.34 2.08173ZM138.804 2.31906L138.75 2.38009V2.45467L138.899 2.29872L138.804 2.31906ZM134.6 6.82834L134.614 6.65882L134.39 6.85546L134.431 6.93005H134.505L134.6 6.83512V6.82834ZM133 8.4354L132.979 8.34047H132.939L132.905 8.41506L132.966 8.46931L133.007 8.42862L133 8.4354ZM138.75 2.48858L138.621 2.66488L138.811 2.54961L138.75 2.49536V2.48858ZM135.19 6.42148L135.421 6.30621L135.495 6.15025L135.38 6.07566L135.231 6.19093L135.197 6.42148H135.19ZM138.404 3.51249L138.363 3.4379L138.269 3.41756L138.228 3.37687H138.187L138.167 3.28194L138.072 3.30228L138.052 3.39722L138.343 3.56674L138.397 3.50571L138.404 3.51249ZM137.346 4.29229L137.251 4.31263L137.197 4.37366L137.123 4.33976L137.048 4.38044L136.973 4.57031L137.048 4.60421L137.123 4.52962L137.414 4.69914L137.387 4.33298L137.441 4.31263V4.23804L137.38 4.2177L137.346 4.29229ZM133.596 8.15061L133.576 8.05567L133.427 8.09636L133.393 8.17095L133.413 8.2252H133.488L133.603 8.14383L133.596 8.15061ZM136.194 5.32298L136.275 5.47216L136.2 5.51285L136.031 5.49929L136.2 5.32298H136.194ZM139.177 2.3733V2.41399L138.987 2.49536L138.953 2.72591L139.387 2.31906L139.177 2.38009V2.3733ZM134.064 7.58779L134.2 7.71663H134.275L134.431 7.86581L135.149 7.24197L135.183 7.05211L134.715 7.57423H134.6L134.505 7.4793L134.559 7.38437L134.403 7.26909L134.064 7.58101V7.58779ZM134.803 6.86902L134.824 6.92327L134.919 6.90293L134.939 6.8419L134.865 6.76731L134.81 6.86224L134.803 6.86902ZM138.689 2.95646H138.73L138.804 2.87509V2.8344L138.743 2.81406L138.669 2.88865L138.689 2.9429V2.95646ZM138.614 3.14632L138.499 3.07173L138.445 3.13276V3.20735L138.506 3.22769L138.547 3.30228L138.472 3.53283L138.533 3.70236H138.574L138.594 3.68201L138.628 3.14632H138.614ZM138.167 3.76338L138.146 3.70914L138.092 3.68879L138.018 3.72948V3.77016L138.099 3.84475H138.14L138.174 3.77016L138.167 3.76338ZM133.264 8.6863L133.359 8.70664L133.488 8.57102L133.468 8.55068H133.427L133.386 8.59136L133.251 8.61171V8.6863H133.264ZM136.505 5.3162L136.431 5.43148L136.505 5.3162ZM139.672 2.10207L139.652 2.15632L139.693 2.197H139.767V2.12241L139.726 2.08173L139.706 2.10207H139.665H139.672ZM139.896 1.90542L140.065 1.91899L140.16 1.85796V1.81727L140.12 1.77659L139.889 1.89186L139.896 1.90542ZM134.77 7.25553L134.844 7.28944V7.24875L134.783 7.15382L134.742 7.1945L134.763 7.24875L134.77 7.25553ZM140.255 1.57994L140.235 1.67488H140.31L140.33 1.57994H140.255ZM133.352 8.67273V8.71342L133.332 8.69308L133.352 8.67273ZM133.257 8.95753L133.237 8.90328L133.196 8.8626L133.102 8.92363L133.163 8.97787H133.237L133.257 8.95753ZM139.665 2.33262H139.55L139.476 2.41399L139.672 2.94968L139.76 2.43433L139.665 2.3394V2.33262ZM134.18 8.04889L134.2 7.98787L134.18 7.96752H134.105V8.00821L134.085 8.02855L134.18 8.04889ZM136.743 5.52641L136.594 5.60778L136.709 5.79764L136.729 5.81799L136.804 5.7434L136.838 5.24839L136.689 5.36367L136.75 5.53319L136.743 5.52641ZM138.852 3.20057L138.757 3.2616L138.852 3.31585L138.947 3.25482L138.852 3.20057ZM139.326 2.9429H139.136L139.272 3.03783L139.462 2.7666L139.326 2.78694V2.9429ZM139.286 4.10921H139.211L139.014 3.96003L138.994 3.74982L138.879 3.60064L138.913 3.37009L138.662 3.43112L138.682 3.68201H138.797L138.858 3.77695L138.689 3.95325L138.709 4.16345L138.804 4.2177L138.858 4.15667L138.818 4.08208L138.872 4.02106H138.947L139.238 4.22448L139.333 4.16345L139.523 4.27873L139.706 3.89222L139.272 4.10921H139.286ZM134.085 8.36759L134.234 8.32691L134.268 8.25232L134.153 8.17773L134.098 8.19807L134.044 8.293L134.085 8.36759ZM139.876 2.38009V2.45467H139.916L139.937 2.47502L139.957 2.45467V2.41399L139.882 2.38009H139.876ZM137.74 5.50607L137.896 5.58066L137.991 5.71627L138.146 5.75018L138.241 5.68915L138.282 5.83833H138.323L138.343 5.81799V5.7434L138.282 5.64847L138.302 5.62812L138.133 5.57388L138.092 5.49929H138.018L137.997 5.47894L137.977 5.49929L137.787 5.4247L137.706 5.30942V5.07887L137.55 4.92969L137.495 5.02463L137.455 4.98394H137.414L137.394 5.07887H137.319L137.285 5.30942L137.421 5.36367L137.516 5.30264L137.495 5.24839L137.55 5.18737L137.706 5.49251L137.55 5.4586L137.645 5.62812L137.719 5.58744L137.74 5.49251V5.50607ZM133.976 8.67273V8.63205L133.915 8.61171L133.861 8.67273V8.71342L133.976 8.67273ZM139.503 3.14632L139.408 3.09208L139.103 3.32263L139.292 3.4379L139.482 3.32263V3.28194L139.503 3.2616V3.14632ZM135.278 7.56067L135.163 7.41149L134.898 7.64204L134.973 7.67595L135.143 7.54033L135.278 7.56067ZM135.644 7.53355L135.604 7.303L135.353 7.28944L135.604 7.57423L135.644 7.53355ZM136.77 6.02819L136.79 5.89258H136.75L136.695 5.98751L136.77 6.02141V6.02819ZM139.808 2.8344L139.787 2.88865L139.808 2.9429L139.862 2.96324L139.977 2.88187L139.998 2.78694L139.903 2.7666L139.808 2.82762V2.8344ZM136.431 6.3808L136.587 6.4147L136.702 6.64525L136.756 6.6656L136.797 6.62491L136.858 6.71984L136.912 6.74019L136.994 6.97074L137.245 7.02498L136.736 6.42148L136.872 6.36046L136.892 6.3808L137.197 6.25874L137.143 6.42827L137.407 6.23162V6.19093L137.543 6.12991L136.946 6.00107L136.831 5.8858L136.851 6.05532L136.811 6.096L136.79 6.19093L136.431 6.36724V6.3808ZM134.525 8.29979L134.6 8.33369L134.77 8.23876V8.0828L134.654 8.23876H134.58L134.525 8.29979ZM137.902 4.90935L137.943 4.98394L137.984 5.02463L138.079 4.92969L138.038 4.8551L137.943 4.83476L137.909 4.90935H137.902ZM139.733 3.22091L139.638 3.16667H139.598L139.557 3.20735L139.543 3.49215L139.564 3.51249H139.604L139.733 3.22091ZM133.752 9.36438L133.773 9.31014L133.752 9.28979L133.658 9.26945V9.34404L133.752 9.36438ZM139.584 3.7566L139.618 3.64133L139.462 3.60742L139.177 3.70914L139.218 3.82441L139.408 3.899L139.577 3.76338L139.584 3.7566ZM137.068 5.9536L137.163 5.93326L137.217 5.87223L137.156 5.81799L137.062 5.87901V5.9536H137.068ZM135.339 7.85225V7.81156L135.319 7.79122L135.224 7.77088L135.17 7.83191L135.244 7.86581L135.339 7.84547V7.85225ZM140.126 2.92934L140.093 3.00393L140.167 3.07852L140.208 3.03783L140.228 2.90221L140.133 2.92256L140.126 2.92934ZM138.465 4.67202L138.445 4.69236V4.65168L138.465 4.67202ZM138.974 4.29907L138.994 4.27873L138.94 4.25839L138.845 4.35332L138.981 4.33298V4.29229L138.974 4.29907ZM135.143 8.19129L135.048 8.25232L135.122 8.32691L135.278 8.36081L135.427 8.24554L135.163 8.28622L135.143 8.19129ZM134.505 9.23555V9.12027L134.444 9.02534L134.329 8.99143L134.275 9.08637L134.336 9.14061H134.41L134.505 9.23555ZM135.977 7.60814L135.902 7.53355H135.827L135.773 7.59457L135.983 7.60814H135.977ZM135.577 7.85903L135.482 7.92006L135.448 7.99465L135.468 8.01499H135.509L135.563 7.95396L135.583 7.85903H135.577ZM138.316 5.39079L138.296 5.41113L138.275 5.39079H138.316ZM137.516 6.79443L137.645 6.61813L137.333 6.39436V6.55032L137.509 6.56388L137.529 6.58423L137.516 6.79443ZM134.342 9.85939L134.363 9.80514L134.322 9.73055L134.302 9.6763L134.261 9.71699V9.87295H134.342V9.85939ZM137.963 6.10278L137.902 6.08244L137.828 6.12313L137.807 6.18415L137.848 6.29943L138.228 6.33333V6.29265L137.957 6.10278H137.963ZM137.977 6.86902L138.106 6.61813L137.95 6.35368H137.794L137.719 6.46895L137.929 6.67916L137.97 6.86902H137.977ZM137.163 7.39793L137.123 7.28265L137.028 7.18772L136.933 7.24875L137.163 7.39793ZM137.285 7.89293L137.204 7.77766L137.353 7.6217L137.387 7.46574L137.007 7.54711V7.6217L137.089 7.69629L137.129 7.84547L137.285 7.87937V7.89293ZM137.509 7.27587L137.434 7.20128L137.34 7.26231L137.434 7.35724H137.509V7.28265V7.27587ZM138.391 6.25196L138.452 6.76731L138.587 6.74697L138.696 6.51642L138.54 6.28587L138.384 6.25196H138.391ZM139.001 7.37081L139.035 7.25553L138.994 7.18094L138.899 7.20128L138.825 7.16738L139.069 6.72662L139.028 6.61135L139.177 6.3808L138.716 6.11635L138.757 6.30621L138.852 6.40114L138.953 6.76053L138.289 7.13348L138.038 7.07923L138.099 7.40471L138.404 7.36403L138.384 7.22841L138.533 7.14704L138.709 7.39115L138.994 7.37081H139.001ZM137.943 7.13348L137.923 7.03854H137.848L137.814 7.15382L137.875 7.24875L137.95 7.13348H137.943ZM138.391 7.56745V7.49286L138.235 7.45896L138.085 7.54033L137.719 7.45218L137.665 7.5132L137.706 7.66238H137.78L137.929 7.54711L138.004 7.6217L138.384 7.58101L138.391 7.56745ZM137.787 8.03533L137.746 7.80478L137.631 7.73019H137.516L137.482 7.84547L137.462 7.82512L137.346 7.9404L137.251 7.96074L137.217 8.03533L137.279 8.08958H137.74L137.794 8.02855L137.787 8.03533ZM138.208 7.91328V7.72341H138.167L138.072 7.78444L138.052 7.87937L138.011 7.92006V7.96074L137.896 8.00143V8.1167L137.991 8.13704L138.045 8.04211H138.085L138.201 7.92684L138.208 7.91328ZM139.252 7.1945L139.231 7.05889L139.157 7.02498L139.136 7.07923L139.157 7.13348L139.252 7.18772V7.1945ZM138.404 8.06924L138.384 8.12348L138.424 8.19807L138.479 8.21842L138.574 8.12348L138.553 8.06924L138.479 8.03533L138.404 8.07602V8.06924ZM138.608 8.86938L138.641 8.79479L138.56 8.67951L138.764 8.35403H138.343L138.302 8.28622H138.228L138.194 8.36759L138.289 8.42184L138.309 8.51677L138.384 8.59136L138.309 8.70664L138.37 8.80157L138.601 8.87616L138.608 8.86938ZM139.143 7.39115L139.164 7.4454L139.238 7.4793L139.333 7.45896L139.387 7.39793L139.252 7.303L139.136 7.38437L139.143 7.39115ZM139.048 8.73376L139.069 8.67273L139.048 8.61849L138.974 8.58458L138.858 8.66595L138.879 8.7202L138.953 8.7541L139.048 8.73376ZM139.869 8.59136L139.754 8.44218L139.604 8.48287L139.13 8.93041V9.04568L139.191 9.09993L139.645 8.59814L139.76 8.63205L139.876 8.59136H139.869ZM140.228 8.2591L140.249 8.16417L140.133 8.04889L140.038 8.06924L140.018 8.16417L140.079 8.2591L140.154 8.293L140.228 8.25232V8.2591ZM140.011 9.29657L139.896 9.06602V8.83547L139.726 9.08637L139.943 9.33048L140.018 9.28979L140.011 9.29657ZM139.496 9.58815V9.54747L139.455 9.50678L139.36 9.56781L139.381 9.62206L139.435 9.6424L139.489 9.58137L139.496 9.58815ZM140.445 8.88972L140.499 8.86938V8.82869L140.479 8.80835L140.425 8.78801L140.35 8.82869L140.445 8.88294V8.88972ZM139.699 10.0493L139.659 9.93398L139.523 9.87973L139.638 10.0696H139.679L139.699 10.0493ZM141.055 8.50321L141.022 8.5778L141.062 8.69308L141.116 8.67273L141.137 8.61849V8.5439L141.096 8.50321H141.055ZM140.174 9.75767L140.228 9.66274L140.208 9.60849H140.167L140.113 9.70343L140.133 9.75767H140.174Z" fill="#FF0000"/>
</svg>
