<svg width="18" height="15" viewBox="0 0 18 15" fill="none" xmlns="http://www.w3.org/2000/svg">
<path d="M17.8246 1.82232C17.1932 2.10134 16.5126 2.29008 15.7992 2.38035C16.529 1.94542 17.0866 1.24788 17.349 0.427248C16.6684 0.829358 15.9058 1.12479 15.1023 1.28891C14.4545 0.599581 13.5361 0.172852 12.5193 0.172852C10.5677 0.172852 8.98515 1.75667 8.98515 3.70978C8.98515 3.9888 9.01795 4.2514 9.07535 4.514C6.13979 4.36629 3.54043 2.963 1.79386 0.821152C1.49047 1.34636 1.31827 1.95363 1.31827 2.60193C1.31827 3.82467 1.94146 4.9079 2.89264 5.53979C2.31045 5.52338 1.76926 5.35925 1.29367 5.09665V5.13768C1.29367 6.85281 2.50725 8.28071 4.13082 8.60075C3.83563 8.68282 3.52403 8.72385 3.19604 8.72385C2.96644 8.72385 2.74505 8.69923 2.53185 8.6582C2.98284 10.0615 4.28662 11.0873 5.8282 11.1119C4.61462 12.0638 3.09764 12.6301 1.44127 12.6301C1.15427 12.6301 0.875475 12.6136 0.59668 12.5808C2.16286 13.5902 4.01603 14.1729 6.0168 14.1729C12.5111 14.1729 16.0698 8.78129 16.0698 4.11189C16.0698 3.95597 16.0698 3.80826 16.0616 3.65234C16.7504 3.15996 17.349 2.53627 17.8246 1.82232Z" fill="#0090FF"/>
</svg>
