<svg width="133" height="19" viewBox="0 0 133 19" fill="none" xmlns="http://www.w3.org/2000/svg">
<path d="M1.76651 4.18819H0.559282V5.94104H0V0.968933H1.86199C2.98737 0.968933 3.72397 1.56913 3.72397 2.55128C3.72397 3.62891 2.8305 4.18819 1.76651 4.18819V4.18819ZM1.81424 1.48729H0.559282V3.67665H1.78697C2.61224 3.67665 3.15106 3.23332 3.15106 2.57856C3.15106 1.86241 2.61906 1.49411 1.81424 1.49411V1.48729Z" fill="white"/>
<path d="M8.47739 6.023C6.96324 6.023 5.94699 4.83623 5.94699 3.4585C5.94699 2.08077 6.97688 0.880371 8.49102 0.880371C10.0052 0.880371 11.0214 2.06713 11.0214 3.44486C11.0214 4.82259 9.99153 6.023 8.47739 6.023ZM8.47739 1.39872C7.33837 1.39872 6.53355 2.30585 6.53355 3.44486C6.53355 4.58388 7.35883 5.50464 8.49785 5.50464C9.63686 5.50464 10.4417 4.59752 10.4417 3.4585C10.4417 2.31949 9.6164 1.39872 8.47739 1.39872V1.39872Z" fill="white"/>
<path d="M16.3893 0.94873H16.8531L18.2172 5.10239L19.6358 0.962372H20.2224L18.4422 5.97541H17.9648L16.6007 1.9377L15.2298 5.97541H14.7592L12.979 0.962372H13.5929L15.0115 5.10239L16.3756 0.94873H16.3893Z" fill="white"/>
<path d="M26.2651 1.48047H23.23V3.17876H25.9445V3.69029H23.23V5.42951H26.2992V5.94104H22.6707V0.968933H26.2651V1.48047Z" fill="white"/>
<path d="M32.2817 5.94104L30.8357 4.01086H29.4171V5.94104H28.8578V0.968933H30.9994C32.0975 0.968933 32.8 1.55549 32.8 2.45579C32.8 3.28789 32.2339 3.77214 31.4496 3.91537L32.9774 5.94787H32.2885L32.2817 5.94104ZM30.9517 1.48729H29.4171V3.50614H30.9449C31.6883 3.50614 32.2203 3.1242 32.2203 2.47625C32.2203 1.82831 31.7497 1.48729 30.9449 1.48729H30.9517Z" fill="white"/>
<path d="M39.0135 1.48047H35.9784V3.17876H38.6929V3.69029H35.9784V5.42951H39.0476V5.94104H35.4123V0.968933H39.0067V1.48047H39.0135Z" fill="white"/>
<path d="M43.3228 5.94104H41.5972V0.968933H43.3228C44.8847 0.968933 45.9691 2.03974 45.9691 3.45158C45.9691 4.86341 44.8915 5.94787 43.3228 5.94787V5.94104ZM43.3228 1.48729H42.1565V5.42269H43.3228C44.5846 5.42269 45.3826 4.57013 45.3826 3.4584C45.3826 2.34666 44.5778 1.48047 43.3228 1.48047V1.48729Z" fill="white"/>
<path d="M55.8724 2.21026C55.8724 2.86502 55.4768 3.19922 55.0812 3.36973C55.6678 3.54706 56.1452 3.88809 56.1452 4.57695C56.1452 5.43633 55.4291 5.94104 54.3378 5.94104H52.128V0.968933H54.2423C55.2245 0.968933 55.8656 1.45319 55.8656 2.21026H55.8724ZM55.3063 2.28528C55.3063 1.78739 54.9175 1.46683 54.2082 1.46683H52.6941V3.17876H54.1673C54.8425 3.17876 55.3131 2.87184 55.3131 2.28528H55.3063ZM55.586 4.53603C55.586 3.9904 55.129 3.67665 54.2628 3.67665H52.6941V5.42951H54.3651C55.1154 5.42951 55.586 5.09531 55.586 4.53603Z" fill="white"/>
<path d="M60.5994 5.94115H60.0333V3.97004L57.9667 0.962219H58.6487L60.3265 3.45169L62.018 0.962219H62.6728L60.6062 3.96322V5.94115H60.5994Z" fill="white"/>
<path d="M83.8369 5.94126H83.2299L82.6502 4.62491H79.9425L79.3559 5.94126H78.783L81.0474 0.928223H81.5725L83.8369 5.94126V5.94126ZM81.2997 1.58299L80.1607 4.1202H82.4251L81.2929 1.58299H81.2997Z" fill="white"/>
<path d="M89.9 0.968933H90.4456V5.94104H89.9954L86.783 1.86241V5.94104H86.2374V0.968933H86.7625L89.8931 4.9589V0.968933H89.9Z" fill="white"/>
<path d="M95.0091 5.94104H93.2835V0.968933H95.0091C96.571 0.968933 97.6554 2.03974 97.6554 3.45158C97.6554 4.86341 96.5778 5.94787 95.0091 5.94787V5.94104ZM95.0091 1.48729H93.8428V5.42269H95.0091C96.264 5.42269 97.0688 4.57013 97.0688 3.4584C97.0688 2.34666 96.264 1.48047 95.0091 1.48047V1.48729Z" fill="white"/>
<path d="M3.24631 17.7882H0.0884399V11.1587H3.17129C4.52856 11.1587 5.36065 11.8339 5.36065 12.8706V12.8911C5.36065 13.6413 4.96506 14.0574 4.48763 14.3234C5.25834 14.6167 5.72896 15.06 5.72896 15.9535V15.9739C5.72896 17.188 4.74681 17.795 3.24631 17.795V17.7882ZM3.9079 13.1162C3.9079 12.6797 3.56687 12.4341 2.95303 12.4341H1.51391V13.8391H2.85754C3.50549 13.8391 3.9079 13.6277 3.9079 13.1366V13.1162V13.1162ZM4.2762 15.7693C4.2762 15.326 3.942 15.0464 3.19857 15.0464H1.51391V16.5059H3.24631C3.88744 16.5059 4.2762 16.2809 4.2762 15.783V15.7625V15.7693Z" fill="white"/>
<path d="M14.7116 17.7882L14.1046 16.3013H11.3014L10.6944 17.7882H9.2075L12.0516 11.111H13.3953L16.2394 17.7882H14.7116V17.7882ZM12.7064 12.8638L11.8266 15.0123H13.5862L12.7064 12.8638V12.8638Z" fill="white"/>
<path d="M20.1073 17.7882V11.1587H21.5669V16.465H24.8748V17.7882H20.1073Z" fill="white"/>
<path d="M33.7535 17.7882L33.1465 16.3013H30.3433L29.7362 17.7882H28.2494L31.0935 11.111H32.4372L35.2813 17.7882H33.7535V17.7882ZM31.7483 12.8638L30.8684 15.0123H32.6281L31.7483 12.8638V12.8638Z" fill="white"/>
<path d="M43.8005 17.7882L40.588 13.5731V17.7882H39.1489V11.1587H40.4926L43.6027 15.2441V11.1587H45.0418V17.7882H43.8005V17.7882Z" fill="white"/>
<path d="M52.5929 17.9042C50.6423 17.9042 49.1895 16.3969 49.1895 14.494V14.4735C49.1895 12.5911 50.6082 11.0428 52.6475 11.0428C53.8956 11.0428 54.6459 11.4589 55.2597 12.0659L54.3321 13.1367C53.8206 12.6729 53.3022 12.3865 52.6338 12.3865C51.5153 12.3865 50.7105 13.3141 50.7105 14.4531V14.4735C50.7105 15.6126 51.4948 16.5606 52.6338 16.5606C53.3909 16.5606 53.8547 16.2605 54.3799 15.7831L55.3075 16.7243C54.6254 17.4541 53.8683 17.911 52.5861 17.911L52.5929 17.9042Z" fill="white"/>
<path d="M59.3234 17.7882V11.1587H64.3296V12.4546H60.7761V13.7982H63.9067V15.0941H60.7761V16.4855H64.3773V17.7814H59.3234V17.7882Z" fill="white"/>
<path d="M72.5428 17.7882L71.1242 15.667H69.9783V17.7882H68.5188V11.1587H71.5539C73.1158 11.1587 74.057 11.984 74.057 13.3481V13.3685C74.057 14.4393 73.4772 15.1146 72.6383 15.4215L74.2616 17.7882H72.5565H72.5428ZM72.5701 13.4231C72.5701 12.7956 72.1336 12.475 71.4243 12.475H69.9783V14.3779H71.4584C72.1677 14.3779 72.5769 13.996 72.5769 13.4367V13.4163L72.5701 13.4231Z" fill="white"/>
<path d="M87.3014 17.8359H86.0123L83.3318 11.1587H84.9415L86.6739 15.8307L88.4063 11.1587H89.9818L87.3014 17.8359V17.8359Z" fill="white"/>
<path d="M94.6273 13.2595L93.6042 12.4342C94.259 11.5407 94.8933 11.0633 96.0801 11.0633C97.4919 11.0633 98.3649 11.8749 98.3649 13.1162C98.3649 14.228 97.7988 14.7873 96.6189 15.6944L95.5412 16.5265H98.4331V17.7883H93.5224V16.6288L95.7322 14.8214C96.5575 14.1393 96.8781 13.7778 96.8781 13.2322C96.8781 12.6866 96.5097 12.3728 95.9846 12.3728C95.4594 12.3728 95.1252 12.6593 94.6273 13.2663V13.2595Z" fill="white"/>
<path d="M71.0624 1.24186C71.1034 1.12591 71.1511 1.01678 71.2125 0.914477C71.3694 0.628018 71.574 0.389302 71.8604 0.21879C72.0582 0.102843 72.2696 0.0278167 72.4947 0.0073553C73.1222 -0.0540288 73.7292 0.273355 74.0293 0.818991C74.1384 1.0236 74.2066 1.24186 74.2203 1.47375C74.2476 1.82842 74.1726 2.16262 74.043 2.49C73.8997 2.84467 73.7088 3.17205 73.4837 3.47897C73.1154 3.99732 72.6925 4.46111 72.2356 4.90444C71.8672 5.25911 71.4853 5.59331 71.0897 5.91387C71.0692 5.92751 71.0556 5.92751 71.0351 5.91387C70.3122 5.33413 69.637 4.70665 69.0368 3.99732C68.7367 3.63584 68.457 3.25389 68.2388 2.83784C68.0955 2.57185 67.9864 2.29221 67.9318 1.99211C67.8568 1.57606 67.8909 1.18047 68.1023 0.812169C68.341 0.389301 68.7094 0.123304 69.1868 0.0346377C69.7461 -0.0676691 70.2235 0.102842 70.6191 0.518889C70.8101 0.716683 70.9397 0.955399 71.042 1.21458L71.0556 1.2555L71.0624 1.24186Z" fill="white"/>
<path d="M120.777 18.8592C114.406 18.8592 109.243 17.0176 109.243 14.5486C109.243 13.2596 110.648 12.1001 112.899 11.2884C114.659 12.4138 117.605 12.9936 120.947 12.9936C124.289 12.9936 127.092 12.2911 128.866 11.2066C130.987 12.0182 132.31 13.1436 132.31 14.3849C132.31 16.8539 127.147 18.8592 120.777 18.8592V18.8592Z" fill="white"/>
<path d="M120.846 12.4409C116.017 12.4409 112.102 10.9267 112.102 9.05791C112.102 8.0212 113.309 7.09362 115.205 6.47296C116.556 7.17547 118.581 7.62562 120.852 7.62562C123.124 7.62562 125.149 7.17547 126.5 6.47296C128.396 7.09362 129.603 8.0212 129.603 9.05791C129.603 10.9267 125.688 12.4409 120.859 12.4409H120.846Z" fill="white"/>
<path d="M120.81 7.06668C117.079 7.06668 114.051 5.81854 114.051 4.27711C114.051 2.73569 117.079 1.48755 120.81 1.48755C124.541 1.48755 127.569 2.73569 127.569 4.27711C127.569 5.81854 124.541 7.06668 120.81 7.06668V7.06668Z" fill="white"/>
</svg>
