<?xml version="1.0" encoding="UTF-8"?><svg xmlns="http://www.w3.org/2000/svg" xmlns:xlink="http://www.w3.org/1999/xlink" viewBox="0 0 72 72"><defs><style>.cls-1{fill:#f15a24;}.cls-2,.cls-3{fill:#fff;}.cls-4{fill:red;}.cls-5,.cls-6,.cls-7{fill:#cfc;}.cls-8{fill:#96bd96;stroke-width:.95px;}.cls-8,.cls-9,.cls-6,.cls-10,.cls-11,.cls-12,.cls-7{stroke-miterlimit:10;}.cls-8,.cls-6,.cls-11,.cls-7{stroke:#000;}.cls-9{stroke:#39b54a;stroke-dasharray:0 .48;}.cls-9,.cls-10,.cls-11,.cls-12{fill:none;stroke-width:1.19px;}.cls-6{stroke-width:1px;}.cls-13{fill:#00e59d;mix-blend-mode:hard-light;}.cls-3{filter:url(#drop-shadow-9);}.cls-10,.cls-12{stroke:red;}.cls-12{stroke-dasharray:0 0 .49 .49;}.cls-7{stroke-width:1.17px;}.cls-14{isolation:isolate;}</style><filter id="drop-shadow-9" filterUnits="userSpaceOnUse"><feOffset dx="-1" dy="2"/><feGaussianBlur result="blur" stdDeviation="2"/><feFlood flood-color="#000" flood-opacity=".5"/><feComposite in2="blur" operator="in"/><feComposite in="SourceGraphic"/></filter></defs><g class="cls-14"><g id="Layer_1"><g><path class="cls-5" d="M36.15,48.51l6.38-.35c3.81-.21,6.37-4,5.13-7.62l-4.5-13.14c-.98-2.86-3.67-4.78-6.69-4.78h-9.44c-2.47,0-4.66,1.57-5.45,3.91l-5.73,16.91c-.99,2.93,1.19,5.96,4.28,5.96l5.98-.33"/><path class="cls-5" d="M40.51,48.26l.94,14.41c.11,1.14-.29,2.28-1.1,3.1-.75,.75-1.77,1.37-2.84,1.81s-2.18,.68-3.12,.68c-2.86,0-5.4-1.84-6.28-4.56l-4.54-14.49"/><path class="cls-11" d="M36.15,48.51l6.38-.35c3.81-.21,6.37-4,5.13-7.62l-4.5-13.14c-.98-2.86-3.67-4.78-6.69-4.78h-9.44c-2.47,0-4.66,1.57-5.45,3.91l-5.73,16.91c-.99,2.93,1.19,5.96,4.28,5.96l5.98-.33"/><path class="cls-11" d="M40.51,48.26l.94,14.41c.11,1.14-.29,2.28-1.1,3.1-.75,.75-1.77,1.37-2.84,1.81s-2.18,.68-3.12,.68c-2.86,0-5.4-1.84-6.28-4.56l-4.54-14.49"/><path d="M39.46,43.12l1.52-.49c1.81-.59,1.99-2.78,1.8-4.61-.09-.81-.37-1.6-.82-2.28l-2.66-4.05c-1.01-1.56-2.98-2.39-5.02-2.13h0c-1.71,.23-2.96,1.64-2.79,3.16l.7,6.41c.35,3.15,3.88,5.09,7.28,3.99Z"/><g><rect x="30.5" y="44.84" width="2.39" height="5.73" rx="1.19" ry="1.19" transform="translate(-24.64 37.37) rotate(-46)"/><rect x="28.92" y="45.3" width="2.39" height="5.73" rx="1.19" ry="1.19" transform="translate(12.55 -5.85) rotate(14)"/></g><path d="M23.36,43.68l2.32,.28c1.98,.24,3.76-1.22,3.92-3.2l.74-9.04c.08-.93-.59-1.76-1.52-1.89l-1.52-.21c-2.21-.3-4.35,.89-5.26,2.92l-2.2,4.91c-1.22,2.73,.55,5.87,3.52,6.22Z"/><path class="cls-2" d="M36.74,34.74h0c2.23,0,4.04,1.81,4.04,4.04v.54c0,1.55-1.26,2.82-2.82,2.82h-1.85c-1.22,0-2.21-.99-2.21-2.21v-2.37c0-1.56,1.27-2.83,2.83-2.83Z" transform="translate(-6.11 7.07) rotate(-10)"/><circle cx="38" cy="37.6" r="2.09"/><circle class="cls-2" cx="36.51" cy="38.02" r=".36"/><circle class="cls-2" cx="38" cy="37.6" r=".95"/><path d="M31.39,56.3h1.91v2.03c0,.2-.16,.36-.36,.36h-.84c-.4,0-.72-.32-.72-.72v-1.67h0Z" transform="translate(-5.83 3.7) rotate(-6)"/><path d="M34.65,55.91h.84c.2,0,.36,.16,.36,.36v2.03h-1.91v-1.67c0-.4,.32-.72,.72-.72Z" transform="translate(78.29 108.05) rotate(171)"/><path d="M37.85,55.37h.69c.16,0,.3,.13,.3,.3v1.68h-1.59v-1.39c0-.33,.27-.59,.59-.59Z" transform="translate(84.43 106.07) rotate(171)"/><circle cx="35.09" cy="65.63" r="1.19"/><path class="cls-8" d="M12.36,16.69c-2.57,1.65-5.41,11.3-5.41,11.3l3.86-2.32-3.95,7.57,4.81-1.83L1,40.31s3.39,.37,6.05-1.19S1.83,47.48,1.83,47.48l5.26-.39-3.63,6.14s8.91-2.75,10.43-5.03c4.77-7.16,5.73-24.82,10.79-26.3,3.95-1.15,13.56-.52,13.56-.52,0,0-16.21-10.88-25.88-4.69Z"/><path class="cls-8" d="M26.21,22.14c-5-.61-9.36-8.55-5.59-12.71,3.77-4.16,6.66-5.43,6.66-5.43-1.29,1.26-2.76,5.37-1.5,6.52l.43,.39s4.22-4.59,4.96-6.82c.54-1.62-.49,4.47-.49,4.47l6.3-4.82-1.97,3.62,5.39-2.72-.81,3.28,5.78-2.09-1.4,4.36,7.15-1.92-4.43,2.91s2.46-1.51,6.37,.71,6.82,8.63,7.84,11.95c1.66,5.41,10.1,16.27,10.1,16.27l-6.91-1.93,1.95,8.26-5.01-4.66,1.24,8.83-5.26-6.43-1.97,8.43-3.11-5.01-1.83,7.29-4.32-17.88-1.87-8.97c-1.31-4.37-2.67-4.54-8.02-5.17,0,0-6.91-.4-9.71-.74Z"/><path class="cls-13" d="M12.36,16.69c-2.57,1.65-5.41,11.3-5.41,11.3l3.86-2.32-3.95,7.57,4.81-1.83L1,40.31s3.39,.37,6.05-1.19S1.83,47.48,1.83,47.48l5.26-.39-3.63,6.14s8.91-2.75,10.43-5.03c4.77-7.16,5.73-24.82,10.79-26.3,3.95-1.15,13.56-.52,13.56-.52,0,0-16.21-10.88-25.88-4.69Z"/><path class="cls-13" d="M26.21,22.14c-5-.61-9.36-8.55-5.59-12.71,3.77-4.16,6.66-5.43,6.66-5.43-1.29,1.26-2.76,5.37-1.5,6.52l.43,.39s4.22-4.59,4.96-6.82c.54-1.62-.49,4.47-.49,4.47l6.3-4.82-1.97,3.62,5.39-2.72-.81,3.28,5.78-2.09-1.4,4.36,7.15-1.92-4.43,2.91s2.46-1.51,6.37,.71,6.82,8.63,7.84,11.95c1.66,5.41,10.1,16.27,10.1,16.27l-6.91-1.93,1.95,8.26-5.01-4.66,1.24,8.83-5.26-6.43-1.97,8.43-3.11-5.01-1.83,7.29-4.32-17.88-1.87-8.97c-1.31-4.37-2.67-4.54-8.02-5.17,0,0-6.91-.4-9.71-.74Z"/><path class="cls-4" d="M28.88,40.42l-.18,.18-.17,.19-.19,.17-.08,.06-.15,.11h-.14s-.09-.02-.09-.02l-.15-.11-.21-.17-.23-.25-.15-.17-.22-.26-.21-.21-.13-.08-.11-.04-.11,.02-.17,.11-.09,.09-.17,.15-.44,.51-.18,.16-.09,.09-.17,.13h-.16s-.18-.08-.18-.08l-.22-.22-.26-.28-.16-.18-.25-.21-.16-.18-.05-.09-.11-.17v-.16s.12-.17,.12-.17l.17-.19,.16-.18,.45-.39,.15-.17,.06-.06,.11-.19v-.16s-.13-.14-.13-.14l-.7-.7-.16-.18-.09-.09-.12-.2-.03-.16,.12-.16,.08-.11,.19-.17,.18-.14,.18-.16,.24-.28,.2-.16,.18-.12h.16s.16,.11,.16,.11l.26,.26,.33,.37,.37,.33,.15,.11,.09,.05,.13-.02,.14-.09,.16-.14,.15-.17,.41-.45,.26-.26,.16-.12,.13-.04h.09s.12,.11,.12,.11l.08,.06,.15,.17,.23,.3,.17,.17,.26,.22,.24,.24,.09,.14,.03,.12-.03,.12-.11,.15-.36,.36-.18,.16-.26,.22-.14,.16-.08,.08-.08,.15-.03,.12,.03,.09,.09,.14,.25,.25,.58,.52,.16,.18,.07,.09,.12,.16v.18s-.08,.2-.08,.2l-.18,.18-.27,.25Zm-4.27-4.37l.07,.14v-.09s-.02-.05-.02-.05h-.05Zm-.47,.57v-.02s-.05-.01-.05-.01v.02s.03,.03,.03,.03l.02-.02Zm.27-.11v-.04h-.04l-.02,.02h.01v.03h.03s.02-.01,.02-.01Zm.16-.12v-.02h-.05v.03h.05Zm-.08,.12v.06s.04,.04,.04,.04l.27-.11-.26-.05-.05,.05Zm-.14,.24l.02-.06h-.01s-.03-.02-.03-.02l-.04,.04v.06s.06-.02,.06-.02Zm.46-.53v.04l.04,.02,.04-.04-.05-.03h-.03Zm.03,.19l-.05-.05h-.05s.01,.08,.01,.08h.07s.02-.03,.02-.03Zm-.26,.47l.11,.02-.05-.07-.08-.06v-.05s-.08-.05-.08-.05l.05,.12h.02s.04,.11,.04,.11Zm-.13-.02l-.03-.03-.06,.02v.05s.04,.01,.04,.01l.05-.05Zm.26-.22v.07h.09v.09s.05-.08,.05-.08l-.15-.08Zm.22-.14v.05s.18,.04,.18,.04v-.02l-.15-.08h-.03Zm.07,.34l.06-.11-.06-.11h-.03s-.05-.02-.05-.02l-.03,.05,.12,.18Zm-.45,.18l.09,.07-.02-.06-.03-.03-.04,.02Zm.62-.45v.12s.04,.12,.04,.12h.05s.04-.12,.04-.12l-.06-.11h-.07Zm-.41,.42h-.02s-.01,.03-.01,.03l.03,.03,.04-.02-.04-.04Zm-.04,.3l-.05-.03,.08-.15-.17,.04,.06,.13h.07Zm.59-.77l.09,.18,.02,.11-.09,.09-.3,.04-.02,.06,.04,.08,.14-.03v-.05s.04-.03,.04-.03l.09,.09h.12s.02-.05,.02-.05l-.02-.04-.04,.02-.03-.03,.11-.19v-.05s.04-.09,.04-.09l-.21-.11Zm-.33,.41h-.04v.05s.02,.03,.02,.03l.02-.08Zm-.04,.23h.05s.02,.01,.02,.01h.18s0-.05,0-.05l-.3-.02-.03,.07,.02,.02h.04s.01-.03,.01-.03Zm-.01,.2l-.02-.04v-.05s-.04-.03-.04-.03h-.06s-.12,.14-.12,.14l.02,.02h.19s.03-.03,.03-.03Zm.12-.12v.07s-.06,.03-.06,.03v.04s.04,0,.04,0l.08-.08v-.08s-.06,.02-.06,.02Zm1.13,1.89l.02-.13,.07-.05-.05-.05-.07,.03h.01s-.04-.01-.04-.01v-.09s.02-.01,.02-.01l.02-.08-.04-.02-.05,.03-.02-.02h.01s-.04-.05-.04-.05l.03-.03v-.03s.11-.12,.11-.12l.05,.03,.02-.02v-.04h-.03s.02-.03,.02-.03v-.07s-.06,.01-.06,.01l-.05,.05-.03-.03v-.04l.05-.03v-.06l-.05-.05,.04-.06-.03,.05,.11,.11,.02-.02v-.05s-.05-.04-.05-.04v-.11l.06-.08h.06l.06-.04h.05s0,.09,0,.09h-.01s-.02,.01-.02,.01v.02h.01s.05,0,.05,0l.03,.05-.11,.23h.03s-.01,0-.01,0v.03s.04-.01,.04-.01h.01v-.03h-.01s-.02-.01-.02-.01l.11-.08h.04l.12,.07v.12s.08,.01,.08,.01v-.03h.05l.02,.02,.09-.03v-.05s-.39-.21-.39-.21l-.02-.13,.08-.17-.02-.06h-.07s-.06,.03-.06,.03l-.09-.22-.11,.06-.09-.09h-.02v-.03s.08-.03,.08-.03l.04-.08h-.01v-.03l-.02-.02,.08-.02-.05-.03-.05,.03-.06-.08-.11-.13v-.16s-.04-.05-.04-.05l.04-.06-.06-.02-.05,.03h-.02l-.04-.04-.02-.08-.04,.06,.03,.14-.19,.06,.03,.03,.21,.02,.04,.04-.42-.02-.02,.06-.12,.09,.05,.2h.14s.06,.03,.06,.03l-.19,.06v.05s-.05,.11-.05,.11l-.18,.09h-.05s-.08-.09-.08-.09v-.05s.06-.01,.06-.01l.03-.03v-.04s-.15,.02-.15,.02v-.11h-.01s-.07,0-.07,0l-.03,.03h-.04s-.02,.04-.02,.04l.34,.36,.03-.03,.08-.02-.02,.06,.06,.21,.06-.04-.04-.15,.02-.04v-.09s.11-.14,.11-.14h.09s.04-.05,.04-.05l.02,.02,.11-.08,.03-.09-.02-.06h-.05s-.01-.02-.01-.02l.07-.16,.09-.03,.04,.08-.03,.05h-.04l-.02,.02,.34,.04h.01s.02,.03,.02,.03l-.04,.02-.03,.05h.01s-.04,.05-.04,.05v.04s-.02,.02-.02,.02h-.17l-.09,.07,.05,.05,.02,.08,.05,.03h.05s.04-.05,.04-.05v-.02h.05s.04-.03,.04-.03l-.02-.11,.05-.03v-.03s.07,.13,.07,.13v.12s-.08,.07-.08,.07h-.21l-.04,.06,.06,.08h.05s-.08,.03-.08,.03l-.09-.09-.06,.02-.04,.06-.06,.02-.02-.04,.07-.16-.19,.02v-.03h-.05v.03s.03,.02,.03,.02l.03,.07v.05s.01,.04,.01,.04h.03s-.01,.19-.01,.19l.18-.2,.16,.03-.02,.02v.02s-.07-.01-.07-.01l-.11,.11,.04,.11v.03s-.07,.04-.07,.04l-.02,.06,.08,.02,.07-.07h.02l.04,.06v.07s-.09,.04-.09,.04l.05,.03,.07-.03,.03,.07-.05,.07h-.01s-.03,0-.03,0l-.06-.02-.06,.02-.05-.05-.05,.03,.02,.04,.05,.03-.04,.19h-.07s-.03,.06-.03,.06l.16-.07v-.09s.04-.01,.04-.01v-.05s-.05-.02-.05-.02l.04-.04,.06,.02,.05-.03-.06,.08v.14s.04,.03,.04,.03l.03-.03v-.07s.03-.02,.03-.02l.05,.03,.03-.03v-.05s.02-.01,.02-.01h.03s.01,.11,.01,.11h-.03s-.05,.11-.05,.11l-.14,.05-.04,.06,.12-.03,.07,.09,.13-.02,.02-.04h.05s0,.03,0,.03h.04s.04-.04,.04-.04Zm-.66-2.22v.03s.02,.03,.02,.03h.02l-.02-.06h-.02Zm-.33,.5v.03s.04,.01,.04,.01l.04-.04v-.04h-.03s-.04,.01-.04,.01v.03Zm.61,.07l.04,.02,.04-.02v-.03s-.04-.03-.04-.03l-.05,.03v.03Zm1.22-1.02l-.03,.05v.05s.13-.07,.13-.07l-.02-.04h-.07Zm.14-.06v.03s.02,.03,.02,.03h.02s.02-.02,.02-.02l-.04-.04h-.02Zm.42,1.5l.02-.02h.07s.03-.04,.03-.04h-.2s-.08-.2-.08-.2l-.04,.25-.04,.04-.04-.23,.06-.13v-.07s-.16-.15-.16-.15l-.2,.05v.15l-.04,.06-.06-.19-.16-.07-.12-.18,.03-.03v-.03s.02-.05,.02-.05h.12s-.01,.04-.01,.04l.04,.04h.05s-.02-.16-.02-.16h.12s-.01-.08-.01-.08l-.03-.03v-.04s-.05-.03-.05-.03l-.03,.05-.04,.02-.14,.07-.05,.14-.11,.06,.03,.03,.02,.08h-.01s-.05-.02-.05-.02l-.21,.06,.04,.06,.3-.02,.11,.08,.02,.13,.07,.05-.02,.02,.08,.11,.09,.03,.06-.02v-.05s.02-.01,.02-.01l.17,.08,.02,.08-.08,.06-.04-.04v-.04l-.04-.02-.04,.3,.08,.08,.02-.02h.02l.14-.12,.08,.02,.14-.05,.03,.03h.02l.02-.06-.03-.05h.01s0-.03,0-.03Zm-2.46,.81l.14,.09h.03s.13,.16,.13,.16h.03s.03,0,.03,0l-.12-.31,.02-.06-.07-.05-.07,.07,.04,.02,.04-.02h.01s-.08,.05-.08,.05h-.01s-.02,.01-.02,.01v-.02s-.01,.01-.01,.01h-.05s-.03-.04-.03-.04v-.03s-.02-.01-.02-.01h-.03s-.04,.16-.04,.16h.05s.04-.03,.04-.03Zm2.41-2.52v.02s.02,.02,.02,.02h.03s.01,0,.01,0v-.02h-.01s-.05-.02-.05-.02Zm-.51,.51v.21l.03,.03,.14-.07v-.05s-.16-.13-.16-.13h-.01Zm.24-.11l-.14,.05-.02,.08,.05-.05,.06,.06,.08,.02-.04-.17Zm-.78,.84l-.05-.03-.11,.06v.03s.05,.02,.05,.02l.09-.05v-.03Zm1.24-1.32v.03s.06-.01,.06-.01l.05-.05,.04,.02h.05s-.12-.08-.12-.08l-.09,.09Zm-2.26,2.34h.07s-.03-.06-.03-.06l-.04-.02v.08Zm2.13-2.05l-.03-.05h-.06v.02s.05,.07,.05,.07l.04-.04Zm-2.78,2.76l.07-.09h-.05s-.01,0-.01,0h-.02l-.05,.03v.05s.06,.01,.06,.01Zm2.92-2.84l.02-.02-.05-.05h-.06l.02,.06,.07,.03v-.02Zm-.3,.13l-.03,.03v.04s.08-.08,.08-.08h-.05Zm-2.35,2.47v-.09s-.12,.11-.12,.11l.02,.04h.04l.05-.05Zm-.9,.87v-.05h-.03l-.02,.04,.03,.03,.02-.02Zm3.22-3.24l-.07,.09,.11-.06-.03-.03Zm-1.99,2.14l.13-.06,.04-.08-.06-.04-.08,.06-.02,.13Zm1.79-1.58l-.02-.04h-.05s-.02-.03-.02-.03h-.02s-.01-.05-.01-.05h-.05s-.01,.06-.01,.06l.16,.09,.03-.03Zm-.59,.42h-.05s-.03,.04-.03,.04l-.04-.02-.04,.02-.04,.11,.04,.02,.04-.04,.16,.09v-.2s.02-.01,.02-.01v-.04s-.03-.01-.03-.01l-.02,.04Zm-2.1,2.1v-.05s-.09,.02-.09,.02l-.02,.04v.03h.05l.06-.04Zm1.45-1.54l.04,.08-.04,.02h-.09s.09-.11,.09-.11Zm1.67-1.6v.02l-.11,.04-.02,.13,.24-.22-.12,.03Zm-2.86,2.84l.07,.07h.04s.08,.08,.08,.08l.4-.34,.02-.11-.26,.28h-.06s-.05-.05-.05-.05l.03-.05-.08-.06-.19,.17Zm.41-.39v.03s.06-.01,.06-.01v-.03s-.03-.04-.03-.04l-.03,.05Zm2.17-2.13h.02s.04-.04,.04-.04v-.02s-.03-.01-.03-.01l-.04,.04v.03Zm-.03,.11l-.06-.04-.03,.03v.04h.03s.02,.05,.02,.05l-.04,.13,.03,.09h.03s.02-.31,.02-.31Zm-.25,.34v-.03s-.04-.01-.04-.01l-.04,.02v.02s.04,.04,.04,.04h.02s.02-.04,.02-.04Zm-2.74,2.68h.05s.07-.06,.07-.06h-.01s-.02-.01-.02-.01l-.02,.02h-.07s0,.05,0,.05Zm1.81-1.83l-.04,.06,.04-.06Zm1.77-1.75v.03s.01,.02,.01,.02h.04v-.04l-.02-.02h-.01s-.02,.01-.02,.01Zm.13-.11h.09s.05-.02,.05-.02v-.02s-.02-.02-.02-.02l-.13,.06Zm-2.87,2.91l.04,.02v-.02s-.03-.05-.03-.05l-.02,.02v.03Zm3.08-3.09v.05s.03,0,.03,0v-.05s-.03,0-.03,0Zm-3.86,3.86v.02h-.01s.01-.02,.01-.02Zm-.05,.16v-.03s-.03-.02-.03-.02l-.05,.03,.03,.03h.05Zm3.58-3.62h-.06l-.04,.04,.11,.3,.05-.28-.05-.05Zm-3.07,3.11v-.03s0-.01,0-.01h-.04v.02s-.01,.01-.01,.01h.05Zm1.43-1.36l-.08,.04,.06,.11h.01s.04-.03,.04-.03l.02-.27-.08,.06,.03,.09Zm1.18-1.27l-.05,.03,.05,.03,.05-.03-.05-.03Zm.26-.14h-.11l.07,.05,.11-.15h-.07v.09Zm-.03,.64h-.04l-.11-.08v-.12s-.07-.08-.07-.08l.02-.13-.14,.03v.14h.07l.03,.05-.09,.09v.12s.06,.03,.06,.03l.03-.03-.02-.04,.03-.03h.04l.16,.12,.05-.03,.11,.06,.11-.21-.24,.12Zm-2.9,2.31l.08-.02,.02-.04-.06-.04h-.03s-.03,.06-.03,.06l.02,.04Zm3.24-3.26v.04h.02s.01,.01,.01,.01h.01s0-.03,0-.03l-.04-.02Zm-1.2,1.71l.08,.04,.05,.07,.08,.02,.05-.03,.02,.08h.03s0-.05,0-.05l-.03-.05h.01s-.09-.04-.09-.04l-.02-.04h-.05s-.01,0-.01,0l-.11-.04-.04-.06v-.13l-.08-.08-.03,.05-.02-.02h-.02v.05h-.05l-.02,.13,.07,.03,.05-.03v-.03s.02-.03,.02-.03l.08,.17-.08-.02,.05,.09,.04-.02v-.05Zm-2.09,1.72v-.02s-.03-.01-.03-.01l-.03,.03v.02s.06-.02,.06-.02Zm3.09-3l-.05-.03-.17,.13,.11,.06,.11-.06v-.02s.01-.01,.01-.01v-.06Zm-2.36,2.4l-.06-.08-.15,.13,.04,.02,.09-.07h.07Zm.2,0l-.02-.13h-.14s.14,.15,.14,.15l.02-.02Zm.63-.82v-.07s-.01,0-.01,0l-.03,.05,.04,.02Zm1.7-1.74v.03s0,.03,0,.03h.03s.06-.03,.06-.03v-.05s-.04-.01-.04-.01l-.05,.03Zm-1.89,1.93l.08,.02,.06,.13h.03s.02-.01,.02-.01l.03,.05h.03s.04,.14,.04,.14l.14,.03-.27-.34,.07-.03h.01s.17-.05,.17-.05l-.03,.09,.15-.11v-.02s.07-.03,.07-.03l-.33-.07-.06-.06v.09s-.01,.02-.01,.02v.05s-.21,.09-.21,.09Zm-1.06,1.04l.04,.02,.09-.05v-.08s-.06,.08-.06,.08h-.04l-.03,.03Zm1.89-1.84l.02,.04,.02,.02,.05-.05-.02-.04h-.05s-.02,.03-.02,.03Zm1.02-.92l-.05-.03h-.02s-.02,.02-.02,.02v.16s0,.01,0,.01h.02s.07-.16,.07-.16Zm-3.34,3.34v-.03s0-.01,0-.01h-.05s0,.03,0,.03h.05Zm3.26-3.04l.02-.06-.08-.02-.16,.05,.02,.06,.11,.04,.09-.07Zm-1.4,1.19h.05s.03-.04,.03-.04l-.03-.03-.05,.03v.04Zm-.97,1.03v-.02h-.01s-.05-.02-.05-.02l-.03,.03,.04,.02h.05Zm2.68-2.69l-.02,.04,.04,.04,.02-.02v-.07s-.04,.01-.04,.01Zm-.93,.95h-.01s0-.01,0-.01h.01Zm.28-.19h.01s-.03-.02-.03-.02l-.05,.05h.07s0-.03,0-.03Zm-2.14,2.12l-.05,.03,.04,.04,.08,.02,.08-.06-.15,.02v-.05Zm-.37,.57v-.06l-.03-.05-.06-.02-.03,.05,.03,.03h.04l.05,.05Zm.82-.89l-.04-.04h-.04l-.03,.03h.12Zm-.22,.15l-.05,.03-.02,.04h.01s.02,.01,.02,.01l.03-.03v-.05Zm1.54-1.34h-.01s-.01,0-.01,0h.02Zm-.45,.77l.07-.09-.17-.13v.08h.09s.01,.02,.01,.02v.12Zm-1.78,1.67v-.03s-.01-.04-.01-.04v-.03s-.03,.02-.03,.02v.08h.04Zm2.02-2.05h-.03s-.04,.01-.04,.01v.03s.01,.06,.01,.06l.21,.02v-.02l-.15-.11Zm0,.42l.07-.14-.08-.15h-.08l-.04,.06,.12,.12,.02,.11Zm-.45,.28l-.02-.06-.05-.05-.05,.03,.13,.08Zm.06,.27l-.04-.06,.08-.08,.02-.08-.21,.04v.04l.04,.04,.02,.08,.08,.02Zm.13-.34l-.04-.04-.05,.03,.05,.05h.04v-.04Zm.5-.56l.03,.28h.07s.06-.14,.06-.14l-.08-.13-.08-.02Zm.33,.62l.02-.06-.02-.04h-.05s-.04-.01-.04-.01l.14-.24-.02-.06,.08-.13-.25-.15,.02,.11,.05,.05,.05,.2-.37,.2-.14-.03,.03,.18,.17-.02v-.07s.07-.04,.07-.04l.09,.14h.16Zm-.58-.15v-.05h-.05l-.02,.06,.03,.05,.04-.06Zm.24,.24v-.04s-.08-.02-.08-.02l-.08,.04-.2-.05-.03,.03,.02,.08h.04l.08-.06,.04,.04,.21-.02Zm-.34,.25l-.02-.13-.06-.04h-.06l-.02,.06h-.01s-.06,.05-.06,.05h-.05s-.02,.05-.02,.05l.03,.03h.25l.03-.03Zm.23-.06v-.11h-.02s-.05,.03-.05,.03v.05s-.03,.02-.03,.02v.02s-.06,.02-.06,.02v.06h.05s.03-.04,.03-.04h.02l.06-.06Zm.58-.39v-.07s-.05-.02-.05-.02v.03s0,.03,0,.03l.05,.03Zm-.47,.47v.03s.01,.04,.01,.04h.03s.05-.04,.05-.04v-.03s-.05-.02-.05-.02l-.04,.02Zm.11,.44l.02-.04-.04-.06,.12-.18h-.23s-.02-.04-.02-.04h-.04l-.02,.04,.05,.03v.05s.05,.04,.05,.04l-.04,.06,.03,.05,.13,.04Zm.31-.81v.03s.05,.02,.05,.02h.05s.03-.04,.03-.04l-.07-.05-.06,.04Zm-.06,.74v-.03s0-.03,0-.03l-.04-.02-.06,.04v.03s.05,.02,.05,.02h.05Zm.45-.08l-.06-.08-.08,.02-.26,.24v.06l.03,.03,.25-.27,.06,.02,.06-.02Zm.2-.18v-.05s-.05-.06-.05-.06h-.05s-.01,.06-.01,.06l.03,.05,.04,.02,.04-.02Zm-.13,.57l-.06-.13v-.13l-.09,.14,.12,.14,.04-.02Zm-.28,.16v-.02s-.02-.02-.02-.02l-.05,.03v.03s.04,.01,.04,.01l.03-.03Zm.53-.38h.03s0-.03,0-.03h-.01s-.03-.02-.03-.02l-.04,.02,.05,.03Zm-.42,.63l-.02-.06-.07-.03,.06,.11h.03Zm.76-.85l-.02,.04,.02,.06h.03s.01-.04,.01-.04v-.04l-.02-.02h-.02Zm-.5,.69l.03-.05v-.03s-.03,0-.03,0l-.03,.05v.03s.03,0,.03,0Z"/><path class="cls-9" d="M40.3,44.85l1.91-.62c2.28-.74,2.51-3.51,2.26-5.81-.11-1.03-.47-2.01-1.03-2.87l-3.35-5.1c-1.27-1.96-3.75-3.01-6.32-2.68h0"/><g><path class="cls-10" d="M18.96,42.41c.04,.07,.08,.14,.12,.2"/><path class="cls-12" d="M19.36,43.02c.83,1.1,2.1,1.89,3.62,2.07l2.32,.28"/><line class="cls-10" x1="25.54" y1="45.39" x2="25.78" y2="45.42"/></g><polyline class="cls-11" points="40.45 55.3 28.51 56.32 28.04 56.25 27.56 56.34"/></g><circle class="cls-3" cx="52" cy="20" r="17"/><path class="cls-1" d="M54.86,15.8c0-1.38-1.02-2.16-2.76-2.16s-3.12,.69-4.5,2.07l-2.76-3.03c1.74-1.92,4.08-3.24,7.35-3.24,4.32,0,7.26,2.22,7.26,6.24s-2.64,5.4-5.91,6.06l-.33,1.83h-3.06l-.69-4.86,.15-.15c3.78-.15,5.25-1.14,5.25-2.76Zm-5.7,14.91v-4.8h4.86v4.8h-4.86Z"/><g><rect class="cls-7" x="32.86" y="62.97" width="3.34" height="4.68" rx=".67" ry=".67" transform="translate(5.37 133.19) rotate(-128.88)"/><rect class="cls-6" x="37.52" y="60.42" width="2.17" height="3.04" rx=".43" ry=".43" transform="translate(14.63 130.87) rotate(-128.88)"/><rect class="cls-6" x="40.52" y="58.42" width="2.17" height="3.04" rx=".43" ry=".43" transform="translate(21.07 129.95) rotate(-128.88)"/></g><g><rect class="cls-7" x="29.9" y="65.89" width="3.34" height="4.68" rx=".67" ry=".67" transform="translate(100.3 98.72) rotate(138.75)"/><rect class="cls-6" x="26.95" y="62.78" width="2.17" height="3.04" rx=".43" ry=".43" transform="translate(91.52 94.16) rotate(138.75)"/><rect class="cls-6" x="24.36" y="59.7" width="2.17" height="3.04" rx=".43" ry=".43" transform="translate(84.95 90.47) rotate(138.75)"/></g></g></g></svg>