<?xml version="1.0" encoding="UTF-8"?><svg xmlns="http://www.w3.org/2000/svg" xmlns:xlink="http://www.w3.org/1999/xlink" viewBox="0 0 72 72"><defs><style>.e,.f,.g,.h,.i,.j,.k,.l{fill:none;}.m{fill:#fff;}.n{fill:red;}.o{fill:#cfc;}.p{fill:#96bd96;stroke-width:.95px;}.p,.f,.g,.h,.i,.j,.k,.l{stroke-miterlimit:10;}.p,.h,.k{stroke:#000;}.f{stroke:#39b54a;stroke-dasharray:0 .48;}.f,.j,.k,.l{stroke-width:1.19px;}.g{stroke-width:.75px;}.g,.i{stroke:#333;}.h{stroke-width:2px;}.q{fill:#00e59d;mix-blend-mode:hard-light;}.r{opacity:.25;}.j,.l{stroke:red;}.s{clip-path:url(#b);}.l{stroke-dasharray:0 0 .49 .49;}.t{isolation:isolate;}.u{fill:url(#d);}.u,.v{opacity:.7;}.v{fill:url(#c);}</style><clipPath id="b"><path class="e" d="M30.5,38.5c0,4.42-3.58,8-8,8s-8-3.58-8-8,3.58-8,8-8,8,3.58,8,8Zm9-8c-4.42,0-8,3.58-8,8s3.58,8,8,8,8-3.58,8-8-3.58-8-8-8Z"/></clipPath><linearGradient id="c" x1="14.98" y1="41.24" x2="30.02" y2="35.76" gradientTransform="matrix(1, 0, 0, 1, 0, 0)" gradientUnits="userSpaceOnUse"><stop offset="0" stop-color="#fff" stop-opacity=".2"/><stop offset="1" stop-color="#fff" stop-opacity=".8"/></linearGradient><linearGradient id="d" x1="31.98" y1="41.24" x2="47.02" y2="35.76" xlink:href="#c"/></defs><g class="t"><g id="a"><g><path class="o" d="M36.15,48.51l6.38-.35c3.81-.21,6.37-4,5.13-7.62l-4.5-13.14c-.98-2.86-3.67-4.78-6.69-4.78h-9.44c-2.47,0-4.66,1.57-5.45,3.91l-5.73,16.91c-.99,2.93,1.19,5.96,4.28,5.96l5.98-.33"/><path class="o" d="M40.51,48.26l.94,14.41c.11,1.14-.29,2.28-1.1,3.1-.75,.75-1.77,1.37-2.84,1.81s-2.18,.68-3.12,.68c-2.86,0-5.4-1.84-6.28-4.56l-4.54-14.49"/><path class="k" d="M36.15,48.51l6.38-.35c3.81-.21,6.37-4,5.13-7.62l-4.5-13.14c-.98-2.86-3.67-4.78-6.69-4.78h-9.44c-2.47,0-4.66,1.57-5.45,3.91l-5.73,16.91c-.99,2.93,1.19,5.96,4.28,5.96l5.98-.33"/><path class="k" d="M40.51,48.26l.94,14.41c.11,1.14-.29,2.28-1.1,3.1-.75,.75-1.77,1.37-2.84,1.81s-2.18,.68-3.12,.68c-2.86,0-5.4-1.84-6.28-4.56l-4.54-14.49"/><g><rect x="30.5" y="44.84" width="2.39" height="5.73" rx="1.19" ry="1.19" transform="translate(-24.64 37.37) rotate(-46)"/><rect x="28.92" y="45.3" width="2.39" height="5.73" rx="1.19" ry="1.19" transform="translate(12.55 -5.85) rotate(14)"/></g><path d="M31.39,56.3h1.91v2.03c0,.2-.16,.36-.36,.36h-.84c-.4,0-.72-.32-.72-.72v-1.67h0Z" transform="translate(-5.83 3.7) rotate(-6)"/><path d="M34.65,55.91h.84c.2,0,.36,.16,.36,.36v2.03h-1.91v-1.67c0-.4,.32-.72,.72-.72Z" transform="translate(78.29 108.05) rotate(171)"/><path d="M37.85,55.37h.69c.16,0,.3,.13,.3,.3v1.68h-1.59v-1.39c0-.33,.27-.59,.59-.59Z" transform="translate(84.43 106.07) rotate(171)"/><circle cx="35.09" cy="65.63" r="1.19"/><path class="p" d="M12.36,17.69c-2.57,1.65-5.41,11.3-5.41,11.3l3.86-2.32-3.95,7.57,4.81-1.83L1,41.31s3.39,.37,6.05-1.19S1.83,48.48,1.83,48.48l5.26-.39-3.63,6.14s8.91-2.75,10.43-5.03c4.77-7.16,5.73-24.82,10.79-26.3,3.95-1.15,13.56-.52,13.56-.52,0,0-16.21-10.88-25.88-4.69Z"/><path class="p" d="M26.21,22.14c-5-.61-9.36-8.55-5.59-12.71,3.77-4.16,6.66-5.43,6.66-5.43-1.29,1.26-2.76,5.37-1.5,6.52l.43,.39s4.22-4.59,4.96-6.82c.54-1.62-.49,4.47-.49,4.47l6.3-4.82-1.97,3.62,5.39-2.72-.81,3.28,5.78-2.09-1.4,4.36,7.15-1.92-4.43,2.91s2.46-1.51,6.37,.71,6.82,8.63,7.84,11.95c1.66,5.41,10.1,16.27,10.1,16.27l-6.91-1.93,1.95,8.26-5.01-4.66,1.24,8.83-5.26-6.43-1.97,8.43-3.11-5.01-1.83,7.29-4.32-17.88-1.87-8.97c-1.31-4.37-2.67-4.54-8.02-5.17,0,0-6.91-.4-9.71-.74Z"/><path class="q" d="M12.36,17.69c-2.57,1.65-5.41,11.3-5.41,11.3l3.86-2.32-3.95,7.57,4.81-1.83L1,41.31s3.39,.37,6.05-1.19S1.83,48.48,1.83,48.48l5.26-.39-3.63,6.14s8.91-2.75,10.43-5.03c4.77-7.16,5.73-24.82,10.79-26.3,3.95-1.15,13.56-.52,13.56-.52,0,0-16.21-10.88-25.88-4.69Z"/><path class="q" d="M26.21,22.14c-5-.61-9.36-8.55-5.59-12.71,3.77-4.16,6.66-5.43,6.66-5.43-1.29,1.26-2.76,5.37-1.5,6.52l.43,.39s4.22-4.59,4.96-6.82c.54-1.62-.49,4.47-.49,4.47l6.3-4.82-1.97,3.62,5.39-2.72-.81,3.28,5.78-2.09-1.4,4.36,7.15-1.92-4.43,2.91s2.46-1.51,6.37,.71,6.82,8.63,7.84,11.95c1.66,5.41,10.1,16.27,10.1,16.27l-6.91-1.93,1.95,8.26-5.01-4.66,1.24,8.83-5.26-6.43-1.97,8.43-3.11-5.01-1.83,7.29-4.32-17.88-1.87-8.97c-1.31-4.37-2.67-4.54-8.02-5.17,0,0-6.91-.4-9.71-.74Z"/><path class="f" d="M40.3,44.85l1.91-.62c2.28-.74,2.51-3.51,2.26-5.81-.11-1.03-.47-2.01-1.03-2.87l-3.35-5.1c-1.27-1.96-3.75-3.01-6.32-2.68h0"/><g><path class="j" d="M18.96,42.41c.04,.07,.08,.14,.12,.2"/><path class="l" d="M19.36,43.02c.83,1.1,2.1,1.89,3.62,2.07l2.32,.28"/><line class="j" x1="25.54" y1="45.39" x2="25.78" y2="45.42"/></g><polyline class="k" points="40.45 55.3 28.51 56.32 28.04 56.25 27.56 54.34"/><g class="s"><g><path d="M43.36,47.65l2.6-.84c3.1-1,3.4-4.76,3.07-7.89-.15-1.39-.64-2.73-1.41-3.9l-4.55-6.92c-1.72-2.67-5.1-4.09-8.59-3.64h0c-2.93,.39-5.06,2.8-4.78,5.4l1.2,10.96c.59,5.39,6.64,8.71,12.44,6.82Z"/><path d="M19.83,47.6l3.97,.48c3.38,.41,6.42-2.08,6.7-5.47l1.26-15.45c.13-1.6-1.01-3.02-2.6-3.23l-2.6-.35c-3.77-.51-7.43,1.52-8.99,4.99l-3.77,8.4c-2.09,4.67,.94,10.03,6.02,10.64Z"/><path class="m" d="M38.71,32.32h0c3.82,0,6.91,3.1,6.91,6.91v.93c0,2.66-2.16,4.82-4.82,4.82h-3.16c-2.08,0-3.77-1.69-3.77-3.77v-4.04c0-2.67,2.17-4.84,4.84-4.84Z" transform="translate(-6.11 7.49) rotate(-10)"/><circle cx="39.65" cy="39.89" r="3.57"/><circle class="m" cx="37.1" cy="40.6" r=".61"/><circle class="m" cx="39.65" cy="39.89" r="1.63"/><path class="n" d="M26.56,42.74l-.31,.31-.29,.32-.32,.29-.14,.11-.25,.18-.23,.02-.16-.05-.25-.18-.36-.29-.4-.43-.25-.29-.38-.45-.36-.36-.22-.14-.18-.07-.18,.04-.29,.18-.16,.16-.29,.25-.76,.87-.31,.27-.16,.16-.29,.22-.27,.02-.31-.16-.38-.38-.45-.49-.27-.31-.43-.36-.27-.31-.09-.16-.18-.29-.02-.27,.22-.29,.29-.32,.27-.31,.78-.67,.25-.29,.11-.11,.18-.32-.02-.27-.2-.23-1.19-1.19-.27-.31-.16-.16-.2-.34-.05-.27,.2-.27,.14-.18,.32-.29,.31-.23,.31-.27,.41-.49,.34-.27,.31-.2,.27-.02,.27,.2,.45,.45,.56,.63,.63,.56,.25,.18,.16,.09,.22-.04,.23-.16,.27-.23,.25-.29,.7-.78,.45-.45,.27-.2,.22-.07,.16,.02,.2,.16,.14,.11,.25,.29,.4,.5,.29,.29,.45,.38,.41,.41,.16,.23,.05,.2-.05,.2-.18,.25-.61,.61-.31,.27-.45,.38-.23,.27-.14,.14-.14,.25-.05,.2,.05,.16,.16,.23,.43,.43,.99,.88,.27,.31,.13,.16,.2,.27,.02,.31-.16,.34-.31,.31-.47,.43Zm-7.3-7.48l.13,.23,.02-.16-.05-.09-.09,.02Zm-.81,.96v-.04l-.09-.02v.04l.05,.05,.04-.04Zm.47-.18v-.07h-.07l-.04,.04,.02,.02v.04l.05,.02,.04-.04Zm.27-.2v-.04h-.07l-.02,.02v.04h.07l.02-.02Zm-.14,.22v.11l.07,.07,.47-.18-.45-.09-.09,.09Zm-.23,.41l.04-.11-.02-.02-.05-.02-.07,.07v.11l.11-.04Zm.79-.9v.07l.07,.04,.07-.07-.09-.05-.05,.02Zm.05,.31l-.09-.09-.09-.02,.02,.16,.13,.02,.04-.07Zm-.45,.81l.18,.04-.09-.13-.14-.11-.02-.09-.13-.09,.09,.2h.04l.07,.18Zm-.22-.04l-.05-.05-.11,.04,.02,.09,.05,.02,.09-.09Zm.45-.38l.02,.13h.14l-.02,.16,.11-.14-.25-.14Zm.38-.23l-.02,.09,.32,.07v-.04l-.25-.14-.05,.02Zm.13,.56l.11-.18-.11-.18h-.04l-.02-.02-.09-.02-.05,.09,.2,.31Zm-.78,.31l.16,.13-.04-.11-.05-.05-.07,.04Zm1.06-.78l-.02,.2,.09,.2,.09-.02,.07-.18-.11-.18-.13-.02Zm-.7,.74h-.04l-.02,.05,.05,.05,.07-.04-.07-.07Zm-.07,.5l-.09-.05,.14-.25-.29,.07,.11,.22,.13,.02Zm1.01-1.33l.16,.31,.04,.18-.16,.16-.5,.07-.04,.11,.07,.14,.23-.05-.02-.09,.09-.05,.16,.16,.2-.02,.04-.07-.04-.07-.07,.04-.05-.05,.18-.32-.02-.09,.09-.16-.36-.18Zm-.56,.7h-.07l-.02,.09,.05,.05,.04-.14Zm-.07,.4l.09-.02,.04,.04,.31-.02v-.07l-.5-.04-.05,.13,.04,.04h.07l.02-.05Zm-.02,.34l-.04-.07,.02-.09-.09-.05h-.11l-.2,.23,.04,.04h.32l.05-.05Zm.2-.2l-.02,.13-.09,.05v.07h.07l.14-.14v-.14l-.11,.04Zm1.93,3.23l.04-.22,.13-.09-.09-.09-.13,.05,.02,.02-.07-.04-.02-.16,.05-.02,.04-.14-.07-.04-.09,.05-.04-.04,.02-.02-.07-.07,.05-.05-.02-.05,.2-.2,.09,.05,.04-.04v-.07l-.05-.02,.04-.04-.02-.13-.09,.02-.09,.09-.05-.05v-.07l.09-.05v-.11l-.09-.09,.07-.11-.05,.09,.18,.18,.04-.04-.02-.09-.07-.07v-.18l.11-.14h.11l.11-.07,.09,.02v.14l-.02,.02h-.04v.04l.02,.02,.09-.02,.05,.09-.18,.4,.05-.02-.02,.02-.02,.05,.09-.02,.02-.02v-.04l-.02-.02h-.04l.18-.14h.07l.2,.13,.02,.2,.13,.02,.02-.05h.07l.04,.04,.16-.05-.02-.09-.65-.36-.04-.22,.14-.29-.04-.11-.13-.02-.11,.07-.16-.38-.18,.11-.16-.16h-.04l.02-.05,.13-.05,.07-.14-.02-.02v-.04l-.04-.04,.14-.04-.09-.05-.09,.05-.11-.14-.18-.22,.02-.27-.09-.09,.07-.11-.11-.04-.09,.05h-.04l-.07-.07-.04-.14-.07,.11,.05,.23-.32,.11,.05,.05,.36,.04,.07,.07-.72-.04-.04,.11-.2,.16,.09,.34,.23-.02,.11,.07-.32,.11,.02,.09-.11,.18-.31,.16-.09-.02-.14-.14,.02-.09,.09-.02,.05-.05v-.07l-.25,.04v-.18l-.02-.02-.13,.02-.05,.05h-.07l-.04,.07,.58,.61,.05-.05,.14-.04-.04,.11,.11,.36,.11-.07-.07-.25,.04-.07-.02-.16,.2-.23,.16,.02,.07-.11,.04,.04,.18-.14,.05-.16-.04-.11-.09-.02-.02-.02,.13-.27,.16-.05,.07,.14-.05,.09h-.07l-.04,.04,.58,.07,.02-.02,.04,.07-.07,.04-.05,.09,.02,.02-.07,.07v.07l-.04,.04h-.29l-.16,.13,.09,.09,.04,.14,.09,.05,.09-.02,.07-.07v-.04l.09,.02,.07-.07-.04-.18,.09-.05,.02-.05,.11,.22-.02,.2-.13,.13h-.36l-.07,.11,.11,.14,.09,.02-.14,.04-.16-.16-.11,.04-.07,.11-.11,.04-.04-.07,.13-.27-.32,.04-.02-.05h-.07l-.02,.05,.07,.04,.05,.13-.02,.09,.04,.07,.05,.02-.02,.31,.31-.34,.27,.05-.04,.04v.04l-.13-.02-.18,.18,.07,.18-.02,.05-.11,.07-.04,.11,.14,.04,.13-.13h.04l.07,.11-.02,.13-.14,.07,.09,.05,.13-.05,.05,.13-.09,.13-.02-.02-.05,.02-.11-.04-.11,.04-.09-.09-.09,.05,.04,.07,.09,.05-.07,.32-.13-.02-.05,.13,.27-.13,.02-.16,.05-.02-.02-.09-.07-.04,.07-.07,.11,.04,.09-.05-.11,.14,.02,.23,.05,.05,.05-.05,.02-.13,.04-.04,.09,.05,.05-.05-.02-.09,.05-.02,.05,.02,.02,.16-.05,.02-.09,.16-.23,.09-.07,.11,.2-.05,.13,.16,.22-.04,.04-.07,.09-.02v.07h.07l.07-.07Zm-1.14-3.8l-.02,.05,.05,.05h.04l-.04-.11h-.04Zm-.56,.85l.02,.05,.05,.02,.07-.07v-.07l-.05-.02-.07,.04-.02,.05Zm1.06,.13l.07,.04,.07-.04,.02-.05-.09-.05-.09,.05,.02,.05Zm2.07-1.75l-.05,.09,.02,.09,.2-.13-.04-.07-.13,.02Zm.23-.13l-.02,.05,.05,.05h.04l.04-.04-.07-.07h-.04Zm.72,2.56l.04-.04,.13-.02,.05-.05-.34-.02-.14-.32-.07,.43-.07,.07-.07-.4,.11-.22-.02-.13-.25-.25-.34,.09v.25l-.07,.11-.11-.32-.27-.13-.2-.31,.05-.05-.02-.05,.05-.09,.2-.02-.02,.09,.07,.07,.09-.02-.04-.25,.2-.02-.02-.13-.05-.05v-.07l-.09-.05-.05,.09-.07,.04-.23,.13-.09,.23-.18,.11,.05,.05,.04,.14-.02,.02-.09-.05-.36,.11,.07,.11,.5-.04,.18,.14,.04,.22,.13,.09-.04,.04,.14,.18,.16,.05,.11-.04,.02-.09,.02-.02,.29,.14,.04,.14-.14,.11-.07-.07v-.07l-.07-.04-.07,.5,.14,.14,.04-.04h.04l.23-.2,.14,.04,.23-.09,.05,.05h.04l.04-.11-.05-.09,.02-.02v-.04Zm-4.2,1.39l.23,.16h.04l.02-.02,.22,.29,.05,.02,.05-.02-.2-.52,.04-.11-.13-.09-.13,.13,.07,.04,.07-.04,.02,.02-.14,.07-.02-.02-.04,.04v-.04l-.02,.02-.09-.02-.05-.05,.02-.05-.05-.02-.05,.02-.07,.25,.09,.02,.07-.07Zm4.13-4.31v.04l.04,.04,.05,.02,.02-.02v-.04l-.02-.02-.09-.02Zm-.87,.87v.36l.05,.05,.23-.13-.02-.09-.25-.22-.02,.02Zm.41-.2l-.23,.09-.04,.14,.09-.09,.11,.11,.14,.04-.07-.29Zm-1.33,1.44l-.09-.05-.18,.11,.02,.05,.07,.04,.16-.09,.02-.05Zm2.11-2.25l.02,.05,.09-.02,.09-.09,.07,.04,.09-.02-.2-.13-.16,.16Zm-3.86,4l.13-.02-.05-.09-.07-.04v.14Zm3.64-3.5l-.05-.09h-.11v.04l.09,.13,.07-.07Zm-4.76,4.72l.13-.16-.09-.02-.02,.02h-.04l-.09,.05,.02,.09,.09,.02Zm4.99-4.85l.04-.04-.09-.09h-.11l.04,.11,.13,.05v-.04Zm-.5,.22l-.05,.05v.07l.14-.14-.09,.02Zm-4.02,4.2l.02-.16-.22,.18,.04,.07h.07l.09-.09Zm-1.53,1.5l-.02-.09h-.04l-.04,.07,.05,.05,.04-.04Zm5.5-5.53l-.13,.16,.18-.11-.05-.05Zm-3.41,3.66l.22-.11,.07-.14-.11-.07-.14,.11-.04,.22Zm3.06-2.7l-.04-.07-.09-.02-.04-.04h-.04l-.02-.09-.09,.02-.02,.09,.27,.16,.05-.05Zm-1.01,.72l-.09,.02-.05,.05-.07-.04-.07,.04-.07,.18,.07,.04,.07-.07,.27,.16-.02-.34,.05-.02v-.07l-.05-.02-.04,.07Zm-3.59,3.59l-.02-.09-.14,.04-.04,.07,.02,.05h.07l.11-.07Zm2.49-2.63l.07,.14-.07,.04-.16-.02,.16-.16Zm2.85-2.74v.04l-.18,.07-.04,.22,.41-.38-.2,.05Zm-4.89,4.85l.13,.13h.07l.14,.14,.68-.58,.04-.18-.45,.49h-.11l-.09-.09,.05-.09-.14-.11-.32,.29Zm.7-.67l.02,.05,.09-.02,.02-.05-.07-.07-.05,.09Zm3.71-3.64h.04l.07-.07v-.04l-.05-.02-.07,.07,.02,.05Zm-.07,.18l-.11-.07-.05,.05v.07l.05,.02,.04,.07-.07,.22,.05,.16h.04l.02-.02,.04-.5Zm-.43,.58l-.02-.05-.05-.02-.07,.04v.04l.07,.07h.04l.04-.07Zm-4.69,4.58l.09,.02,.13-.13-.02-.02h-.04l-.04,.04-.13,.02v.07Zm3.1-3.14l-.07,.11,.07-.11Zm3.03-2.99l-.02,.05,.04,.04h.07v-.07l-.04-.04-.02,.02h-.04Zm.22-.18l.16,.02,.09-.05v-.04l-.04-.04-.22,.11Zm-4.9,4.98l.07,.04v-.04l-.05-.09-.04,.04,.02,.05Zm5.25-5.28l-.02,.09h.07l.02-.09h-.07Zm-6.6,6.6v.04l-.02-.02,.02-.02Zm-.09,.27l-.02-.05-.04-.04-.09,.05,.05,.05h.07l.02-.02Zm6.13-6.17h-.11l-.07,.07,.18,.5,.09-.49-.09-.09Zm-5.25,5.32l.02-.05-.02-.02h-.07v.04l-.02,.02,.09,.02Zm2.45-2.34l-.14,.07,.11,.18,.02,.02,.07-.07,.04-.47-.14,.11,.05,.16Zm2.02-2.16l-.09,.05,.09,.05,.09-.05-.09-.05Zm.45-.23h-.18l.13,.09,.18-.25-.13,.02v.14Zm-.05,1.1h-.07l-.18-.14-.02-.2-.11-.14,.04-.22-.23,.05,.02,.23h.11l.05,.09-.16,.16,.02,.2,.09,.05,.05-.05-.04-.07,.05-.05h.07l.27,.2,.09-.05,.18,.11,.18-.36-.41,.2Zm-4.96,3.95l.14-.04,.04-.07-.11-.07-.05,.02-.05,.09,.04,.07Zm5.53-5.57v.07h.04l.02,.02,.02-.02v-.04l-.07-.04Zm-2.06,2.92l.14,.07,.09,.13,.14,.04,.09-.05,.04,.14h.04l.02-.02v-.07l-.05-.09,.02-.02-.16-.05-.04-.07h-.07l-.02-.02-.02,.02-.18-.07-.07-.11v-.22l-.14-.14-.05,.09-.04-.04h-.04l-.02,.09h-.07l-.04,.22,.13,.05,.09-.05-.02-.05,.05-.05,.14,.29-.14-.04,.09,.16,.07-.04,.02-.09Zm-3.59,2.94v-.04l-.05-.02-.05,.05v.04l.11-.04Zm5.28-5.14l-.09-.05-.29,.22,.18,.11,.18-.11v-.04l.02-.02v-.11Zm-4.04,4.11l-.11-.14-.25,.22,.07,.04,.16-.13,.13,.02Zm.34-.02l-.04-.22-.23-.02,.23,.27,.04-.04Zm1.08-1.41l.02-.13h-.04l-.05,.09,.07,.04Zm2.9-2.97l-.02,.05,.02,.05,.05,.02,.11-.07,.02-.09-.09-.02-.09,.05Zm-3.23,3.3l.14,.04,.11,.22,.05,.02,.04-.04,.05,.09,.05,.02,.07,.22,.23,.05-.47-.58,.13-.05,.02,.02,.29-.11-.05,.16,.25-.18v-.04l.13-.05-.56-.13-.11-.11,.02,.16-.04,.04-.02,.09-.34,.16Zm-1.82,1.78l.07,.04,.16-.09v-.14l-.11,.14h-.07l-.05,.05Zm3.23-3.15l.04,.07,.04,.04,.09-.09-.04-.07-.09-.02-.04,.07Zm1.75-1.57l-.09-.05h-.04l-.04,.04-.02,.27,.02,.02h.04l.13-.27Zm-5.71,5.71l.02-.05-.02-.02-.09-.02v.07l.09,.02Zm5.57-5.21l.04-.11-.14-.04-.27,.09,.04,.11,.18,.07,.16-.13Zm-2.4,2.04l.09-.02,.05-.05-.05-.05-.09,.05v.07Zm-1.66,1.77v-.04l-.02-.02-.09-.02-.05,.05,.07,.04,.09-.02Zm4.58-4.58l-.04,.07,.07,.07,.04-.04,.02-.13-.09,.02Zm-1.59,1.62l-.02,.02v-.04l.02,.02Zm.49-.34l.02-.02-.05-.02-.09,.09,.13-.02v-.04Zm-3.66,3.62l-.09,.05,.07,.07,.14,.04,.14-.11-.25,.04-.02-.09Zm-.61,.97v-.11l-.05-.09-.11-.04-.05,.09,.05,.05h.07l.09,.09Zm1.41-1.51l-.07-.07h-.07l-.05,.05,.2,.02Zm-.38,.23l-.09,.05-.04,.07,.02,.02h.04l.05-.05,.02-.09Zm2.61-2.29l-.02,.02-.02-.02h.04Zm-.78,1.32l.13-.16-.29-.22v.14l.16,.02,.02,.02-.02,.2Zm-3.03,2.85l.02-.05-.04-.07-.02-.05-.04,.04v.14h.07Zm3.46-3.5l-.05-.02-.07,.04-.02,.05,.04,.11,.36,.04v-.04l-.25-.18Zm0,.72l.13-.23-.14-.25h-.14l-.07,.11,.2,.2,.04,.18Zm-.78,.49l-.04-.11-.09-.09-.09,.05,.22,.14Zm.11,.47l-.07-.11,.14-.14,.04-.14-.36,.07v.07l.07,.07,.04,.14,.14,.04Zm.22-.58l-.07-.07-.09,.05,.09,.09h.07v-.07Zm.85-.96l.05,.49,.13-.02,.11-.22-.14-.22-.14-.04Zm.56,1.06l.04-.11-.04-.07-.09,.02-.07-.04,.23-.41-.04-.11,.14-.22-.43-.25,.04,.18,.09,.09,.09,.34-.63,.34-.23-.05,.05,.31,.29-.04-.02-.13,.14-.07,.16,.23,.27-.02Zm-.99-.23l-.02-.09h-.07l-.04,.11,.05,.09,.07-.11Zm.41,.41v-.07l-.14-.04-.14,.07-.34-.09-.05,.05,.04,.14h.07l.14-.11,.07,.07,.36-.04Zm-.58,.43l-.04-.22-.11-.07h-.11l-.04,.11-.02-.02-.11,.11-.09,.02-.04,.07,.05,.05h.43l.05-.05Zm.4-.11v-.18h-.04l-.09,.05-.02,.09-.04,.04v.04l-.11,.04v.11l.09,.02,.05-.09h.04l.11-.11Zm.99-.67l-.02-.13-.07-.04-.02,.05,.02,.05,.09,.05Zm-.81,.81l-.02,.05,.04,.07,.05,.02,.09-.09-.02-.05-.07-.04-.07,.04Zm.18,.76l.04-.07-.07-.11,.2-.31h-.4l-.04-.07h-.07l-.04,.07,.09,.05,.02,.09,.07,.07-.07,.11,.05,.09,.22,.07Zm.52-1.39l.02,.05,.07,.04,.09-.02,.05-.05-.13-.09-.11,.07Zm-.11,1.26l.02-.05-.02-.05-.07-.04-.11,.07,.02,.05,.07,.04,.09-.02Zm.78-.13l-.11-.14-.14,.04-.45,.41v.11l.05,.05,.43-.47,.11,.04,.11-.04Zm.34-.31l.02-.09-.11-.11-.09,.02-.02,.09,.05,.09,.07,.04,.07-.04Zm-.22,.97l-.11-.22v-.22l-.16,.23,.2,.23,.07-.04Zm-.49,.27v-.04l-.04-.04-.09,.05,.02,.05,.05,.02,.05-.05Zm.9-.65l.05-.02v-.04l-.02-.02-.05-.02-.07,.04,.09,.05Zm-.72,1.08l-.04-.11-.13-.05,.11,.18h.04l.02-.02Zm1.3-1.44l-.04,.07,.04,.11,.05-.02,.02-.05v-.07l-.04-.04h-.04Zm-.85,1.17l.05-.09-.02-.05h-.04l-.05,.09,.02,.05h.04Z"/></g></g></g><g class="r"><circle class="i" cx="22.5" cy="39.5" r="8"/><circle class="i" cx="39.5" cy="39.5" r="8"/></g><g><circle class="g" cx="22.5" cy="38.5" r="8"/><circle class="g" cx="39.5" cy="38.5" r="8"/></g><g><circle class="v" cx="22.5" cy="38.5" r="8"/><circle class="u" cx="39.5" cy="38.5" r="8"/></g><line class="h" x1="32" y1="39" x2="30" y2="39"/><rect x="13" y="36" width="2" height="2"/><rect x="47" y="36" width="2" height="2"/></g></g></svg>