<svg width="27" height="20" viewBox="0 0 27 20" fill="none" xmlns="http://www.w3.org/2000/svg">
<path d="M14.2708 17.41H12.7217L12.5753 17.3856H12.3436L12.2216 17.349C12.0752 17.3368 11.9167 17.3246 11.7703 17.3002C11.5995 17.2757 11.4166 17.2635 11.2458 17.2269C11.0629 17.2025 10.8921 17.1537 10.7091 17.1293C9.97729 16.9828 9.26984 16.7753 8.57458 16.5311C8.15987 16.3846 7.74516 16.2137 7.34264 16.0306C7.29385 16.0062 7.24506 15.994 7.19627 15.9696L6.67179 16.3846C7.35484 16.7997 8.06229 17.1415 8.80634 17.4344C8.41602 18.2279 7.96471 18.9725 7.44022 19.6805C7.37924 19.6561 7.31825 19.6439 7.24506 19.6195C6.64739 19.4242 6.06191 19.2045 5.48863 18.9603C4.79338 18.6673 4.12252 18.3378 3.47606 17.9715C2.90278 17.642 2.3417 17.3002 1.79281 16.9217C1.57326 16.7753 1.3659 16.6166 1.14635 16.4579C1.09756 16.4212 1.06097 16.3846 1.06097 16.3114C1.06097 16.1405 1.03657 15.9818 1.02438 15.8109V15.7865L0.999981 15.5179V15.3104L0.975586 15.1395V14.8587C0.999981 14.5658 0.999981 14.2362 0.999981 13.9188C0.999981 13.6747 0.999981 13.4305 0.999981 13.1986V13.1742L1.02438 12.8202V12.7958C1.04877 12.576 1.06097 12.3563 1.08536 12.1366C1.10976 11.8436 1.14635 11.5384 1.19514 11.2455C1.24393 10.867 1.30492 10.5008 1.3781 10.1224C1.47568 9.64635 1.58546 9.17027 1.69523 8.6942C1.82941 8.1815 1.98797 7.66881 2.15874 7.16832C2.37829 6.54576 2.61004 5.93541 2.89058 5.33726C3.03695 5.00767 3.19552 4.67808 3.35408 4.34849C3.70781 3.64049 4.09813 2.94468 4.52504 2.2733C4.61042 2.13902 4.708 2.00474 4.79338 1.85826C4.81778 1.80943 4.85437 1.78502 4.90316 1.7606C5.42765 1.51646 5.96433 1.29673 6.50102 1.10142C6.97672 0.930523 7.46462 0.771832 7.95252 0.625348C8.53799 0.454449 9.12347 0.320172 9.72114 0.210309C9.79433 0.198102 9.87971 0.185894 9.95289 0.173687C10.0261 0.16148 10.0383 0.173688 10.0749 0.234723C10.2944 0.649762 10.5018 1.0648 10.6847 1.49205C10.6847 1.49205 10.6847 1.51646 10.7091 1.54088C10.7945 1.54088 10.8799 1.52867 10.9775 1.51646C11.0385 1.51646 11.1117 1.49205 11.1726 1.47984C11.258 1.46763 11.3434 1.45543 11.4288 1.44322C11.5386 1.44322 11.6483 1.43101 11.7581 1.4188H11.8801L11.9655 1.39439H12.0874L12.2094 1.36998H12.3436L12.49 1.34556H12.6851L12.9047 1.32115H14.4659L14.6611 1.34556H14.8075L14.9416 1.36998H15.0636L15.1856 1.39439H15.271L15.3929 1.4188C15.5393 1.44322 15.6979 1.45543 15.8443 1.47984C15.9662 1.49205 16.076 1.50425 16.198 1.51646C16.259 1.51646 16.32 1.52867 16.3809 1.54088C16.4541 1.54088 16.4541 1.54088 16.4907 1.49205C16.5517 1.36998 16.6005 1.24791 16.6493 1.12584C16.7957 0.832867 16.942 0.527692 17.0884 0.234723C17.1128 0.185895 17.1372 0.173687 17.186 0.185894C17.6983 0.283551 18.2228 0.393414 18.7228 0.515485C19.3693 0.686383 20.0036 0.881695 20.6378 1.11363C21.1867 1.30894 21.7234 1.54088 22.2601 1.78502C22.3089 1.80943 22.3333 1.83384 22.3577 1.87047C22.5406 2.15123 22.7114 2.43199 22.8944 2.71275C23.1749 3.16441 23.4311 3.62828 23.6872 4.10435C23.9921 4.7025 24.2849 5.30064 24.541 5.9232C24.7606 6.46031 24.9679 6.99742 25.1387 7.55894C25.3582 8.25474 25.5534 8.96275 25.6998 9.68297C25.8096 10.1835 25.8949 10.6839 25.9681 11.1966C26.0047 11.4896 26.0413 11.7948 26.0657 12.0878C26.0779 12.2464 26.0901 12.4173 26.1023 12.576V12.6004L26.1267 12.869V13.2474L26.1511 13.2718C26.1511 13.3573 26.1511 13.4305 26.1511 13.516C26.1511 13.8334 26.1511 14.1629 26.1633 14.4803V14.5047C26.1511 14.7001 26.1389 14.8832 26.1389 15.0785C26.1389 15.1151 26.1389 15.1517 26.1389 15.1761V15.4081L26.1145 15.5546V15.579L26.0779 16.1039V16.1283C26.0657 16.2259 26.0535 16.3236 26.0413 16.4335C26.0413 16.4579 26.0047 16.4945 25.9803 16.5067C25.7974 16.641 25.6144 16.7753 25.4192 16.9095C24.846 17.3124 24.2483 17.6908 23.6384 18.0326C23.1871 18.2889 22.7358 18.5209 22.2723 18.7284C21.7356 18.9725 21.1989 19.2045 20.65 19.3998C20.3573 19.5096 20.0524 19.6073 19.7596 19.7049C19.662 19.7416 19.6499 19.7294 19.6011 19.6439C19.2229 19.119 18.8814 18.5697 18.5643 17.996C18.4789 17.8495 18.4057 17.6908 18.3203 17.5443C18.3203 17.5321 18.3081 17.5077 18.2959 17.4833C19.04 17.1903 19.7474 16.8485 20.4427 16.4335L19.9182 16.0184C19.7474 16.0917 19.5767 16.1649 19.4059 16.2381C18.8326 16.4945 18.2349 16.702 17.6251 16.8851C17.1738 17.0194 16.7103 17.1293 16.2346 17.2147C16.0516 17.2513 15.8564 17.2757 15.6735 17.3002C15.5637 17.3124 15.4417 17.3368 15.332 17.3612C15.1856 17.3734 15.0392 17.3856 14.8929 17.3978C14.8319 17.3978 14.7709 17.41 14.7099 17.4222H14.5757L14.4415 17.4466H14.2464L14.2708 17.41ZM9.24544 8.32799C9.24544 8.32799 9.19665 8.32799 9.17226 8.34019C9.09907 8.34019 9.03809 8.3524 8.9649 8.36461C8.4892 8.47447 8.09888 8.71861 7.78175 9.08482C7.55 9.35338 7.39143 9.64635 7.28166 9.97594C7.20847 10.2079 7.14748 10.4398 7.14748 10.6839V11.099C7.14748 11.099 7.14748 11.1844 7.14748 11.2333C7.20847 11.6971 7.35484 12.1244 7.62318 12.5028C7.90373 12.9056 8.26965 13.1986 8.74535 13.3695C8.87952 13.4183 9.02589 13.4671 9.17226 13.4671H9.59917C9.68455 13.4671 9.75773 13.4549 9.84312 13.4305C10.453 13.284 10.9043 12.9178 11.2336 12.3929C11.4898 11.9901 11.6239 11.5384 11.6483 11.0624C11.6727 10.6351 11.6239 10.2323 11.4654 9.84166C11.2336 9.24351 10.8433 8.79185 10.2578 8.51109C10.0383 8.40123 9.80652 8.34019 9.56258 8.34019C9.55038 8.34019 9.52598 8.32799 9.51379 8.32799C9.4284 8.32799 9.33083 8.32799 9.24544 8.32799V8.32799ZM20.0158 11.0746V10.6717C20.0158 10.6717 20.0158 10.5985 20.0036 10.5619C19.967 10.2201 19.8694 9.89049 19.7108 9.58531C19.5035 9.17027 19.1985 8.84068 18.796 8.60875C18.5277 8.45006 18.2349 8.34019 17.9056 8.34019C17.8934 8.34019 17.8812 8.32799 17.869 8.32799C17.7714 8.32799 17.6861 8.32799 17.5885 8.32799C17.5031 8.34019 17.4055 8.3524 17.3201 8.36461C16.8688 8.46226 16.4785 8.6942 16.1736 9.0482C15.7589 9.49986 15.5515 10.0492 15.4905 10.6595C15.4539 11.0624 15.4905 11.4652 15.6369 11.8436C15.8321 12.4051 16.1736 12.869 16.6859 13.1864C16.942 13.3451 17.2348 13.4549 17.5397 13.4794H17.9666C17.9666 13.4794 18.0398 13.4794 18.0764 13.4794C18.5277 13.4061 18.9058 13.1986 19.2229 12.8812C19.4669 12.6371 19.662 12.3441 19.7962 12.0267C19.9182 11.7337 19.9914 11.4286 20.0036 11.1112V11.0868L20.0158 11.0746Z" fill="#C1C1D1"/>
</svg>
