<svg width="26" height="26" viewBox="0 0 26 26" fill="none" xmlns="http://www.w3.org/2000/svg">
<path fill-rule="evenodd" clip-rule="evenodd" d="M13.11 1C6.03553 1 0.302734 6.7373 0.302734 13.8174C0.302734 19.4814 3.97416 24.2788 9.06049 25.9756C9.70695 26.0977 9.9387 25.6948 9.9387 25.353C9.9387 25.0479 9.9387 24.2422 9.9265 23.168C6.36486 23.937 5.60861 21.4468 5.60861 21.4468C5.02314 19.9697 4.18152 19.5669 4.18152 19.5669C3.02276 18.7734 4.2669 18.7856 4.2669 18.7856C5.54763 18.8711 6.23069 20.104 6.23069 20.104C7.37724 22.0571 9.23125 21.4956 9.96309 21.166C10.0851 20.3359 10.4144 19.7744 10.7803 19.457C7.93833 19.1396 4.94996 18.0288 4.94996 13.1216C4.94996 11.7178 5.45005 10.5825 6.26728 9.6792C6.1331 9.34961 5.694 8.05566 6.38926 6.28565C6.38926 6.28565 7.46263 5.94385 9.91431 7.604C10.9389 7.32324 12.0367 7.17676 13.1222 7.17676C14.2078 7.17676 15.3056 7.32324 16.3302 7.604C18.7696 5.94385 19.843 6.28565 19.843 6.28565C20.5383 8.05566 20.0992 9.34961 19.965 9.6792C20.7822 10.5703 21.2823 11.7178 21.2823 13.1216C21.2823 18.041 18.2939 19.1274 15.4397 19.4448C15.9032 19.8355 16.3058 20.6289 16.3058 21.813C16.3058 23.522 16.2936 24.9136 16.2936 25.3286C16.2936 25.6704 16.5253 26.0732 17.1718 25.939C22.2581 24.2422 25.9173 19.4448 25.9173 13.7808C25.9173 6.70068 20.1845 0.963379 13.11 0.963379V1Z" fill="#C1C1D1"/>
</svg>
