<svg width="29" height="17" viewBox="0 0 29 17" fill="none" xmlns="http://www.w3.org/2000/svg">
<path d="M8.49767 16.8618C4.13099 16.8618 0.581533 13.3218 0.569336 8.93945C0.569336 4.55713 4.11878 0.992676 8.48546 0.992676C12.8643 0.992676 16.4138 4.54492 16.426 8.93945C16.426 13.3096 12.8765 16.8618 8.49767 16.8618Z" fill="#C1C1D1"/>
<path d="M25.1598 8.92745C25.1598 10.5388 24.9158 12.1013 24.2938 13.5905C24.001 14.2863 23.6351 14.9211 23.1106 15.4826C22.7325 15.8855 22.3056 16.2028 21.7811 16.3737C21.0736 16.5935 20.415 16.4714 19.8051 16.0808C19.2318 15.7146 18.8049 15.2019 18.4512 14.6403C17.8779 13.7248 17.5486 12.7116 17.329 11.6618C17.0973 10.5876 17.0241 9.50118 17.0607 8.40255C17.1217 6.87667 17.4022 5.38741 18.0487 3.99581C18.3414 3.37325 18.6951 2.78731 19.1952 2.28683C19.5856 1.8962 20.0247 1.59102 20.5735 1.45675C21.2566 1.28585 21.8909 1.43233 22.4641 1.82296C23.0618 2.21358 23.4887 2.7629 23.8547 3.36105C24.3791 4.23995 24.6963 5.20431 24.9036 6.20528C25.0988 7.1086 25.1842 8.02413 25.1842 8.95187L25.1598 8.92745Z" fill="#C1C1D1"/>
<path d="M25.5986 8.8054C25.6352 8.06078 25.6718 7.20628 25.7328 6.364C25.8182 5.33861 25.9523 4.31322 26.2695 3.32445C26.3549 3.05589 26.4768 2.79955 26.5988 2.5554C26.6598 2.44554 26.7452 2.33568 26.8428 2.25023C27.0013 2.10374 27.2087 2.09154 27.355 2.25023C27.477 2.38451 27.599 2.5432 27.6844 2.70189C27.9283 3.17796 28.0503 3.69066 28.1601 4.20335C28.3308 5.03343 28.4284 5.88792 28.4894 6.73021C28.5748 7.90208 28.587 9.08617 28.5382 10.258C28.5016 11.2468 28.404 12.2356 28.2333 13.2121C28.1235 13.8347 27.9893 14.4573 27.721 15.0432C27.6478 15.2141 27.5502 15.3728 27.4282 15.5071C27.2087 15.7634 26.9769 15.7512 26.7574 15.5071C26.5622 15.2873 26.4402 15.0188 26.3427 14.7502C26.1353 14.1765 26.0011 13.5906 25.9158 12.9924C25.8182 12.3332 25.745 11.6741 25.6962 11.0149C25.6474 10.3069 25.6352 9.61107 25.5986 8.7932V8.8054Z" fill="#C1C1D1"/>
</svg>
