<svg width="24" height="23" viewBox="0 0 24 23" fill="none" xmlns="http://www.w3.org/2000/svg">
<g clip-path="url(#clip0_1801_131)">
<path d="M0 14.6529C0 18.9274 5.37103 22.3908 12 22.3908C18.629 22.3908 24 18.9274 24 14.6529V11.4625C24 7.18806 18.629 3.72461 12 3.72461C5.37103 3.72461 0 7.1922 0 11.4667V14.657V14.6529Z" fill="#666666"/>
<path d="M12 19.2044C18.6274 19.2044 24 15.74 24 11.4664C24 7.1929 18.6274 3.72852 12 3.72852C5.37258 3.72852 0 7.1929 0 11.4664C0 15.74 5.37258 19.2044 12 19.2044Z" fill="url(#paint0_linear_1801_131)"/>
<path d="M0 10.9283C0 15.2028 5.37103 18.6662 12 18.6662C18.629 18.6662 24 15.2028 24 10.9283V7.73793C24 3.46759 18.629 0 12 0C5.37103 0 0 3.46759 0 7.74207V10.9324V10.9283Z" fill="#666666"/>
<path d="M12 15.4798C18.6274 15.4798 24 12.0154 24 7.74184C24 3.4683 18.6274 0.00390625 12 0.00390625C5.37258 0.00390625 0 3.4683 0 7.74184C0 12.0154 5.37258 15.4798 12 15.4798Z" fill="url(#paint1_linear_1801_131)"/>
<path d="M11.2308 7.39897L11.1439 7.51897L11.2308 7.39897ZM10.8377 7.42794L10.635 7.61001H10.8543L10.9494 7.56863L10.8336 7.42794H10.8377ZM8.81427 12.05L8.79359 11.901L8.8391 11.8597L8.86807 11.9176L8.926 11.9879L8.90531 12.0459H8.81014L8.81427 12.05ZM15.7122 11.8555L15.5426 11.6776L15.7205 11.7231L15.7825 11.8307L15.7619 11.8514H15.7122V11.8555ZM8.09014 11.5907L7.966 11.5783L7.95359 11.5038L8.08186 11.5162L8.10669 11.5328L8.09014 11.5907ZM16.3163 11.5121L16.2832 11.4583L16.3453 11.359H16.395L16.4281 11.4086L16.366 11.5079H16.3163V11.5121ZM15.4184 11.4583L15.3439 11.4459L15.3108 11.3921L15.4308 11.3259L15.4846 11.359V11.4004L15.4226 11.4583H15.4184ZM8.83083 11.3341L8.75221 11.2845L8.81014 11.1852L8.96324 11.2141L9.05014 11.301L9.06255 11.4169L8.93014 11.33L8.83497 11.3383L8.83083 11.3341ZM7.29152 11.2514L7.20876 11.2017L7.32876 11.1355L7.38255 11.1686L7.41152 11.2224L7.39083 11.2431L7.29565 11.2514H7.29152ZM8.1729 10.9452V10.9038L8.23496 10.8459L8.30945 10.8583V10.8955L8.1729 10.9452ZM7.51083 10.97L7.38255 10.9576L7.37428 10.8831L7.53979 10.85L7.58531 10.8086H7.6391L7.66393 10.821L7.50669 10.9659L7.49841 10.9245L7.47772 10.9493L7.50669 10.9659L7.51083 10.97ZM6.98945 10.7714L6.90669 10.7217L6.94807 10.6431H6.99772L7.03497 10.73L6.98945 10.7714ZM16.0267 11.1148L15.7288 10.8872L15.9232 10.6307L15.9481 10.8541L16.1177 11.0693L16.0226 11.1148H16.0267ZM16.6391 10.639L16.5067 10.5893L16.5977 10.5438L16.6763 10.5562L16.7012 10.5728V10.61L16.635 10.6348L16.6391 10.639ZM14.7025 10.61L14.6032 10.5769L14.5701 10.5231L14.7108 10.4362L14.8101 10.4693L14.8391 10.5231L14.8226 10.581L14.6984 10.61H14.7025ZM8.41703 10.5769L8.3591 10.5066L8.42117 10.4072L8.49152 10.3824L8.64876 10.4486L8.60738 10.5272L8.41703 10.5769ZM9.96048 10.49L9.76186 10.4652L9.65428 10.3948L9.77014 10.3286L9.80738 10.4238L10.1467 10.3617L9.96048 10.4859V10.49ZM7.51497 10.4817L7.486 10.4279L7.52738 10.3493L7.71772 10.2997L7.75496 10.3907L7.61428 10.4776H7.5191L7.51497 10.4817ZM9.0791 10.5107L8.97979 10.4776L9.046 10.4197L9.14117 10.4114L9.27359 10.25L9.29014 10.4031L9.0791 10.5107ZM15.0377 10.9286L14.955 10.879L14.9426 10.7631L15.5053 10.2914L15.6998 10.2417L15.8653 10.3824L15.7205 10.4321L15.5715 10.4031L15.0377 10.9328V10.9286ZM17.4005 10.3948L17.3384 10.2872L17.3798 10.2086H17.4294L17.4874 10.2417L17.4957 10.3204L17.4791 10.3783L17.4088 10.4031L17.4005 10.3948ZM14.2846 10.7672L13.9826 10.7093L13.8957 10.6224L13.9826 10.5024L13.875 10.4321L13.8419 10.341L13.7094 10.2914L13.7508 10.2128H13.846L13.9039 10.279L14.446 10.2459L14.2101 10.581L14.3219 10.6886L14.2805 10.7672H14.2846ZM8.51221 10.2624L8.38393 10.2541L8.40462 10.2293V10.1921H8.49979L8.52462 10.2045L8.50807 10.2624H8.51221ZM10.1757 10.1507L10.1508 10.1341L10.1922 10.0555L10.3081 9.98932L10.2915 10.0845L10.2253 10.1466H10.1757V10.1507ZM14.057 10.1341L13.9826 10.1217L13.9246 10.0514L13.9412 9.99346L14.0363 9.94794L14.1398 9.98104L14.1688 10.0348L14.057 10.1383V10.1341ZM9.86531 10.0224L9.766 9.98932L9.83221 9.93139L9.95634 9.9438L9.98531 9.96035V9.99759L9.86531 10.0224ZM16.2046 10.0928L16.1053 10.0597L16.0184 9.97277L16.035 9.87759L16.155 9.85277L16.3163 9.95621L16.2998 10.0514L16.2046 10.0928ZM12.7412 9.84863L12.7784 9.73277L12.9232 9.72035L13.0805 9.78656L13.155 10.01L13.0888 10.0721L12.5012 10.1093L12.4184 10.0597L12.4598 9.98104L12.5839 9.95208L12.7163 9.82794L12.7412 9.84449V9.84863ZM13.4322 10.0845L13.3081 10.0721L13.2915 9.95621L13.4363 9.9107V9.87346L13.4777 9.83208L13.4901 9.73691L13.6101 9.6707H13.6598L13.6763 9.8569L13.5439 9.98104H13.4943L13.4322 10.0845ZM10.5232 9.71208L10.5894 9.65001H10.6846L10.7922 9.71208H10.5191H10.5232ZM9.4929 9.85277L9.39359 9.8238L9.71221 9.57139L9.87772 9.71208L9.70807 9.7038L9.50117 9.84863L9.4929 9.85277ZM12.5012 9.89415L12.2984 9.86932L12.2322 9.72035L12.1288 9.65001L12.1163 9.57552L12.6005 9.46794L12.5674 9.62104L12.3894 9.78242L12.5012 9.89001V9.89415ZM10.3039 9.69552L9.95221 9.43483H10.2708L10.3453 9.65415L10.2998 9.69552H10.3039ZM13.486 9.48449L13.6763 9.39759L13.8791 9.42242L13.8874 9.4969L13.3991 9.56725L13.2957 9.4969L13.1094 9.62104L13.0143 9.62932L12.9481 9.48035L13.0143 9.42242L13.4901 9.48449H13.486ZM9.286 9.45966L9.18669 9.42656L9.15359 9.37277L9.1991 9.33139L9.286 9.41828V9.45553V9.45966ZM8.3591 9.51759L8.23083 9.50518L8.19772 9.41415L8.31359 9.34794H8.36324L8.38393 9.32311L8.51221 9.33553L8.3591 9.51346V9.51759ZM12.3026 9.39759L11.9881 9.26932L12.1039 9.20311L12.2363 9.29001L12.2984 9.39759H12.3026ZM9.00048 9.74932L9.14945 9.74104L9.70393 9.19484L9.67496 9.38518L8.81014 10.0472L8.5991 9.9107L8.50393 9.91897L8.31772 9.79897L8.72324 9.46794L8.93014 9.56725L8.86807 9.66242L9.00048 9.74932ZM12.6377 9.33553L12.5053 9.24863L12.6212 9.18656L12.7288 9.25691L12.737 9.33139H12.6419L12.6377 9.33553ZM14.9674 9.33139L14.8639 9.29828L14.835 9.24449L14.9715 9.15759L15.1536 9.24035L15.0874 9.29828L14.9674 9.32725V9.33139ZM13.1963 9.19897L13.1136 9.11208L13.1467 8.99621H13.246L13.2791 9.08311L13.1922 9.20311L13.1963 9.19897ZM9.22393 9.08725L9.19083 9.03346L9.2529 8.93828L9.36048 9.00863L9.34393 9.06656L9.22393 9.09139V9.08725ZM14.955 9.05001L14.8226 9.00035L14.7936 8.94656L14.8101 8.88863L14.9136 8.92173L14.955 9.05001ZM8.73152 9.12863L8.67359 9.05828L8.95083 8.85139L8.94255 9.02104L8.83083 9.12449H8.73565L8.73152 9.12863ZM12.7039 8.78932V8.58242L12.6791 8.56587H12.4557L12.4391 8.41277L12.8612 8.61139L12.7081 8.78932H12.7039ZM9.33565 8.5038L9.23221 8.4707L9.38945 8.33001L9.57152 8.41277L9.53841 8.52863L9.86945 9.05828L9.7991 9.08311L9.72048 9.0707L9.39359 8.78932L9.3729 8.81415H9.32324L8.98393 8.66932L8.8929 8.75208L8.76462 8.73966L8.83497 8.4707L8.90531 8.44587L8.97979 8.45828L8.9591 8.51621L9.04186 8.56587L9.166 8.57828L9.18669 8.55759L9.19496 8.59484L9.24048 8.55346L9.26531 8.57001L9.45152 8.48311L9.42669 8.46656L9.33565 8.50794V8.5038ZM13.3039 8.8307L13.2336 8.64449L12.9439 8.45415L13.0267 8.33415L13.2253 8.32173L13.4529 8.57415L13.3081 8.8307H13.3039ZM9.67083 8.58242L9.69565 8.3507L9.87772 8.22656L10.035 8.29277L9.95221 8.45001L9.67083 8.58242ZM13.9122 8.69415L13.7798 8.19346L13.9826 8.21828L14.2019 8.42932L14.0819 8.66518L13.9122 8.69415ZM13.5936 8.28035H13.097L13.0391 8.16449L13.0598 8.10656L13.1508 8.06104L13.2253 8.07346L13.5894 8.23897V8.27621L13.5936 8.28035ZM13.7343 9.06242L14.5494 8.64449L14.3881 8.2969L14.2557 8.21001L14.1853 8.0238L14.8019 8.24725L14.6322 8.48311L14.6943 8.59484L14.4212 9.05001L14.5246 9.08311L14.6446 9.05415L14.7025 9.12449L14.6653 9.24035L14.3012 9.28173L14.0529 9.05415L13.8667 9.14104L13.9039 9.26932L13.515 9.33553L13.4032 9.02104L13.7301 9.05415L13.7343 9.06242ZM9.74117 8.12725L9.72462 7.97828L9.82807 8.00725L9.91496 8.09828L9.74531 8.12725H9.74117ZM11.6653 8.07759L11.566 8.04449L11.6281 7.94518H11.6777L11.6653 8.07759ZM11.715 8.69828L11.6363 8.68587L11.4667 8.4707L11.2639 8.44587L11.7108 8.24311L11.7274 8.14794L11.7729 8.10656L11.7274 7.94104L11.8888 8.04449L12.6626 8.12311L12.497 8.19346V8.2307L12.1784 8.44173L12.2322 8.26794L11.8515 8.40863L11.8267 8.39208L11.6612 8.46242L12.3646 9.0169L12.0419 8.9838L11.9177 8.76449L11.8391 8.75208L11.7563 8.66104L11.7108 8.70242L11.715 8.69828ZM12.046 7.97828L12.0377 7.9038L12.1536 7.83759L12.2363 7.88725L12.1701 7.94932L12.046 7.97415V7.97828ZM11.5867 7.85415L11.5619 7.83759L11.3963 7.65966L11.5826 7.57277L11.4874 7.41139L11.6694 7.28725L11.6777 7.77966L11.5867 7.86242V7.85415ZM12.4846 7.04311L12.5467 6.9438L12.7577 7.08449L12.7826 7.30794L12.8943 7.41552L13.1467 7.47346L13.1674 7.45277L13.1922 7.46932H13.2874L13.3453 7.53552L13.5729 7.5769L13.5522 7.59759L13.635 7.68449L13.6474 7.75897L13.6267 7.7838H13.577L13.5108 7.63897L13.395 7.70518L13.1922 7.68035L13.0557 7.55621L12.8529 7.49415L12.8363 7.58932L12.7453 7.6307L12.6046 7.46932L12.8074 7.49415L12.5757 7.20863L12.5094 7.26656L12.5384 7.32035L12.4226 7.38656L12.2446 7.34104L12.2653 7.11346H12.3605L12.377 7.01001H12.4267L12.4846 7.04311ZM13.1219 7.00173L13.0681 6.96863L13.0101 6.89828L13.0515 6.81966L13.1798 6.83208L13.2377 6.90242L13.126 7.00587L13.1219 7.00173ZM11.0405 6.50104H11.0901L11.3343 6.65415L11.566 6.52587L11.835 6.90656L11.9715 6.81966L12.1412 6.82794L12.2032 6.93553L12.0419 7.25001L12.1163 7.47346L13.0391 7.79208L13.0763 7.88725L12.8612 7.95759L12.8074 7.92449H12.7122L12.6915 7.98656H12.5177L12.4681 7.77553L12.1867 7.65966H12.0874L11.8598 7.83346H11.9094L11.9343 7.84587L11.9426 7.88311L11.9219 7.9038L11.7977 7.92863L11.8143 7.8707L11.835 7.85001L11.7646 7.87484L11.9632 7.44863L11.8763 7.35759L11.7563 7.38656L11.7315 7.37001V7.33277H11.777L11.7977 7.30794L11.7812 7.15897L11.657 7.14656L11.5205 7.23346L11.3715 7.24173L11.2391 7.40311L11.2598 7.59346L11.3674 7.6638L11.4005 7.75897L11.355 7.80035L11.086 7.6307L11.1481 7.53139L11.0612 7.65139L11.1936 7.73828L11.2101 7.85415L11.0901 7.91621L11.1026 7.99484L11.1812 8.04449L11.2929 7.94104L11.417 7.91208L11.4543 8.04449L11.4088 8.08587L11.4874 8.09828L11.4957 8.17277L11.4501 8.21415L11.3177 8.16449L11.0736 8.38794L11.1026 8.44173L11.0363 8.49966L11.1439 8.57001L11.1232 8.59484L11.177 8.62794L11.2929 8.56173L11.3963 8.59484L11.3632 8.74794L11.2929 8.77277L11.3384 8.94242L11.4419 8.97553L11.4129 8.95897L11.5826 8.88863L11.715 8.97553L11.5494 9.08311L11.5288 9.3107L11.4377 9.39346H11.3426L11.3301 9.32311L11.2101 9.34794L11.1688 9.42656L10.8791 9.48449L10.6888 9.32311L10.4239 9.40173L10.5108 9.28173L10.8212 9.16587L10.9246 8.98794L10.995 8.96311L10.9494 8.79346L10.875 8.78104L10.8005 8.80587L10.8377 8.8969L10.7715 8.95483L10.6391 8.90932L10.5936 8.9507L10.5853 9.08311L10.5191 9.14104L10.4363 9.09139L10.3826 8.84725L10.515 8.68587L10.3991 8.74794L10.246 8.72311L10.155 8.80173L10.2584 8.83484L10.2915 8.93001L10.2212 8.95483L10.2129 9.12449L9.86117 9.28173L9.9191 9.14518H10.0929L10.1508 8.80587L10.0184 8.75621L9.96048 8.68587L10.0763 8.6238L10.2088 8.7107L10.3494 8.66104L10.5026 8.69001L10.5729 8.66518L10.5977 8.68173L10.7053 8.54104L10.6143 8.4169L10.4488 8.48725L10.3163 8.43759L10.5067 8.3507L10.515 8.21828L10.4032 8.1107H10.3536L10.1963 8.25553L9.99359 8.2307L10.0308 8.11484L10.1674 8.02794L10.1839 7.97001L10.0639 7.78794L10.2874 7.58518H10.4612V7.55208L10.5026 7.5107L10.126 7.47759L9.74945 7.86242L9.73703 7.53966L9.66255 7.52725L9.60462 7.4569L9.62117 7.36173L9.53014 7.23759L9.42669 7.20449L9.44324 7.14656H9.54255L9.57152 7.19621L10.006 7.12587L9.86945 7.41966L9.92738 7.49001L10.0722 7.44449L10.1591 7.32449L10.2998 7.27484L10.5398 7.42794L10.7301 7.37828L10.606 7.37001L10.4405 7.22932L10.5232 7.10932L11.0157 7.07621L11.1729 6.93553V6.72863L11.0032 6.51346L11.0405 6.50104ZM10.3991 6.44311L10.2998 6.41001L10.2708 6.35621L10.3867 6.29001L10.5191 6.33966L10.5026 6.39759L10.4074 6.44311H10.3991ZM8.95083 6.44311L8.87634 6.4307L8.84324 6.3769L8.85979 6.31897L8.95083 6.27759L9.02945 6.29001L9.03772 6.36449L8.94669 6.44725L8.95083 6.44311ZM12.0129 6.4307L12.0791 6.37277L12.1991 6.3438L12.2405 6.26518L12.315 6.27759L12.3274 6.35208L12.2529 6.3769L12.3191 6.73277L11.9301 6.58794L11.8391 6.6707L11.7357 6.63759L11.8143 6.44311L11.9053 6.39759L12.0088 6.4307H12.0129ZM14.1439 6.30656L14.2598 6.20311L14.3343 6.21553L14.3136 6.23621V6.27346L14.1439 6.30656ZM7.73014 6.4307L7.67634 6.39759L7.91634 6.1369L8.06117 6.12863L8.19359 6.17415L8.17703 6.26932L8.23496 6.33966L8.16876 6.40173L7.726 6.4307H7.73014ZM11.6488 6.33966L11.5453 6.30656L11.5163 6.25277L11.7522 6.12035L11.8805 6.17001L11.8639 6.22794L11.657 6.33553L11.6488 6.33966ZM8.37152 6.38518L8.36324 6.3107L8.4791 6.24449L8.49152 6.11208L8.63221 6.06656L8.64876 6.21553L8.47083 6.38104H8.37152V6.38518ZM7.73841 6.2569H7.56876L7.39497 6.03346L7.77979 5.93001L7.61428 6.20725L7.74255 6.2569H7.73841ZM8.11497 6.04173L8.06117 6.00863L8.1191 5.87208L8.806 5.8638L8.81841 5.94242L8.40048 5.98794L8.34669 5.95484L8.22255 5.97966L8.206 6.03759H8.10669L8.11497 6.04173ZM7.52324 5.91346L7.28738 5.79759L7.37841 5.75621L7.46117 5.80587L7.5191 5.91346H7.52324ZM7.78393 5.83897L7.70531 5.78932L7.726 5.73139H7.77566L7.8791 5.79759L7.78807 5.84311L7.78393 5.83897ZM13.1053 5.84311L12.9977 5.77277V5.73553L13.0888 5.69001L13.1632 5.70242L13.1963 5.75621L13.155 5.83484H13.1053V5.84311ZM8.24324 5.7107L8.16462 5.66104L8.18117 5.56587H8.27634L8.24324 5.71484V5.7107ZM14.8308 5.80173L14.5784 5.7438L14.5163 5.63208L14.8722 5.51621L15.075 5.54104L15.0419 5.6569L14.835 5.80173H14.8308ZM6.90669 5.64863L6.83221 5.63621L6.79497 5.54104L6.93979 5.49553L7.01841 5.54518L6.90669 5.64449V5.64863ZM9.56738 5.54104L9.48462 5.49139L9.50117 5.43346H9.55497L9.6129 5.54104H9.56324H9.56738ZM13.875 5.63621L13.8212 5.39208L14.1357 5.31346L14.115 5.54104L14.2805 5.68173L14.3301 5.88863L14.5908 6.02104H14.6901L15.2322 5.76863L15.0294 6.15759L14.7729 6.06242L14.657 6.12449L14.2639 5.94242L14.1646 5.9507L14.0984 6.00863L14.1563 6.08311L14.0901 6.14104L13.9577 6.09139L13.9081 5.88449L14.1108 5.70242L14.0281 5.61139L13.8791 5.6238L13.875 5.63621ZM13.4239 5.54104L13.035 5.39621L13.0515 5.30104L13.1715 5.27208L13.2046 5.36725H13.2584L13.3122 5.39621L13.4363 5.40863L13.4943 5.47897L13.4281 5.54104H13.4239ZM6.6129 5.40863L6.60048 5.2969L6.69152 5.21415L6.766 5.22656L6.79083 5.24311L6.75359 5.35897L6.6129 5.40863ZM7.15083 5.37139L7.006 5.17277L7.18807 5.25553L7.22117 5.34656L7.42807 5.44587L7.56462 5.57001L7.31634 5.54932L7.19634 5.36725H7.14669L7.15083 5.37139ZM14.057 5.25139L13.9288 5.20173L14.0446 5.13553L14.177 5.18518L14.057 5.25139ZM7.62669 5.22656L7.58945 5.09828L7.94945 5.22242L7.81703 5.3838V5.21415L7.62255 5.22656H7.62669ZM6.18669 5.17277L6.10393 5.12311V5.08587L6.22393 5.09828L6.23221 5.13553L6.18669 5.1769V5.17277ZM9.31497 6.38518L9.14945 6.03759L9.39772 5.85139L9.43496 5.73553L10.4198 5.70656L10.3122 5.63621H9.81565L9.73703 5.57828L10.1632 5.43759L10.0639 5.19759L10.1508 5.08173L10.2129 5.22656L10.3205 5.2969H10.3701L10.486 5.22656L10.6391 5.25553L10.5522 5.37552L10.6846 5.46242L10.6929 5.7438L10.966 5.95484L11.1315 6.09552L11.2474 6.02932L11.3798 6.07897L11.1853 6.12863L11.2432 6.16173V6.19897L11.2722 6.21553L11.1894 6.37277L11.0239 6.44311L11.0074 6.50104L10.9908 6.55897L10.875 6.62104L10.9453 6.80725L10.8543 6.89001L10.726 6.87759L10.7343 6.91483L10.6391 6.99759L10.5191 7.02242L10.3867 6.97277L10.3246 6.82794L10.1922 6.74104L10.395 6.59621L10.7881 6.56725L10.8377 6.52587L10.8253 6.45139L10.9163 6.36863L10.8915 6.35208L10.9536 6.25277L11.0446 6.21139L10.9867 6.14104L10.966 6.16173L10.1715 6.1369L10.217 6.09552H10.3122L10.3743 5.99208L10.2584 5.84725L10.0432 5.91759L9.90669 6.21139L9.93152 6.22794L10.0557 6.24035L10.1177 6.34794L10.0639 6.52173L9.83221 6.69139L9.77841 6.65828L9.69152 6.77415H9.46807L9.22393 7.03484L9.26945 7.20449L9.22807 7.28311L9.35634 7.53966L9.21979 7.62656L9.02945 7.26242L9.06669 7.14656L8.87221 7.19621L8.806 7.25415L7.94945 6.6707L7.99083 6.59208H8.086L8.15221 6.52173L8.32186 6.49277L8.34669 6.50932L8.36738 6.69966L8.70669 6.63759L8.71496 6.71621L8.64876 6.77415L8.52876 6.80311L8.51221 6.89828L8.72324 7.03484L8.85152 7.04725L9.24876 6.84863L9.3729 6.65001L9.33979 6.55484L9.766 6.41415L9.60876 6.34794L9.29014 6.38932L9.31497 6.38518ZM14.9632 5.40449L14.9384 5.38794L14.9301 5.10242L14.9757 5.06104H15.0253L15.1577 5.10656L15.0212 5.40035H14.9674L14.9632 5.40449ZM13.6391 5.66104L13.5481 5.49553L13.6226 5.2638L13.5646 5.19346L13.4901 5.18104L13.4819 5.10242L13.5481 5.04449L13.7012 5.1107L13.7136 5.64035L13.6929 5.66518H13.6432L13.6391 5.66104ZM14.6239 5.35484L14.3674 5.25966L14.7315 5.00725L14.8639 5.0569L14.8763 5.17277L14.8557 5.19346V5.2307L14.6281 5.35897L14.6239 5.35484ZM8.30531 5.40449L7.99496 5.10656L8.05703 5.00725L8.18531 5.01966L8.21014 5.03621H8.25979L8.42945 5.21001L8.30531 5.40863V5.40449ZM11.9715 5.88035L11.9922 5.85966L11.926 5.71484L11.8432 5.66518L12.0791 5.53277L12.1701 5.28035L12.4763 5.12725L12.5674 5.08587L12.6294 4.98656L12.7619 5.03621L12.7701 5.1107L12.8488 5.16035L12.8901 5.29277L12.6212 5.33001L12.6998 5.5907L12.5798 5.61553L12.4722 5.54518L12.4888 5.45001L12.2198 5.48725L12.1577 5.58242L12.1867 5.64035L12.1205 5.69828L12.4308 6.00035L12.8157 6.10794L13.0019 6.43484L13.0846 6.31897L13.0557 6.05415L13.515 5.93001L13.8874 6.17415L13.9288 6.30242L13.8046 6.53828L13.9494 6.9438L14.0405 6.86518L14.0901 6.40587L14.326 6.73277L14.7894 6.72035L14.7232 6.77828L14.5536 6.81139L14.5081 6.85277V6.89001L14.4874 6.91483L14.5743 7.00173L14.537 7.11759H14.4874L14.4046 7.06794L14.0943 7.1838L13.8957 7.15897L13.5977 7.38656H13.5481L13.5688 7.37001H13.5191L13.5439 7.3907L13.4984 7.43208L13.2874 7.29552L13.3246 6.76173L13.4239 6.79484L13.4363 6.86932L13.5398 6.93966L13.726 6.81553L13.6598 6.6707L13.6805 6.65001L13.6557 6.62932V6.6707L13.2501 6.54656L13.2294 6.56725L13.2129 6.66242L13.0722 6.71208L12.8446 6.6707L12.6253 6.4969L12.6708 6.45553L12.4888 6.37277L12.4143 6.14932L12.1536 6.0169L11.4667 6.09966L11.3591 5.99208L11.835 5.84725L11.9674 5.89277L11.9715 5.88035ZM8.78117 5.30932L8.63634 5.1107V4.9038H8.81014L8.97979 5.09001L8.90117 5.28449L8.78117 5.30932ZM6.78669 4.97001L6.71221 4.95759V4.92035L6.6791 4.9038L6.72876 4.86242L6.82393 4.85415L6.83221 4.93277L6.78669 4.97415V4.97001ZM7.126 5.12311L7.01841 5.05277L7.006 4.9369L7.11772 4.83759L7.74255 4.88725L7.126 5.11897V5.12311ZM8.49565 4.9907L8.04462 4.94518L8.06117 4.85001L8.13152 4.82518L8.49152 4.94932V4.9907H8.49565ZM13.7798 4.94104L13.7508 4.88311L13.8419 4.80449L13.9163 4.8169V4.85415L13.8294 4.93277H13.7798V4.94104ZM8.47083 5.84311L8.35497 5.69828L8.39221 5.58242L9.07083 5.45828L9.27359 5.27621L9.20324 5.09001L8.94669 4.7838L9.45565 4.94104L9.35634 5.11897L9.38945 5.21001L9.18669 5.56587L9.26531 5.61553L9.36048 5.57001L9.41841 5.64035L9.37703 5.71897L9.10807 5.75621L8.86807 5.60311L8.75221 5.66518L8.78945 5.76035L8.47496 5.83897L8.47083 5.84311ZM15.7205 4.95346L15.6129 4.88311L15.6543 4.80449L15.7743 4.77553L15.766 4.90794L15.7205 4.94932V4.95346ZM13.1053 5.21828L13.0226 5.16863L12.977 4.79208L12.9977 4.77139L13.3701 4.97415L13.4032 5.06518L13.1012 5.21828H13.1053ZM14.5536 4.97001L14.3715 4.88725L14.6157 4.8707L14.5991 4.71759L14.7688 4.68863L14.5536 4.97001ZM15.3108 4.86242L15.2322 4.85001L15.2032 4.79622L15.2198 4.73828L15.3357 4.67208L15.4639 4.68449L15.4474 4.77966L15.3108 4.86656V4.86242ZM7.05979 4.71759V4.68035L7.07634 4.65966H7.17565V4.69277L7.1591 4.71346H7.05979V4.71759ZM7.78393 4.76311H7.61428L7.56876 4.58932L7.6929 4.60173L7.82531 4.68863L7.78393 4.76725V4.76311ZM13.1798 4.82518L13.2129 4.67208L13.5232 4.55622L13.6557 4.85415L13.4529 4.82932L13.2915 4.72587L13.1798 4.82932V4.82518ZM13.6805 4.65966L13.8336 4.48173L13.9122 4.53139L13.6805 4.65966ZM12.8819 4.60173L12.8488 4.5107L12.9108 4.41139L13.0763 4.38242L13.1343 4.45277L12.8777 4.60173H12.8819ZM7.82117 4.48587L7.72186 4.45277L7.71359 4.37828L7.78393 4.35346L7.91221 4.40311L7.82117 4.48587ZM15.2777 4.36587L15.2653 4.28725L15.3688 4.32035V4.35759L15.3522 4.37828L15.3274 4.36173H15.2777V4.36587ZM13.8253 4.44449L13.817 4.37001L13.8832 4.30794L14.0074 4.28311L13.8253 4.44449ZM14.1026 4.68863L14.1274 4.46104L14.3632 4.37001V4.33277L14.6239 4.25828L14.1026 4.68863ZM13.275 4.36587L13.1963 4.31622L13.2129 4.25828H13.2667L13.3701 4.32449L13.3246 4.36587H13.275ZM15.0626 4.85828L14.7563 4.34932L14.8474 4.26656L14.9922 4.25828L15.1246 4.34518L15.0626 4.86242V4.85828ZM14.1522 4.27897L14.0157 4.15484V4.11759L14.1563 4.10518L14.2432 4.19622L14.1522 4.27484V4.27897ZM7.40738 4.32863L7.20876 4.0969L7.32876 4.06794L7.41565 4.15484L7.40738 4.32449V4.32863ZM15.0005 4.11759L14.9426 4.08449L14.9632 4.02656H15.017L15.0377 4.00173L15.0915 4.03484L15.0998 4.11346H15.0046L15.0005 4.11759ZM14.5536 4.07208L14.3757 4.02656L14.3136 3.91897L14.4626 3.9107L14.595 3.99759L14.5494 4.03897V4.07622L14.5536 4.07208ZM14.1894 3.9107L14.115 3.89828L14.057 3.86518V3.82794L14.1812 3.84035L14.206 3.8569V3.89415L14.1853 3.91484L14.1894 3.9107ZM15.4639 3.82794H15.2405L15.5219 3.69139L15.5757 3.72449V3.76587L15.4639 3.82794ZM15.6543 3.56725L15.6708 3.47208H15.766L15.7536 3.55897H15.6543V3.56725ZM14.5081 3.69966L14.4791 3.64587L14.6819 3.4638L14.9674 3.57553L14.8432 3.60449L14.7439 3.57139L14.6322 3.67484L14.5081 3.69966ZM14.7108 1.98242L14.4253 2.07759L14.0819 2.30932L13.5191 2.82242L12.6543 3.69139L12.3439 4.01828L12.0046 4.28725L11.7026 4.47759L11.4129 4.53553L11.1812 4.4569L10.817 4.29553L9.89428 3.76587L9.05428 3.16173L8.38807 2.73139L7.99496 2.55346L7.63083 2.59484L7.23772 2.8307L6.80738 3.14518L6.30255 3.69139L5.91359 4.00173L5.52462 4.2707L5.11496 4.60173L4.94117 4.80035L4.70117 5.10242L4.80876 5.37966L5.1191 5.71897L5.3591 5.87208L5.76048 6.16587L7.52324 7.29966L7.82117 7.52311L7.8791 7.80449L7.67221 8.16035L7.53979 8.28449L7.22945 8.60725L6.2529 9.37277L5.92186 9.71621L5.566 10.0804L5.30531 10.4031L5.36324 10.6845L5.64048 10.97L5.78531 11.1314L6.18669 11.4252L6.81979 11.7604L7.22117 12.0583L7.89565 12.5217L8.45428 12.8817L8.88876 13.0224L9.25703 12.981L9.62117 12.7286L9.82393 12.5466L10.2129 12.2362L11.1398 11.2679L11.4998 10.9783L11.7026 10.7962L12.075 10.581L12.3191 10.5272L12.5715 10.5852L12.8819 10.7176L13.4198 11.061L13.9908 11.4955L14.3674 11.7728L14.9591 12.1907L15.4846 12.4597L15.8488 12.6252L16.0763 12.6666L16.395 12.6252L16.7136 12.4141L16.8998 12.29L17.3053 11.959L17.657 11.5948L18.0377 11.2514L18.6253 10.7548L19.006 10.4114L19.1839 10.039L19.126 9.72035L18.8239 9.45553L18.6336 9.29828L18.2281 9.00449L16.7715 8.17277L16.1301 7.76311L15.886 7.53552L15.795 7.37001L15.8446 7.15897L16.0101 6.88173L16.1881 6.72035L16.4736 6.41415L17.0405 5.97966L17.4294 5.66932L18.1908 4.97415L18.406 4.69277L18.4557 4.48173L18.3605 4.27897L18.1122 4.05139L17.4998 3.65828L16.8419 3.30656L16.4115 3.03346L15.8115 2.54104L15.435 2.25966L15.2239 2.16035L14.9384 2.00725H14.715" fill="#FF0000"/>
<path d="M24 7.74236V8.92167H0V7.74236C0 7.00167 0.161379 6.28581 0.463448 5.61133H23.5366C23.8386 6.28581 24 7.00167 24 7.74236Z" fill="#C70005"/>
<path d="M13.6551 0.0786207V15.4014C13.113 15.4552 12.5627 15.48 11.9999 15.48C11.4371 15.48 10.8868 15.4552 10.3447 15.4014V0.0786207C10.8868 0.0248276 11.4371 0 11.9999 0C12.5627 0 13.113 0.0248276 13.6551 0.0786207Z" fill="#BF0005"/>
<path d="M13.6551 22.3158V15.4014C13.113 15.4552 12.5627 15.48 11.9999 15.48C11.4371 15.48 10.8868 15.4552 10.3447 15.4014V22.3158H13.6551Z" fill="#E00006"/>
</g>
<defs>
<linearGradient id="paint0_linear_1801_131" x1="0" y1="11.4664" x2="24" y2="11.4664" gradientUnits="userSpaceOnUse">
<stop stop-color="#4D4D4D"/>
<stop offset="1" stop-color="#1A1A1A"/>
</linearGradient>
<linearGradient id="paint1_linear_1801_131" x1="0" y1="7.74184" x2="0.413793" y2="7.74184" gradientUnits="userSpaceOnUse">
<stop stop-color="#4D4D4D"/>
<stop offset="1" stop-color="#1A1A1A"/>
</linearGradient>
<clipPath id="clip0_1801_131">
<rect width="24" height="22.3945" fill="white"/>
</clipPath>
</defs>
</svg>
