<svg width="20" height="24" viewBox="0 0 20 24" fill="none" xmlns="http://www.w3.org/2000/svg">
<g clip-path="url(#clip0_1801_196)">
<path opacity="0.8" d="M9.9587 23.9998L19.1205 12.9658H0.796875L9.9587 23.9998Z" fill="url(#paint0_linear_1801_196)"/>
<path d="M19.917 6.07469C19.917 2.72066 15.4596 0 9.95851 0C4.45743 0 0 2.72066 0 6.07469V10.552C0 13.9061 4.45743 16.6267 9.95851 16.6267C15.4596 16.6267 19.917 13.9061 19.917 10.552V6.07469Z" fill="#ECFF83"/>
<path opacity="0.5" d="M9.95851 4.49707C4.45743 4.49707 0 7.21773 0 10.5757C0 13.9338 4.45743 16.6504 9.95851 16.6504C15.4596 16.6504 19.917 13.9298 19.917 10.5757C19.917 7.22172 15.4596 4.50105 9.95851 4.50105V4.49707Z" fill="#59E52C"/>
<path opacity="0.5" d="M9.95851 0C4.45743 0 0 2.72066 0 6.07469C0 9.42871 4.45743 12.1494 9.95851 12.1494C15.4596 12.1494 19.917 9.42871 19.917 6.07469C19.917 2.72066 15.4596 0 9.95851 0Z" fill="#59E52C"/>
<g opacity="0.5">
<path d="M3.50098 7.30524C3.50098 8.36084 4.82745 9.21727 6.46463 9.21727C8.10181 9.21727 9.42828 8.36084 9.42828 7.30524V6.51653C9.42828 5.46092 8.10181 4.60449 6.46463 4.60449C4.82745 4.60449 3.50098 5.46092 3.50098 6.51653V7.30524Z" fill="#B5BD8C"/>
<path d="M6.46853 8.42856C8.10531 8.42856 9.43219 7.57251 9.43219 6.51653C9.43219 5.46054 8.10531 4.60449 6.46853 4.60449C4.83175 4.60449 3.50488 5.46054 3.50488 6.51653C3.50488 7.57251 4.83175 8.42856 6.46853 8.42856Z" fill="#ECFF83"/>
<path d="M10.4834 7.30524C10.4834 8.36084 11.8099 9.21727 13.447 9.21727C15.0842 9.21727 16.4107 8.36084 16.4107 7.30524V6.51653C16.4107 5.46092 15.0842 4.60449 13.447 4.60449C11.8099 4.60449 10.4834 5.46092 10.4834 6.51653V7.30524Z" fill="#B5BD8C"/>
<path d="M13.447 8.42856C15.0838 8.42856 16.4107 7.57251 16.4107 6.51653C16.4107 5.46054 15.0838 4.60449 13.447 4.60449C11.8103 4.60449 10.4834 5.46054 10.4834 6.51653C10.4834 7.57251 11.8103 8.42856 13.447 8.42856Z" fill="#ECFF83"/>
</g>
<g opacity="0.5">
<path d="M6.99512 11.855C6.99512 12.9106 8.32159 13.7671 9.95877 13.7671C11.5959 13.7671 12.9224 12.9106 12.9224 11.855V11.0663C12.9224 10.0107 11.5959 9.1543 9.95877 9.1543C8.32159 9.1543 6.99512 10.0107 6.99512 11.0663V11.855Z" fill="#B5BD8C"/>
<path d="M9.95877 12.9784C11.5955 12.9784 12.9224 12.1223 12.9224 11.0663C12.9224 10.0103 11.5955 9.1543 9.95877 9.1543C8.32199 9.1543 6.99512 10.0103 6.99512 11.0663C6.99512 12.1223 8.32199 12.9784 9.95877 12.9784Z" fill="#ECFF83"/>
</g>
<g opacity="0.5">
<path d="M3.50098 6.38532C3.50098 7.44092 4.82745 8.29735 6.46463 8.29735C8.10181 8.29735 9.42828 7.44092 9.42828 6.38532V5.5966C9.42828 4.541 8.10181 3.68457 6.46463 3.68457C4.82745 3.68457 3.50098 4.541 3.50098 5.5966V6.38532Z" fill="#B5BD8C"/>
<path d="M6.46853 7.50864C8.10531 7.50864 9.43219 6.65259 9.43219 5.5966C9.43219 4.54062 8.10531 3.68457 6.46853 3.68457C4.83175 3.68457 3.50488 4.54062 3.50488 5.5966C3.50488 6.65259 4.83175 7.50864 6.46853 7.50864Z" fill="#ECFF83"/>
<path d="M10.4834 6.38532C10.4834 7.44092 11.8099 8.29735 13.447 8.29735C15.0842 8.29735 16.4107 7.44092 16.4107 6.38532V5.5966C16.4107 4.541 15.0842 3.68457 13.447 3.68457C11.8099 3.68457 10.4834 4.541 10.4834 5.5966V6.38532Z" fill="#B5BD8C"/>
<path d="M13.447 7.50864C15.0838 7.50864 16.4107 6.65259 16.4107 5.5966C16.4107 4.54062 15.0838 3.68457 13.447 3.68457C11.8103 3.68457 10.4834 4.54062 10.4834 5.5966C10.4834 6.65259 11.8103 7.50864 13.447 7.50864Z" fill="#ECFF83"/>
</g>
<g opacity="0.5">
<path d="M6.99512 10.9302C6.99512 11.9858 8.32159 12.8423 9.95877 12.8423C11.5959 12.8423 12.9224 11.9858 12.9224 10.9302V10.1415C12.9224 9.08592 11.5959 8.22949 9.95877 8.22949C8.32159 8.22949 6.99512 9.08592 6.99512 10.1415V10.9302Z" fill="#B5BD8C"/>
<path d="M9.95877 12.0536C11.5955 12.0536 12.9224 11.1975 12.9224 10.1415C12.9224 9.08554 11.5955 8.22949 9.95877 8.22949C8.32199 8.22949 6.99512 9.08554 6.99512 10.1415C6.99512 11.1975 8.32199 12.0536 9.95877 12.0536Z" fill="#ECFF83"/>
</g>
<g opacity="0.5">
<path d="M3.50098 5.46149C3.50098 6.51709 4.82745 7.37352 6.46463 7.37352C8.10181 7.37352 9.42828 6.51709 9.42828 5.46149V4.67278C9.42828 3.61717 8.10181 2.76074 6.46463 2.76074C4.82745 2.76074 3.50098 3.61717 3.50098 4.67278V5.46149Z" fill="#B5BD8C"/>
<path d="M6.46853 6.58481C8.10531 6.58481 9.43219 5.72876 9.43219 4.67278C9.43219 3.61679 8.10531 2.76074 6.46853 2.76074C4.83175 2.76074 3.50488 3.61679 3.50488 4.67278C3.50488 5.72876 4.83175 6.58481 6.46853 6.58481Z" fill="#ECFF83"/>
<path d="M10.4834 5.46149C10.4834 6.51709 11.8099 7.37352 13.447 7.37352C15.0842 7.37352 16.4107 6.51709 16.4107 5.46149V4.67278C16.4107 3.61717 15.0842 2.76074 13.447 2.76074C11.8099 2.76074 10.4834 3.61717 10.4834 4.67278V5.46149Z" fill="#B5BD8C"/>
<path d="M13.447 6.58481C15.0838 6.58481 16.4107 5.72876 16.4107 4.67278C16.4107 3.61679 15.0838 2.76074 13.447 2.76074C11.8103 2.76074 10.4834 3.61679 10.4834 4.67278C10.4834 5.72876 11.8103 6.58481 13.447 6.58481Z" fill="#ECFF83"/>
</g>
<g opacity="0.5">
<path d="M6.99512 10.0103C6.99512 11.0659 8.32159 11.9224 9.95877 11.9224C11.5959 11.9224 12.9224 11.0659 12.9224 10.0103V9.2216C12.9224 8.166 11.5959 7.30957 9.95877 7.30957C8.32159 7.30957 6.99512 8.166 6.99512 9.2216V10.0103Z" fill="#B5BD8C"/>
<path d="M9.95877 11.1336C11.5955 11.1336 12.9224 10.2776 12.9224 9.2216C12.9224 8.16562 11.5955 7.30957 9.95877 7.30957C8.32199 7.30957 6.99512 8.16562 6.99512 9.2216C6.99512 10.2776 8.32199 11.1336 9.95877 11.1336Z" fill="#ECFF83"/>
</g>
</g>
<defs>
<linearGradient id="paint0_linear_1801_196" x1="0.796875" y1="18.4828" x2="19.1205" y2="18.4828" gradientUnits="userSpaceOnUse">
<stop stop-color="#ECFF83"/>
<stop offset="1" stop-color="#59E52C"/>
</linearGradient>
<clipPath id="clip0_1801_196">
<rect width="19.917" height="24" fill="white"/>
</clipPath>
</defs>
</svg>
