<svg width="24" height="24" viewBox="0 0 24 24" fill="none" xmlns="http://www.w3.org/2000/svg">
<path d="M20.596 13.66L24 11.956L20.576 10.244L23.068 7.368L19.248 7.096L20.456 3.484L16.82 4.696L16.552 0.896L13.66 3.404L11.956 0L10.244 3.424L7.368 0.932L7.096 4.748L3.484 3.544L4.696 7.18L0.896 7.448L3.404 10.34L0 12.044L3.424 13.756L0.932 16.632L4.748 16.904L3.544 20.516L7.18 19.304L7.448 23.104L10.34 20.596L12.044 24L13.756 20.576L16.632 23.068L16.904 19.248L20.516 20.456L19.304 16.82L23.104 16.552L20.596 13.66Z" fill="url(#paint0_linear_1801_115)"/>
<path d="M12.4008 5.00009C13.2688 5.26409 13.8648 5.78409 14.0128 6.70809C14.1608 7.62009 13.6248 8.54009 12.7048 8.88009C11.9368 9.16409 10.9808 8.95209 10.3768 8.18809C9.61678 7.23209 9.94478 5.49609 11.4048 5.06409C11.4648 5.04809 11.5208 5.02009 11.5808 4.99609H12.4008V5.00009Z" fill="#333333"/>
<path d="M10.8285 18.9997C10.4445 18.6517 10.0445 18.3157 9.67646 17.9517C9.27246 17.5477 8.87646 17.1317 8.50846 16.6957C8.09646 16.1997 8.13646 15.6117 8.57646 15.1517C8.93646 14.7757 9.30446 14.4077 9.66846 14.0357C9.82846 13.8717 9.96046 13.8597 10.1365 14.0437C10.5245 14.4517 10.9285 14.8437 11.3365 15.2317C11.5005 15.3877 11.5125 15.5077 11.3405 15.6677C11.0925 15.8917 10.8725 16.1437 10.6245 16.3637C10.4365 16.5317 10.4125 16.6557 10.6165 16.8357C10.8885 17.0757 11.1405 17.3437 11.3965 17.6037C11.9245 18.1357 11.9085 18.5397 11.3325 19.0037H10.8285V18.9997Z" fill="#333333"/>
<path d="M12.652 19.0004C12.064 18.5284 12.044 18.1444 12.584 17.6044C12.864 17.3244 13.14 17.0404 13.428 16.7684C13.556 16.6444 13.552 16.5524 13.428 16.4324C13.156 16.1724 12.896 15.9004 12.624 15.6444C12.48 15.5084 12.476 15.3964 12.624 15.2564C13.052 14.8444 13.476 14.4284 13.892 14.0044C14.024 13.8684 14.136 13.8684 14.26 13.9964C14.704 14.4484 15.164 14.8884 15.584 15.3644C15.836 15.6484 15.844 16.2724 15.568 16.5644C14.784 17.3964 13.964 18.1924 13.16 19.0044H12.656L12.652 19.0004Z" fill="#333333"/>
<path d="M9.75638 11.7357C9.51638 11.9877 9.28038 12.2437 9.03238 12.4877C8.74438 12.7717 8.46038 13.0637 8.15238 13.3237C7.86838 13.5677 7.49638 13.5397 7.23638 13.2997C6.95638 13.0397 6.92438 12.7477 7.14438 12.4037C7.18438 12.3437 7.22038 12.2757 7.27238 12.2277C8.20038 11.3157 9.12038 10.3917 10.0724 9.50366C10.2564 9.33166 10.5804 9.24766 10.8444 9.23566C11.6084 9.19966 12.3764 9.22366 13.1404 9.22366C13.5044 9.22366 13.8164 9.33966 14.0724 9.59966C14.9004 10.4237 15.7324 11.2437 16.5604 12.0637C16.6484 12.1517 16.7244 12.2517 16.8004 12.3477C17.0644 12.6917 17.0604 12.9917 16.7884 13.2637C16.4764 13.5717 16.1644 13.6037 15.8164 13.2957C15.3644 12.8957 14.9444 12.4597 14.5084 12.0397C14.4204 11.9557 14.3284 11.8717 14.1564 11.8037C14.1564 12.0877 14.1564 12.3677 14.1564 12.6517C14.1524 13.0757 14.1244 13.0957 13.7164 13.1037C12.5724 13.1197 11.4324 13.1357 10.2884 13.1477C9.88038 13.1517 9.86438 13.1317 9.86038 12.7277C9.86038 12.4117 9.86038 12.0997 9.86038 11.7837L9.74838 11.7317L9.75638 11.7357Z" fill="#333333"/>
<defs>
<linearGradient id="paint0_linear_1801_115" x1="3.516" y1="20.484" x2="20.484" y2="3.516" gradientUnits="userSpaceOnUse">
<stop stop-color="#FCEE21"/>
<stop offset="0.99" stop-color="#CCFFCC"/>
</linearGradient>
</defs>
</svg>
