<?xml version="1.0" encoding="UTF-8"?><svg id="Layer_1" xmlns="http://www.w3.org/2000/svg" xmlns:xlink="http://www.w3.org/1999/xlink" viewBox="0 0 72 72"><defs><style>.cls-1,.cls-2,.cls-3,.cls-4,.cls-5,.cls-6,.cls-7,.cls-8,.cls-9{fill:none;}.cls-2{stroke-width:.19px;}.cls-2,.cls-3,.cls-10,.cls-4,.cls-5,.cls-6,.cls-7,.cls-8,.cls-9{stroke-miterlimit:10;}.cls-2,.cls-3,.cls-10,.cls-4,.cls-7,.cls-8{stroke:#000;}.cls-2,.cls-4,.cls-8{stroke-linecap:round;}.cls-11{fill:url(#linear-gradient);}.cls-12{clip-path:url(#clippath);}.cls-13{fill:aqua;}.cls-14{fill:#eaeaea;}.cls-15,.cls-10{fill:#fff;}.cls-16{fill:red;}.cls-17{fill:#c2a89b;}.cls-18{fill:#b3b3b3;}.cls-19{fill:#c1272d;}.cls-20{fill:#29abe2;}.cls-3{stroke-width:.31px;}.cls-10{stroke-width:.24px;}.cls-21{clip-path:url(#clippath-1);}.cls-22{fill:url(#linear-gradient-3);}.cls-23{fill:url(#linear-gradient-2);}.cls-24{opacity:.6;}.cls-4{stroke-width:.31px;}.cls-5{stroke:#848484;stroke-dasharray:0 .12;}.cls-5,.cls-6,.cls-7,.cls-9{stroke-width:.3px;}.cls-6,.cls-9{stroke:#4d4d4d;}.cls-8{stroke-width:.23px;}.cls-9{stroke-dasharray:0 0 .12 .12;}</style><linearGradient id="linear-gradient" x1="36" y1="65.19" x2="36" y2="6.81" gradientUnits="userSpaceOnUse"><stop offset="0" stop-color="#96bd96"/><stop offset="1" stop-color="#cfc"/></linearGradient><clipPath id="clippath"><rect class="cls-1" x="4.16" y="20.61" width="18.04" height="22.29"/></clipPath><clipPath id="clippath-1"><rect class="cls-1" x="47.68" y="18.49" width="22.29" height="24.41"/></clipPath><linearGradient id="linear-gradient-2" x1="54.49" y1="26.07" x2="56.44" y2="29.46" gradientUnits="userSpaceOnUse"><stop offset="0" stop-color="#000"/><stop offset="1" stop-color="#000" stop-opacity="0"/></linearGradient><linearGradient id="linear-gradient-3" x1="60.45" y1="26.07" x2="62.4" y2="29.46" xlink:href="#linear-gradient-2"/></defs><path class="cls-11" d="M60.07,15.03l11.93,27.28h-2.6l-10.61-24.28-10.61,24.28h-2.6l11.93-27.28c.23-.52,.72-.84,1.28-.84h0c.57,0,1.06,.32,1.28,.84Zm-13.69,30.08c1.63,5.45,6.73,9.26,12.41,9.26s10.78-3.81,12.41-9.26l.18-.61h-25.19l.18,.61ZM13.22,18.03l10.61,24.28h2.6L14.5,15.03c-.23-.52-.72-.84-1.28-.84h0c-.57,0-1.06,.32-1.28,.84L0,42.31H2.6L13.22,18.03Zm12.41,27.09l.18-.61H.62l.18,.61c1.63,5.45,6.73,9.26,12.41,9.26s10.78-3.81,12.41-9.26Zm12.73-30.52c.68-.46,1.23-1.11,1.56-1.88h20.41v-3.31h-20.41c-.65-1.53-2.16-2.6-3.92-2.6s-3.27,1.07-3.92,2.6H11.67v3.31h20.42c.33,.77,.87,1.42,1.56,1.88V60.46h-13.23v4.72h31.18v-4.72h-13.23V14.6Z"/><g class="cls-12"><g><path d="M13.45,22.33h0c3.03,0,5.49,2.46,5.49,5.49v9.18c0,.73-.59,1.32-1.32,1.32H9.19c-.68,0-1.23-.55-1.23-1.23v-9.27c0-3.03,2.46-5.49,5.49-5.49Z"/><rect class="cls-10" x="12.96" y="34.95" width=".61" height="4.97"/><polygon points="18.89 37.23 7.63 37.22 7.62 50.41 13.18 49.69 18.88 50.66 18.89 37.23"/><path class="cls-14" d="M12.6,30.43l-1.62-.09c-.97-.05-1.62-1.02-1.3-1.94l1.14-3.34c.25-.73,.93-1.21,1.7-1.21h2.4c.63,0,1.18,.4,1.38,1l1.45,4.3c.25,.74-.3,1.51-1.09,1.51l-1.52-.09"/><path class="cls-14" d="M11.49,30.37l-.24,3.66c-.03,.29,.07,.58,.28,.79,.19,.19,.45,.35,.72,.46s.55,.17,.79,.17c.73,0,1.37-.47,1.6-1.16l1.16-3.68"/><path class="cls-7" d="M12.6,30.43l-1.62-.09c-.97-.05-1.62-1.02-1.3-1.94l1.14-3.34c.25-.73,.93-1.21,1.7-1.21h2.4c.63,0,1.18,.4,1.38,1l1.45,4.3c.25,.74-.3,1.51-1.09,1.51l-1.52-.09"/><path class="cls-7" d="M11.49,30.37l-.24,3.66c-.03,.29,.07,.58,.28,.79,.19,.19,.45,.35,.72,.46s.55,.17,.79,.17c.73,0,1.37-.47,1.6-1.16l1.16-3.68"/><path d="M11.76,29.07l-.39-.13c-.46-.15-.51-.71-.46-1.17,.02-.21,.09-.41,.21-.58l.68-1.03c.26-.4,.76-.61,1.28-.54h0c.44,.06,.75,.42,.71,.8l-.18,1.63c-.09,.8-.99,1.29-1.85,1.01Z"/><rect x="13.43" y="29.5" width=".61" height="1.46" rx=".3" ry=".3" transform="translate(1.5 61.1) rotate(-133.96)"/><rect x="13.83" y="29.62" width=".61" height="1.46" rx=".3" ry=".3" transform="translate(35.16 56.39) rotate(166.04)"/><path d="M15.85,29.21l-.59,.07c-.5,.06-.95-.31-.99-.81l-.19-2.3c-.02-.24,.15-.45,.39-.48l.39-.05c.56-.08,1.1,.23,1.33,.74l.56,1.25c.31,.69-.14,1.49-.9,1.58Z"/><path d="M13.5,32.41h.21c.05,0,.09,.04,.09,.09v.52h-.49v-.42c0-.1,.08-.18,.18-.18Z" transform="translate(23.61 66.68) rotate(-173.96)"/><path d="M12.67,32.31h.49v.52c0,.05-.04,.09-.09,.09h-.21c-.1,0-.18-.08-.18-.18v-.42h0Z" transform="translate(5.29 -1.62) rotate(9.04)"/><path d="M11.91,32.18h.4v.43s-.03,.08-.08,.08h-.18c-.08,0-.15-.07-.15-.15v-.35h0Z" transform="translate(5.25 -1.5) rotate(9.04)"/><rect x="5.72" y="37.25" width="2.06" height="10.2"/><rect x="18.59" y="37.25" width="2.06" height="10.2"/><path class="cls-5" d="M11.55,29.5l-.49-.16c-.58-.19-.64-.89-.57-1.48,.03-.26,.12-.51,.26-.73l.85-1.29c.32-.5,.95-.77,1.61-.68h0"/><g><path class="cls-6" d="M16.96,28.89s-.02,.03-.03,.05"/><path class="cls-9" d="M16.87,29.04c-.21,.28-.53,.48-.92,.53l-.58,.07"/><line class="cls-6" x1="15.29" y1="29.64" x2="15.23" y2="29.65"/></g><polyline class="cls-7" points="11.5 32.16 14.54 32.42 14.66 32.4 14.78 31.92"/><path class="cls-24" d="M18.93,31.71s-2.06-2.29-5.73-2.29c-2.27,0-5.25,2.28-5.25,2.28v-3.08c0-3.02,2.48-5.48,5.49-5.48h0c3.02,0,5.48,2.47,5.48,5.49v3.08Z"/><path d="M18.93,30.57s-2.06-2.29-5.73-2.29c-2.27,0-5.25,2.28-5.25,2.28v-3.08c0-3.02,2.48-5.48,5.49-5.48h0c3.02,0,5.48,2.47,5.48,5.49v3.08Z"/><circle class="cls-16" cx="12.96" cy="28.14" r=".31"/><circle class="cls-16" cx="16.24" cy="28.14" r=".31"/></g></g><g class="cls-21"><g><path d="M54.17,21.89h8.49c.73,0,1.32,.59,1.32,1.32v9.25c0,3.05-2.48,5.53-5.53,5.53h0c-3.05,0-5.53-2.48-5.53-5.53v-9.34c0-.68,.55-1.24,1.24-1.24Z" transform="translate(117.21 59.33) rotate(179.45)"/><polygon points="52.89 37 64.22 36.8 64.3 53.07 58.68 52.44 52.97 53.51 52.89 37"/><path class="cls-17" d="M59.32,30.05l1.63-.11c.97-.06,1.62-1.04,1.29-1.96l-1.18-3.35c-.26-.73-.95-1.21-1.72-1.21l-2.42,.02c-.63,0-1.19,.41-1.38,1.01l-1.42,4.34c-.25,.75,.32,1.52,1.11,1.52l1.53-.1"/><path class="cls-17" d="M60.44,29.97l.27,3.49c.03,.28-.07,.55-.27,.75-.19,.18-.45,.34-.72,.45s-.56,.17-.8,.17c-.73,0-1.38-.43-1.62-1.09l-1.2-3.51"/><path class="cls-3" d="M57.3,33.72c.23,.69,.89,1.16,1.62,1.15,.24,0,.52-.07,.8-.18s.53-.28,.72-.47c.21-.21,.3-.5,.27-.79l-.28-3.45,.52-.03c.97-.06,1.62-1.04,1.29-1.96l-1.18-3.35c-.26-.73-.95-1.21-1.72-1.21l-2.42,.02c-.63,0-1.19,.41-1.38,1.01l-1.42,4.34c-.25,.75,.32,1.52,1.11,1.52l.88-.06,1.2,3.47Z"/><path class="cls-24" d="M52.95,33.25s2.05-2.32,5.75-2.36c2.29-.02,5.3,2.25,5.3,2.25l-.03-3.1c-.03-3.04-2.54-5.5-5.58-5.47h0c-3.04,.03-5.5,2.54-5.47,5.58l.03,3.1Z"/><path d="M52.94,30.24s2.05-2.32,5.75-2.36c2.29-.02,5.3,2.25,5.3,2.25l-.03-3.1c-.03-3.04-2.54-5.5-5.58-5.47h0c-3.04,.03-5.5,2.54-5.47,5.58l.03,3.1Z"/><rect x="50.92" y="36.35" width="2.08" height="12.33"/><rect x="64" y="36.35" width="2.08" height="12.33"/><polyline class="cls-4" points="60.54 32.03 57.49 32.29 57.36 32.27 57.24 31.79"/><line class="cls-8" x1="59.14" y1="32.54" x2="58.23" y2="32.62"/><path d="M58.62,30.56c0-.13,.12-.25,.29-.26s.31,.09,.32,.22l-.61,.04Z"/><line class="cls-2" x1="58.24" y1="29.01" x2="58.11" y2="30.5"/><line class="cls-2" x1="58.48" y1="30.48" x2="58.11" y2="30.5"/><g><path class="cls-15" d="M64.45,26.5v2.85h-5.29l-.77-.88-.72,.88h-5.19v-2.85c0-.18,.14-.32,.32-.32h11.33c.18,0,.32,.14,.32,.32Z"/><polygon class="cls-18" points="52.95 29.81 52.48 29.35 52.95 29.35 52.95 29.81"/><polygon class="cls-18" points="63.99 29.81 64.45 29.35 63.99 29.35 63.99 29.81"/><rect class="cls-13" x="53.41" y="26.69" width="4.1" height="2.14"/><rect class="cls-16" x="59.38" y="26.69" width="4.1" height="2.14"/><polygon class="cls-20" points="57.51 26.69 57.51 27.16 53.88 27.16 53.88 28.84 53.41 28.84 53.41 26.69 57.51 26.69"/><polygon class="cls-19" points="63.47 26.69 63.47 27.16 59.84 27.16 59.84 28.84 59.38 28.84 59.38 26.69 63.47 26.69"/><rect class="cls-23" x="53.41" y="26.69" width="4.1" height="2.14"/><rect class="cls-22" x="59.38" y="26.69" width="4.1" height="2.14"/></g><circle class="cls-16" cx="59.87" cy="27.51" r=".31"/><circle class="cls-13" cx="53.93" cy="27.54" r=".31"/></g></g></svg>