<svg width="27" height="21" viewBox="0 0 27 21" fill="none" xmlns="http://www.w3.org/2000/svg">
<path d="M26.2235 2.62646C25.2843 3.0415 24.2719 3.32227 23.2107 3.45654C24.2963 2.80957 25.1257 1.77197 25.516 0.551269C24.5036 1.14941 23.3693 1.58887 22.1739 1.83301C21.2103 0.807617 19.8442 0.172852 18.3317 0.172852C15.4288 0.172852 13.0746 2.52881 13.0746 5.43408C13.0746 5.84912 13.1234 6.23975 13.2088 6.63037C8.84214 6.41064 4.97556 4.32324 2.3775 1.13721C1.9262 1.91846 1.67005 2.82178 1.67005 3.78613C1.67005 5.60498 2.59706 7.21631 4.01196 8.15625C3.14594 8.13184 2.34091 7.8877 1.63346 7.49707V7.55811C1.63346 10.1094 3.43868 12.2334 5.85377 12.7095C5.41466 12.8315 4.95116 12.8926 4.46326 12.8926C4.12173 12.8926 3.79241 12.856 3.47527 12.7949C4.14613 14.8823 6.08552 16.4082 8.37864 16.4448C6.57342 17.8608 4.31689 18.7031 1.85301 18.7031C1.4261 18.7031 1.01139 18.6787 0.59668 18.6299C2.92639 20.1313 5.68301 20.998 8.65918 20.998C18.3195 20.998 23.6132 12.978 23.6132 6.03223C23.6132 5.80029 23.6132 5.58057 23.601 5.34863C24.6256 4.61621 25.516 3.68848 26.2235 2.62646V2.62646Z" fill="#C1C1D1"/>
</svg>
